<?xml version="1.0" encoding="UTF-8"?>
<svg width="500px" height="160px" viewBox="0 0 500 160" version="1.1" xmlns="http://www.w3.org/2000/svg" xmlns:xlink="http://www.w3.org/1999/xlink">
    <title>AD93BD84-C1E9-4E15-97D7-954AF15BA9BE</title>
    <defs>
        <rect id="path-1" x="0" y="0" width="500" height="160"></rect>
        <rect id="path-3" x="0" y="0" width="163" height="136"></rect>
    </defs>
    <g id="Original" stroke="none" stroke-width="1" fill="none" fill-rule="evenodd">
        <g id="Dashboard---Welcome---Update-to-v4" transform="translate(-420.000000, -258.000000)">
            <g id="Modal" transform="translate(420.000000, 258.000000)">
                <g id="Update-Snapshot-moda">
                    <g id="Graphic">
                        <g id="ss-attack">
                            <mask id="mask-2" fill="white">
                                <use xlink:href="#path-1"></use>
                            </mask>
                            <use id="Mask" fill="#796DDE" xlink:href="#path-1"></use>
                            <text id="Icons-/-20px-/-Grey---Darkest-#333333" mask="url(#mask-2)" font-family="wpmudev-plugin-icons" font-size="600" font-weight="normal" line-spacing="20" fill="#8174EC">
                                <tspan x="-10" y="469">ﬁ</tspan>
                            </text>
                        </g>
                        <g transform="translate(120.000000, 23.000000)">
                            <mask id="mask-4" fill="white">
                                <use xlink:href="#path-3"></use>
                            </mask>
                            <g id="Mask"></g>
                            <g id="Snappie-2" mask="url(#mask-4)">
                                <g transform="translate(-11.000000, 0.000000)">
                                    <g id="Group-172" transform="translate(0.000000, 0.537730)">
                                        <path d="M126.974695,90.3106238 C126.974695,90.3106238 133.41663,89.4326843 137.12817,90.3106238 C139.866039,90.9580185 159.994203,96.0268883 156.097646,116.070577 C152.201089,136.114265 135.073056,141.15198 126.974695,138.632811 L126.974695,90.3106238 Z" id="Fill-5" fill="#886752"></path>
                                        <path d="M129.245538,135.978244 C129.245538,135.978244 136.734652,151.411036 143.167866,160.860257 C149.601079,170.309478 156.731374,168.894431 158.817013,176.198339 C164.563111,172.301509 171.129636,166.440687 171.399997,147.830738 C171.669734,129.221412 159.124751,116.234887 150.322456,111.09623 C141.520784,105.957574 129.245538,135.978244 129.245538,135.978244" id="Fill-7" fill="#886752"></path>
                                        <path d="M168.120472,183.490969 C170.91503,174.871087 169.216866,166.168956 168.591423,164.089691 C168.004603,162.135668 169.07421,159.183449 169.110341,157.07926 C169.206898,151.447736 168.453751,145.942078 167.413423,140.40651 C166.448472,135.270346 162.946243,130.117359 160.124275,125.788725 C158.868407,123.862118 156.869357,122.400963 155.39857,120.630753 C153.692308,118.577658 153.527849,116.266602 152.607751,113.908191 C151.153161,110.181466 147.373718,107.189991 143.894538,110.142834 C142.338407,111.464416 141.260702,114.823516 139.065423,114.933181 C137.807062,114.99549 135.825456,113.903829 134.618177,113.528104 C133.055816,113.041467 131.4268,112.685681 129.828931,112.33924 C128.877062,112.132373 128.220472,111.915536 126.97457,111.726116 L126.97457,138.633185 C128.220472,138.977133 129.416538,139.17403 130.802603,139.217024 C133.35421,144.254739 138.531554,154.091524 143.139521,160.860195 C145.668702,164.575081 148.318734,166.60886 150.714603,168.155379 C149.55903,171.396091 147.835948,177.881254 148.726144,185.950321 C149.990734,197.423975 164.530407,208.261449 167.449554,220.977552 C170.208603,219.973747 169.586898,221.208719 172.613816,220.977552 C176.272407,220.699029 163.721816,202.173197 168.120472,183.490969" id="Fill-11" fill="#3F225E"></path>
                                        <path d="M49.8411738,208.437348 C49.8411738,208.437348 51.2639934,182.385787 50.6640918,179.338235 C50.0641902,176.291305 44.7248787,158.273918 39.7088787,152.469174 C34.6935016,146.664431 13.7897639,115.399442 17.6439607,98.5995812 C21.4981574,81.7997203 49.2232066,86.9103374 57.4636,81.8402214 C65.7033705,76.7694823 74.6476984,66.2248622 82.3317967,69.0262929 C90.0158951,71.8277236 109.608944,84.0553206 109.608944,84.0553206 C109.608944,84.0553206 141.510256,91.2956731 144.421928,97.451842 C147.334223,103.608011 137.55701,138.45579 132.532289,144.706669 L127.506944,150.956925 C127.506944,150.956925 126.506485,159.229745 119.887633,162.616884 C121.228223,169.210464 121.550911,169.722648 117.6936,193.969105 C110.188289,203.097433 94.7739934,230.074911 94.7739934,230.074911 L49.8411738,208.437348 Z" id="Fill-13" fill="#977558"></path>
                                        <path d="M132.532289,144.70642 C132.532911,144.705174 132.534157,144.703928 132.535403,144.702681 C132.661862,144.544415 132.792682,144.363095 132.925993,144.169313 C132.944682,144.14252 132.962748,144.116973 132.981436,144.088934 C133.109141,143.899513 133.239338,143.6914 133.372026,143.471448 C133.396944,143.4297 133.421239,143.388576 133.446157,143.346206 C133.578846,143.122515 133.71278,142.884493 133.848584,142.63214 C133.872256,142.588523 133.895928,142.543038 133.9196,142.498798 C134.06101,142.233983 134.203043,141.957329 134.34819,141.664475 C134.360649,141.638928 134.373108,141.612135 134.38619,141.586588 C134.531961,141.288749 134.6796,140.977825 134.829108,140.653816 C134.840321,140.629516 134.851534,140.606461 134.862125,140.582161 C135.013502,140.251298 135.166748,139.905481 135.321239,139.549694 C135.34242,139.501716 135.362977,139.453737 135.384157,139.404513 C135.535534,139.052465 135.68878,138.688578 135.842026,138.313475 C135.86383,138.261135 135.885633,138.207549 135.906813,138.154586 C136.06442,137.768268 136.222026,137.373226 136.380879,136.965723 C136.392092,136.937061 136.403305,136.907152 136.414518,136.87849 C136.751534,136.009897 137.091043,135.097064 137.430551,134.146846 C137.43678,134.129399 137.44301,134.112575 137.449239,134.095752 C137.61619,133.626562 137.783764,133.148026 137.950092,132.661389 C137.961305,132.628366 137.973141,132.595342 137.984354,132.562318 C138.151305,132.075058 138.318256,131.580321 138.483961,131.078108 C138.489567,131.059415 138.495797,131.040099 138.502026,131.021406 C139.018452,129.45744 139.52678,127.829295 140.018289,126.16875 C140.02078,126.161896 140.022026,126.155665 140.024518,126.148811 C140.187108,125.598619 140.34783,125.044688 140.506682,124.488888 C141.62737,120.561527 142.636551,116.517647 143.40901,112.765998 C142.827174,113.240795 142.248452,113.720578 141.647928,114.187275 C136.688616,118.039242 129.182682,114.467044 123.864551,113.027074 C121.146616,112.2912 118.350813,111.703622 115.525108,111.665613 C114.424977,111.651282 113.214584,111.651282 112.140616,111.917967 C111.052321,112.188389 110.125993,112.648233 108.961075,112.697457 C106.461174,112.804006 104.03042,111.842572 101.704944,111.052489 C93.2396656,108.17691 84.2299279,107.166875 75.2899607,107.145066 C68.1528131,107.12762 61.0324852,107.727659 53.9370754,108.449825 C47.3344197,109.120898 40.7024852,109.866118 34.5396328,112.507413 C30.4923213,114.24273 26.7714361,115.892683 23.1838623,118.499086 C22.4593705,119.024977 21.7286492,119.565823 21.0359279,120.119753 C23.2878951,125.902066 26.0569115,131.706186 29.1716656,136.811819 L29.1716656,136.811819 C29.7946164,137.989466 30.5546164,139.129728 31.2224197,140.223882 C31.2236656,140.225751 31.2379934,140.228243 31.2392393,140.230113 C31.4560262,140.585899 31.6784197,140.936078 31.8933377,141.281895 C31.9014361,141.29498 31.9126492,141.308688 31.9213705,141.321773 C32.5655016,142.358602 33.1990426,143.348698 33.8101574,144.283962 C33.8338295,144.321348 33.8587475,144.35811 33.8830426,144.394873 C34.0717967,144.683989 34.2599279,144.967496 34.4443213,145.245396 C34.4536656,145.259727 34.4630098,145.274059 34.4723541,145.287767 C34.8623213,145.873475 35.2410754,146.433637 35.6073705,146.967628 C35.6410098,147.016229 35.6746492,147.064831 35.7082885,147.113432 C35.8559279,147.327153 36.0004525,147.536513 36.1437311,147.741511 C36.1786164,147.790735 36.2128787,147.841206 36.247141,147.889807 C36.588518,148.376444 36.9161902,148.83691 37.2289115,149.267468 C37.2637967,149.315446 37.2974361,149.362178 37.3323213,149.409534 C37.450682,149.571538 37.5665508,149.729804 37.6799279,149.883708 C37.7222885,149.94041 37.7640262,149.997111 37.805141,150.05319 C37.918518,150.205225 38.0287803,150.352898 38.1371738,150.495586 C38.1664525,150.534841 38.196977,150.575966 38.2262557,150.613974 C38.3601902,150.79031 38.489141,150.959168 38.6137311,151.119927 C38.6423869,151.156066 38.6685508,151.18909 38.6959607,151.224606 C38.7918951,151.347979 38.8859607,151.46699 38.9762885,151.580393 C39.0142885,151.628371 39.0516656,151.67448 39.0890426,151.720589 C39.1675344,151.819038 39.2435344,151.912502 39.3176656,152.002228 C39.3513049,152.043352 39.3861902,152.085722 39.4185836,152.1256 C39.5176328,152.243988 39.6123213,152.356768 39.7007803,152.460202 C39.7038951,152.462694 39.7063869,152.466433 39.7088787,152.468925 C42.6865836,155.915881 45.7789115,163.667794 47.9256,170.035192 C48.0383541,170.370416 48.1486164,170.701279 48.2563869,171.028404 C49.5477639,174.947665 50.4392066,178.195854 50.6640918,179.338609 C50.776223,179.909363 50.8179607,181.289516 50.8104852,183.155059 C50.8048787,184.709679 50.7656328,186.601392 50.7052066,188.643271 C50.4541574,197.217668 49.8411738,208.437099 49.8411738,208.437099 L94.7739934,230.074662 C94.7739934,230.074662 95.5115672,228.784234 96.742518,226.671322 C96.9188131,226.369745 97.1044525,226.050721 97.300059,225.716742 C97.5928459,225.215775 97.9068131,224.680537 98.2394689,224.114768 C103.229305,215.630096 112.416584,200.387348 117.6936,193.968856 C120.586584,175.78448 121.128551,170.949894 120.652616,166.887944 C120.593436,166.380122 120.518059,165.884139 120.4296,165.376318 C120.281338,164.52891 120.096944,163.647232 119.887633,162.617257 C122.576289,161.240843 124.337993,159.058768 125.482354,156.952087 C125.745862,156.466073 125.9776,155.983799 126.179436,155.517101 C127.257141,153.025348 127.507567,150.956676 127.507567,150.956676 L132.532289,144.70642 Z" id="Fill-15" fill="#661F88"></path>
                                        <path d="M67.7943672,35.1447457 C67.7943672,34.4880046 65.0826623,32.2124653 63.6374164,32.9470931 C62.1927934,33.681721 61.9890885,39.4858417 64.4024,40.0167178 C66.8157115,40.548217 67.7943672,39.6702776 67.7943672,39.6702776 L67.7943672,35.1447457 Z" id="Fill-23" fill="#FBC29C"></path>
                                        <path d="M98.1439705,36.4951151 C99.3076426,35.5928749 100.736069,33.0649825 102.492167,34.8732013 C104.247643,36.6820433 104.212134,42.3939461 99.5468557,41.7727214 C94.8822,41.1514967 98.1439705,36.4951151 98.1439705,36.4951151" id="Fill-25" fill="#FBC29C"></path>
                                        <path d="M101.003875,78.571844 C99.9735148,76.8539738 97.6206295,76.0713677 95.7168918,76.0271281 C92.7796787,75.9592108 90.4510885,75.4376811 87.5132525,75.4545047 C82.8137115,75.4812977 78.1135475,75.5080907 73.4133836,75.5348838 C69.7566623,75.556069 66.7241377,75.6943959 63.9420393,78.4771337 C62.1541705,81.0735665 63.6610885,83.9566225 65.7990557,85.0644837 C72.9860393,88.7874704 94.2778754,91.1327963 100.95217,95.8078707 C101.734597,96.3555704 103.001056,96.1187947 103.090761,95.2782408 C103.660761,89.9202554 103.992793,88.4834006 103.8084,85.7592335 C103.588498,82.5210139 102.681482,81.3695362 101.003875,78.571844" id="Fill-27" fill="#3C3F48"></path>
                                        <polygon id="Fill-29" fill="#FBDBC5" points="98.3189574 82.5084274 98.6466295 89.9207538 67.7943672 82.5264971 67.7943672 65.6979739 98.3189574 65.6979739"></polygon>
                                        <path d="M98.3189574,65.6976624 L67.7943672,65.6976624 L67.7943672,71.918633 C71.5320721,74.6982555 77.5435475,77.8249412 85.7216459,80.2051604 C86.0866951,80.3117095 86.7831541,80.2992476 87.1407279,80.1677747 C91.7842033,78.4636126 95.8271541,76.3376158 98.3189574,74.2122421 L98.3189574,65.6976624 Z" id="Fill-31" fill="#BA8F6D"></path>
                                        <path d="M95.0687115,15.0194944 C95.0687115,15.0194944 97.9778918,32.6486934 98.1442197,34.23696 C98.3105475,35.8246036 98.6164164,36.681981 100.024285,34.9672262 C99.9993672,34.4045723 99.5059902,30.7127403 99.3134984,26.8719888 C99.1203836,23.0318603 102.719793,15.4974075 100.75999,11.0890173 C97.7592361,10.5375791 95.0687115,15.0194944 95.0687115,15.0194944" id="Fill-33" fill="#FEC000"></path>
                                        <path d="M70.0413508,18.878191 C70.0413508,18.878191 63.4604984,61.466044 63.249318,64.6020762 C63.0406295,67.6951149 71.1483344,73.5951921 85.5565639,77.4895297 C85.9496459,77.5960788 86.3757443,77.5836169 86.7607279,77.4521441 C98.2572852,73.5335058 104.05322,67.3866833 103.640203,64.1459713 C103.219711,60.8491809 97.1060721,22.2840229 97.1883016,19.9362046 C97.2705311,17.5890095 96.6724984,11.5798908 96.6724984,11.5798908 L74.5465311,8.6600722 L70.0413508,18.878191 Z" id="Fill-35" fill="#FBDBC5"></path>
                                        <path d="M101.096384,47.3954595 C101.033466,46.9854636 100.970548,46.5723523 100.907007,46.1579948 C100.090318,46.1536331 99.2200557,45.914365 98.5092689,45.7349139 C96.5426131,45.2370618 94.5323508,44.7753492 92.6504164,44.0214054 C90.6575967,43.2225989 88.7364164,42.3371823 86.9018262,41.2075128 C86.017859,40.6635517 85.1519574,40.1183445 84.2418262,39.6192462 C83.8580885,39.4080173 83.2581869,38.8216858 82.8040557,38.7618688 C81.6198262,38.6067184 80.4897934,40.4548152 79.6955311,41.0124844 C78.1306787,42.1128684 76.2394,42.9559146 74.452777,43.6082941 C72.730318,44.2382421 70.9972689,44.8551052 69.2318262,45.3741425 C68.1815311,45.6831971 67.106941,45.9349271 66.0697279,46.2857291 C65.9968426,46.3106528 65.9220885,46.3436768 65.8479574,46.3742084 C65.7813016,46.8209668 65.714023,47.266479 65.6479902,47.7082527 C67.3081541,47.4041828 69.0306131,46.7399646 70.5923508,46.2414894 C72.2780557,45.7037592 73.9438262,45.1548134 75.5796951,44.4905952 C77.3114984,43.7864989 79.1759902,42.9284985 80.6548754,41.7695436 C81.2398262,41.3115695 81.8521869,40.2691332 82.6308754,40.0398346 C82.6800885,40.0709893 82.7673016,40.1276909 82.9037279,40.241094 C83.3042852,40.5732031 83.8618262,40.7657392 84.3134656,41.0218308 C86.2875967,42.1427769 88.1402525,43.3783724 90.198482,44.3591224 C91.882318,45.1616674 93.6359246,45.6551579 95.4132033,46.1885264 C97.1450066,46.7081868 99.2144492,47.4615075 101.096384,47.3954595" id="Fill-37" fill="#DEB08A"></path>
                                        <path d="M93.542482,20.9161446 C94.8942852,20.6388678 96.0947115,20.2731116 97.1917279,19.7297736 C97.202318,19.1590195 97.1817607,18.4256378 97.1412689,17.6206003 C95.5434,18.3253197 93.8745148,18.8555727 92.148318,19.2001437 C89.3356951,19.7615514 86.9111705,19.3316165 84.1664492,18.6636597 C81.7232361,18.069228 79.6120557,16.6834669 77.9861541,14.781784 C77.2087115,13.8726898 76.2817607,13.1075304 75.5796951,12.1361268 C75.124941,11.5074249 74.9069082,10.9372939 74.2852033,10.62637 C74.2596623,10.4232413 74.0746459,10.4070409 73.946318,10.4948972 C73.9369738,10.4924048 73.9301213,10.4886662 73.9201541,10.4855507 C73.8572361,10.4687272 73.8024164,10.474335 73.7457279,10.4762043 L73.3028098,11.481255 C73.3669738,11.5653727 73.4498262,11.6376516 73.5756623,11.6712987 C73.616777,11.6825143 73.654777,11.7036995 73.6934,11.7217693 C73.4666459,13.4938487 73.2461213,15.2634357 72.9832361,17.0330227 C72.8131705,18.1745309 72.5845475,19.3241394 72.286777,20.4388546 C72.0737279,21.2364149 71.640777,22.0495526 71.5953016,22.88076 C71.5616623,23.4882767 72.3085803,23.721937 72.6374984,23.2278234 C73.6136623,21.7629294 74.2042197,20.0537825 74.5075967,18.3290582 C74.718777,17.1296022 74.9274656,15.8323205 75.0065803,14.5593394 C75.2345803,14.8092001 75.4713016,15.0565685 75.7005475,15.3182679 C76.5334328,16.2684863 77.3114984,17.1227482 78.3692689,17.8411756 C80.6436623,19.3858257 83.2164492,20.9304758 86.017859,21.1105499 C88.4685475,21.2681927 91.1235639,21.4127505 93.542482,20.9161446" id="Fill-39" fill="#DEB08A"></path>
                                        <path d="M73.6473016,11.1107633 C73.6230066,11.0752469 73.5713016,11.0970552 73.580023,11.1388025 C73.8074,12.2510253 74.758023,18.1025012 71.4457934,25.5129584 C68.6605803,31.4647524 68.0924492,32.1271014 67.9772033,32.1663563 C67.9566459,32.1732103 67.9479246,32.197511 67.9473016,32.2193193 L67.9080557,35.1154603 C67.9080557,35.1329069 67.8987115,35.1472381 67.8818918,35.1522228 C67.6414328,35.2220094 65.8168098,35.7267155 66.3631377,34.8730767 C66.9474656,33.960244 66.9051049,28.6259361 66.4054984,26.9672598 C65.9065148,25.3104528 62.4672033,11.1736958 71.0726459,7.42266979 C71.0925803,7.41394647 71.1019246,7.38902271 71.0925803,7.36846061 C70.046023,5.12594524 68.5496951,4.74025005 68.0650393,4.67357899 C68.0251705,4.66797114 68.0176951,4.61313887 68.0556951,4.5988077 C68.6306787,4.38570955 70.7599246,3.81495543 72.2213672,6.35219427 C72.2437934,6.3908261 72.2992361,6.370264 72.2905148,6.32602432 C71.2078262,1.05028728 72.7645803,0.210979634 73.136482,0.0876070188 C73.1682525,0.0770144205 73.1962852,0.108792215 73.1838262,0.14057001 C72.983859,0.658361139 71.8706459,3.78130835 73.8622197,4.44054182 C73.8753016,4.44490348 73.8908754,4.44241111 73.9014656,4.43368779 C78.3723836,0.863982164 85.3033344,0.991093344 92.414318,4.90474687 C97.8732361,7.74169393 104.627892,4.83059868 105.348023,4.5053436 C105.376679,4.49225863 105.404711,4.51780548 105.399728,4.54896018 C105.222187,5.62940521 102.93658,18.4420875 94.0252689,19.9667985 C84.8305148,21.5401109 76.7651705,15.6842734 73.6473016,11.1107633" id="Fill-41" fill="#FDF103"></path>
                                        <path d="M82.4836098,37.6584316 C82.4836098,37.6584316 81.6843639,44.6021913 81.5622656,45.9293816 C81.4407902,47.2565718 82.354659,53.3903093 83.0679377,53.5354903 C83.7805934,53.6806712 90.5053475,53.1734726 90.5053475,53.1734726 C90.5053475,53.1734726 84.9324295,55.157404 83.4529213,55.3349858 C81.9734131,55.5131907 80.759282,54.7692164 80.7885607,52.6961826 C80.8184623,50.6231488 81.0259049,46.5294211 81.0259049,46.5294211 L81.8550525,37.6584316 L82.4836098,37.6584316 Z" id="Fill-43" fill="#BA8F6D"></path>
                                        <path d="M70.7374361,57.33923 C70.7374361,57.33923 71.3117967,57.5043499 71.1118295,58.9823289 C70.9112393,60.1275757 70.2104197,60.7039377 70.2104197,60.7039377 C70.2104197,60.7039377 70.0073377,60.1605997 70.2104197,59.9618327 C70.4135016,59.7624426 71.0277311,58.1361672 70.7374361,57.33923" id="Fill-45" fill="#DEB08A"></path>
                                        <path d="M99.5471672,51.1980777 C99.4680525,51.4248839 98.9011672,52.7583051 99.0276262,53.6879614 C99.1547082,54.6169945 99.5471672,54.5179226 99.5471672,54.5179226 C99.5471672,54.5179226 99.5085443,53.2262487 99.5471672,52.8592463 C99.5857902,52.492867 99.6829705,50.809267 99.5471672,51.1980777" id="Fill-47" fill="#DEB08A"></path>
                                        <path d="M75.1425082,60.3376207 C79.4477213,60.4472853 87.2620164,59.0216461 94.9392623,53.5215953 C96.8978197,51.6629058 94.7062787,57.2271354 94.3082131,58.5549487 C93.9101475,59.8827621 88.5702131,67.2041168 80.0382787,69.3893075 L78.6777541,69.5886976 C78.6777541,69.5886976 80.1709672,68.9244794 80.1043115,68.1275421 C80.0382787,67.331228 78.0984098,60.704 78.0984098,60.704 C78.0984098,60.704 73.8430328,60.3045967 75.1425082,60.3376207" id="Fill-49" fill="#333333"></path>
                                        <path d="M88.1562,47.9450907 C88.1562,47.9450907 95.0678393,46.4914124 97.6842328,48.7756751 C99.0036426,49.8660896 97.0637738,48.7756751 97.0637738,48.7756751 L89.4145607,48.5544767 C89.4145607,48.5544767 87.5463311,48.0566246 88.1562,47.9450907" id="Fill-51" fill="#DEB08A"></path>
                                        <path d="M78.6830492,60.5871699 C78.6830492,60.5871699 80.4678033,65.8772381 80.788,68.8020414 C82.1796721,68.5272569 85.6021639,66.7863322 88.8552131,64.8248323 C92.1313115,62.1710749 94.0730492,59.3366202 94.3079016,58.5565065 C93.8413115,58.8643149 93.2407869,59.3285199 92.4216066,59.8992741 C92.9847541,59.3652825 94.0686885,58.1882579 94.7165574,57.3389808 C94.861082,56.9177692 95.0211803,56.446087 95.1719344,55.9737818 C94.9838033,55.2746703 94.4854426,54.2646349 94.4854426,54.2646349 C89.3043607,58.8668073 78.6830492,60.5871699 78.6830492,60.5871699" id="Fill-53" fill="#F0F1F1"></path>
                                        <path d="M100.759928,36.4951151 C100.759928,36.4951151 99.7177311,38.3407195 99.846682,39.1868812 C99.9756328,40.0324198 101.335534,39.1868812 101.335534,39.1868812 L100.585502,38.0528501 L100.759928,36.4951151 Z" id="Fill-55" fill="#CA916B"></path>
                                        <path d="M63.9420393,34.873326 C63.9420393,34.873326 65.2570885,34.900119 66.2045967,36.4952397 C66.7851869,37.7227349 65.579777,38.8013106 65.579777,38.8013106 C65.579777,38.8013106 65.1567934,37.4753666 65.2714164,36.4952397 C65.0596131,35.2727292 63.9420393,34.873326 63.9420393,34.873326" id="Fill-57" fill="#CA916B"></path>
                                        <path d="M88.0339148,21.5011676 C88.0339148,21.5011676 88.6705705,16.4154742 91.133718,14.4869982 C93.5968656,12.5578991 96.7801443,13.4152765 98.0042426,16.2316615 C98.493882,17.6398539 94.2310295,15.5256959 92.4145049,17.7158714 C90.5973574,19.9054238 87.8140131,22.7249242 88.0339148,21.5011676" id="Fill-59" fill="#FEC000"></path>
                                        <path d="M69.0502361,18.8958869 C69.0502361,18.8958869 76.1138754,22.2319322 79.3152197,22.5995577 C80.4969574,22.9671832 80.4060066,22.7291613 80.7884984,21.5010429 C81.1703672,20.2729246 80.0390885,20.5502015 78.094859,20.6262189 C76.1512525,20.7016133 72.1107934,17.2739731 69.0502361,18.8958869" id="Fill-61" fill="#FEC000"></path>
                                        <path d="M95.1721213,55.9738441 C94.9833672,55.2747326 94.4856295,54.2646972 94.4856295,54.2646972 C89.3039246,58.8668696 78.6832361,60.5872322 78.6832361,60.5872322 C78.6832361,60.5872322 78.8931705,61.2121955 79.1803508,62.1424748 C82.9186787,61.8141043 89.8091377,60.7548445 93.2060885,57.3390431 C93.4372033,57.9328517 93.2447115,58.6568869 92.6734656,59.6519681 C93.2671377,59.0556671 94.1548426,58.0749171 94.7161213,57.3390431 C94.8606459,56.9178315 95.0213672,56.4461493 95.1721213,55.9738441" id="Fill-63" fill="#CBCBCB"></path>
                                        <path d="M94.5431902,64.0421016 C94.533223,63.972315 94.5188951,63.9031516 94.5002066,63.8346113 C94.355059,64.0283935 94.203059,64.2097139 94.1033869,64.4309122 C94.0055836,64.6465028 93.861682,64.8328079 93.7115508,65.0184899 C93.4131574,65.3898539 93.0524689,65.7188476 92.6139115,65.9151222 C92.1348623,66.1294665 91.5997475,66.17246 91.0926656,66.3082945 C89.5994525,66.7070747 88.453223,67.8647834 87.1718131,68.7290148 C86.7619115,69.0050454 86.3333213,69.2536599 85.8904033,69.4723659 C85.7489934,69.5421525 85.3415836,69.7228497 85.3135508,69.8991853 C85.2649607,70.202009 85.7116164,70.1527846 85.9109607,70.0967061 C86.7774852,69.8543226 87.5325016,69.3901175 88.2339443,68.8374331 C88.9441082,68.2778947 89.6287311,67.6653933 90.4447967,67.2759595 C91.0403377,66.9912056 91.6875836,66.834809 92.3124033,66.6217108 C92.937223,66.4086126 93.5595508,66.125728 94.013059,65.6459456 C94.4161082,65.2191262 94.6272885,64.6222021 94.5431902,64.0421016" id="Fill-65" fill="#DEB08A"></path>
                                        <g id="Group-159" transform="translate(90.327869, 104.056701)">
                                            <polygon id="Fill-85" fill="#71533E" points="31.0795148 25.2675217 30.4204328 25.1516262 30.1189246 12.3619984 30.7780066 12.4685475"></polygon>
                                            <polygon id="Fill-87" fill="#614734" points="29.6310295 30.7610924 28.9731934 30.6408352 25.7463082 24.7189497 26.4028984 24.8354683"></polygon>
                                            <polygon id="Fill-89" fill="#846349" points="20.3415246 38.1275591 19.6880492 38.0016941 28.9731311 30.6410845 29.6309672 30.7613416"></polygon>
                                            <polygon id="Fill-91" fill="#491362" points="20.3415246 38.1276214 19.6880492 38.0017564 25.7462459 24.7192612 26.4028361 24.8351567"></polygon>
                                            <polygon id="Fill-93" fill="#5C1B7B" points="26.4029607 24.8351567 29.6310918 30.7607808 20.3416492 38.1276214"></polygon>
                                            <polygon id="Fill-95" fill="#43125B" points="24.4586689 13.078868 23.8020787 12.9716959 30.1188 12.3616868 30.7785049 12.4682359"></polygon>
                                            <polygon id="Fill-97" fill="#37104B" points="31.0795148 25.2675217 30.4204328 25.1516262 23.8022033 12.9713843 24.4587934 13.0791796"></polygon>
                                            <polygon id="Fill-99" fill="#5C1B7B" points="30.778318 12.4684228 31.0798262 25.267397 24.458482 13.079055"></polygon>
                                            <polygon id="Fill-101" fill="#7B5D44" points="20.6960459 28.4754589 20.0419475 28.3564479 23.5466689 20.6836682 24.2026361 20.7964482"></polygon>
                                            <polygon id="Fill-103" fill="#614734" points="24.2025738 20.7965728 23.5466066 20.6837928 19.5752951 13.3960852 20.2300164 13.5038805"></polygon>
                                            <polygon id="Fill-107" fill="#553E2C" points="27.5161115 8.49146296 26.8582754 8.38740626 17.1807344 2.84373879 17.8342098 2.94343383"></polygon>
                                            <polygon id="Fill-109" fill="#765741" points="13.1470033 29.2537656 12.4966426 29.1341316 20.041823 28.3565103 20.6959213 28.4755212"></polygon>
                                            <polygon id="Fill-111" fill="#201035" points="13.1470033 29.2537656 12.4966426 29.1341316 12.4810689 29.0855303 13.1314295 29.2051643"></polygon>
                                            <polygon id="Fill-113" fill="#73553F" points="14.8016852 9.695966 14.1494557 9.59066311 26.8582754 8.38746857 27.5161115 8.49152527"></polygon>
                                            <polygon id="Fill-115" fill="#481361" points="14.8016852 9.695966 14.1494557 9.59066311 17.1807344 2.84380109 17.8342098 2.94349614"></polygon>
                                            <polygon id="Fill-117" fill="#5C1B7B" points="17.834459 2.94374538 27.5163607 8.49177451 14.8019344 9.69621524"></polygon>
                                            <polygon id="Fill-119" fill="#25123D" points="12.778777 14.2071044 12.1277934 14.0980629 19.5701869 13.3802586 20.2249082 13.4880539"></polygon>
                                            <polygon id="Fill-121" fill="#281441" points="9.22727213 22.1083727 8.57815738 21.9937234 12.1277311 14.0984991 12.7787148 14.2069175"></polygon>
                                            <polygon id="Fill-123" fill="#351C53" points="20.2245967 13.487867 24.2027607 20.7967598 20.6961705 28.4751474 13.1472525 29.2540149 13.1316787 29.2054135 9.22702295 22.1083727 12.7784656 14.2069175"></polygon>
                                            <polygon id="Fill-125" fill="#1D1030" points="13.1314295 29.2051643 12.4810689 29.0855303 8.57828197 21.9934741 9.22739672 22.1081234"></polygon>
                                            <polygon id="Fill-133" fill="#7C5C44" points="6.97736066 18.0133365 6.3294918 17.9011796 12.4157213 4.36134657 13.0673279 4.4629109"></polygon>
                                            <polygon id="Fill-135" fill="#765741" points="2.44782295 30.356829 1.8024459 30.2353256 8.23752787 29.5723536 8.88601967 29.6932338"></polygon>
                                            <polygon id="Fill-139" fill="#360F4B" points="6.97736066 18.0133365 6.3294918 17.9011796 2.93752459 11.7356643 3.58414754 11.8428364"></polygon>
                                            <polygon id="Fill-141" fill="#4D1466" points="3.58408525 11.8430234 2.9374623 11.7358512 12.415659 4.3615335 13.0672656 4.46309783"></polygon>
                                            <polygon id="Fill-143" fill="#604633" points="8.88589508 29.6930469 8.23740328 29.5727898 1.46468197 17.2947222 2.11068197 17.406256"></polygon>
                                            <polygon id="Fill-145" fill="#401157" points="2.44788525 30.356829 1.8025082 30.2353256 1.46486885 17.294286 2.1102459 17.4064429"></polygon>
                                            <path d="M31.0795148,25.2675217 L30.7780066,12.4685475 L24.4587934,13.0791796 L31.0795148,25.2675217 L31.0795148,25.2675217 Z M17.8343344,2.9439323 L14.8018098,9.69577907 L27.5162361,8.49133834 L17.8343344,2.9439323 L17.8343344,2.9439323 Z M2.11043279,17.4059444 L2.44807213,30.3569536 L8.8856459,29.6933585 L2.11043279,17.4059444 L2.11043279,17.4059444 Z M15.5555803,39.7482266 L18.6416787,32.977687 L5.78459672,34.3266856 L15.5555803,39.7482266 L15.5555803,39.7482266 Z M20.3417115,38.1275591 L29.6311541,30.7613416 L26.403023,24.8350944 L20.3417115,38.1275591 L20.3417115,38.1275591 Z M13.0675148,4.46303552 L3.58433443,11.8429611 L6.97754754,18.0134611 L13.0675148,4.46303552 L13.0675148,4.46303552 Z M24.2027607,20.7968221 L20.2295803,13.5041297 L12.7784656,14.2069798 L9.22702295,22.108435 L13.1316787,29.2048528 L13.1472525,29.2534541 L20.6961705,28.4752097 L24.2027607,20.7968221 L24.2027607,20.7968221 Z M16.2134164,0.126924251 L32.0295148,9.20727337 L32.519777,30.1382476 L16.877482,42.5527728 L1.26633443,33.6967375 L0.702563934,12.1626083 L0.807842623,12.1127608 L16.2134164,0.126924251 Z" id="Fill-147" fill="#9C7557"></path>
                                            <polygon id="Fill-149" fill="#5C1B7B" points="13.0675148 4.46309783 6.97754754 18.0135234 3.58433443 11.8430234"></polygon>
                                            <polygon id="Fill-151" fill="#5C1B7B" points="2.11043279 17.4061937 8.8856459 29.6929846 2.44807213 30.3565797"></polygon>
                                            <polygon id="Fill-153" fill="#826147" points="0.808091803 12.1129477 0.162714754 12.0051524 15.5595672 0.0292854188 16.2130426 0.12711118"></polygon>
                                            <polygon id="Fill-155" fill="#816047" points="0.70262623 12.1623591 0.0572491803 12.0545638 0.162527869 12.0053394 0.807904918 12.1131346"></polygon>
                                            <polygon id="Fill-157" fill="#70523D" points="1.26602295 33.6969245 0.621268852 33.5729287 0.0568754098 12.0543769 0.70287541 12.1621721"></polygon>
                                        </g>
                                        <path d="M38.3516557,83.9873411 C29.0049016,82.2763249 17.6983443,84.1138292 14.5511967,93.4963789 C9.5582459,101.219629 13.2579508,101.166666 13.5613279,104.801797 C13.864082,108.436304 13.6909016,115.561384 19.930377,119.502454 C20.690377,127.15031 20.0387705,133.57254 32.4124426,141.946923 C47.823623,142.80617 50.9041148,143.765112 50.9041148,143.765112 C50.9041148,143.765112 67.1089344,137.460647 64.6800492,128.300541 C62.250541,119.139813 61.0793934,112.502616 53.6961803,108.418857 C54.2026393,104.335099 53.4874918,98.381436 49.7958852,93.7773943 C45.6744426,88.4187857 44.1382459,85.0378776 38.3516557,83.9873411" id="Fill-160" fill="#977558"></path>
                                        <path d="M32.4122557,141.94711 C32.8570426,141.972034 33.2893705,141.996958 33.714223,142.021882 C34.3683213,139.338216 33.3927803,136.278201 31.4036984,134.357202 C30.0195016,133.021289 28.1045508,132.434334 26.582682,131.267902 C24.9648787,130.027945 22.4923869,127.354249 24.378059,125.36284 C24.5624525,125.167812 24.5724197,124.916705 24.4833377,124.678683 C23.9457311,123.235597 23.0854361,121.953893 21.984682,120.878432 C21.438977,120.345064 20.7350426,119.662153 19.9438951,119.64346 C20.6820918,127.22963 20.1152066,133.624444 32.4122557,141.94711" id="Fill-162" fill="#977558"></path>
                                        <path d="M53.8354721,108.49961 C53.7881279,108.472817 53.7438984,108.445401 53.6959311,108.418608 C53.7632098,107.879009 53.8068164,107.305139 53.8267508,106.707592 C52.7527836,106.888289 51.6078,106.716315 50.5805541,106.454616 C48.0719311,105.814075 45.4686197,104.720545 42.8447508,104.678798 C40.0670131,104.634558 37.4904885,105.55923 35.0292098,106.760555 C32.4520623,108.017336 29.6512754,110.008121 26.6984885,110.155171 C26.4113082,110.169502 26.1191443,110.152679 25.8282262,110.119032 C25.0607508,109.728352 24.2833082,109.311502 23.4878,109.250439 C23.3576033,109.241092 23.3171115,109.434251 23.4161607,109.499676 C23.968718,109.86294 24.5287508,110.099716 25.0925213,110.246766 C25.831341,110.638692 26.6579967,110.981394 27.3974393,111.206954 C29.5584557,111.866187 31.5786852,112.200166 33.6948492,111.287333 C36.6289475,110.021829 39.5306525,108.643545 42.6578656,107.899571 C45.8081279,107.149989 49.9806525,107.096403 53.0225213,108.179963 C53.3009803,108.279035 53.5669803,108.390569 53.8354721,108.49961" id="Fill-164" fill="#063A5F"></path>
                                        <path d="M53.6958689,108.418795 C54.1780328,104.53505 53.5488525,98.9620973 50.3107541,94.4646047 C46.2540984,95.5924048 34.4846885,93.8757808 29.007082,92.7729044 C22.8940656,91.5416706 18.9725902,96.5183225 21.0115082,98.9365504 C23.0510492,101.354155 29.007082,111.265089 29.007082,111.265089 C29.007082,111.265089 28.4482951,117.312839 30.2536066,119.845093 C31.7841967,121.993521 34.9649836,137.499216 35.8950492,142.156221 C48.2917705,142.954404 50.9038033,143.765049 50.9038033,143.765049 C50.9038033,143.765049 67.1092459,137.460584 64.6797377,128.300479 C62.2508525,119.140374 61.0797049,112.502553 53.6958689,108.418795" id="Fill-166" fill="#661F88"></path>
                                        <path d="M76.346859,184.843769 C65.7498426,188.696359 40.1964,188.411605 32.0151869,167.03948 C23.8339738,145.666732 25.059941,126.817515 43.6805639,118.172709 C62.3011869,109.527279 82.2362361,127.572082 89.8667607,140.981065 C97.4979082,154.390049 91.4154164,179.365526 76.346859,184.843769" id="Fill-168" fill="#BCCBD4"></path>
                                    </g>
                                    <g id="Group-391" transform="translate(26.786885, 21.722927)">
                                        <path d="M46.8199246,108.009547 L46.5184164,101.723775 C46.5184164,101.723775 52.7005803,104.674125 53.3073344,106.232483 C53.9140885,107.790841 54.718318,111.940024 54.718318,111.940024 L46.8199246,108.009547 Z" id="Fill-221" fill="#5A7F92"></path>
                                        <path d="M6.98963279,120.633556 C6.98963279,120.633556 5.41668197,113.675466 7.4518623,103.646144 C4.56822295,108.218408 1.6060918,117.161677 1.6060918,117.161677 C1.6060918,117.161677 2.84700984,118.220313 4.15769836,119.030959 C5.46838689,119.840981 6.98963279,120.633556 6.98963279,120.633556" id="Fill-223" fill="#8FA7B5"></path>
                                        <path d="M46.8199246,108.009547 C46.8199246,108.009547 41.736023,99.4899825 33.6713016,95.576329 C41.4500885,97.1938811 46.5184164,101.723775 46.5184164,101.723775 C46.5184164,101.723775 46.7613672,102.579906 46.8199246,104.694687 C46.878482,106.808845 46.8199246,108.009547 46.8199246,108.009547" id="Fill-225" fill="#8FA7B5"></path>
                                        <path d="M27.0484,87.3142893 C27.0010557,87.2874962 26.9568262,87.2600801 26.908859,87.233287 C26.9761377,86.6943107 27.0184984,86.119818 27.0390557,85.522894 C25.9644656,85.7029681 24.8207279,85.5309942 23.7941049,85.2692947 C21.284859,84.628754 18.6821705,83.5358471 16.0576787,83.4934767 C13.279941,83.4492371 10.7034164,84.3745317 8.2421377,85.5752339 C6.10479344,86.6176701 3.81358033,88.161074 1.40961311,88.7430438 C1.90984262,89.5636587 2.22007213,90.0802036 2.22007213,90.0802036 C2.22007213,90.0802036 2.20823607,90.2110533 2.1939082,90.4372365 C3.77807213,90.7693456 5.3161377,90.7892846 6.90777705,90.1020119 C9.84187541,88.8365079 12.7435803,87.458224 15.8707934,86.7142497 C19.0216787,85.9646676 23.1942033,85.9110815 26.2354492,86.994642 C26.5139082,87.093714 26.7799082,87.2052478 27.0484,87.3142893" id="Fill-227" fill="#3F225E"></path>
                                        <path d="M9.57462951,150.481816 C9.57462951,150.481816 9.44069508,150.164661 9.1884,149.57023 C8.94607213,148.972059 8.59784262,148.087889 8.26207213,146.927065 C7.92069508,145.76811 7.57620328,144.336863 7.33699016,142.665102 C7.21738361,141.830156 7.12830164,140.93477 7.07721967,139.98829 C7.0616459,139.751514 7.05417049,139.511623 7.04918689,139.268616 L7.04295738,138.889775 L7.0566623,138.521526 C7.07597377,138.028036 7.0959082,137.522707 7.11521967,137.006785 C7.12518689,136.748824 7.1351541,136.488371 7.14574426,136.225425 L7.16131803,135.828514 L7.21738361,135.425995 C7.29276066,134.887019 7.37000656,134.33745 7.44787541,133.777912 C7.48774426,133.498142 7.52699016,133.215881 7.56748197,132.931127 C7.60735082,132.646373 7.69580984,132.372212 7.75872787,132.088081 C7.8964,131.523558 8.03656393,130.950311 8.17859672,130.369587 C8.29446557,129.78014 8.5411541,129.221848 8.73302295,128.638632 C8.94420328,128.06227 9.12984262,127.465969 9.36905574,126.885246 C9.63754754,126.316361 9.9091541,125.740622 10.1832525,125.159898 C10.3246623,124.872029 10.4542361,124.575436 10.6062361,124.290059 C10.7738098,124.012159 10.9413836,123.733013 11.1095803,123.452621 C11.4497115,122.894328 11.7811213,122.323574 12.1368262,121.76279 C12.5324,121.228798 12.9310885,120.691068 13.3316459,120.150222 C13.5372197,119.884161 13.722859,119.599407 13.9471213,119.345808 L14.6292525,118.589372 C15.0933508,118.09152 15.5244328,117.555659 16.0234164,117.083977 C17.0394492,116.158682 18.029941,115.184163 19.1767934,114.389095 C20.2557443,113.503679 21.4817115,112.823883 22.6696787,112.087386 C23.2807934,111.750292 23.9261705,111.474884 24.5516131,111.166453 L25.4966295,110.715956 L26.4771541,110.356431 C27.1331213,110.12277 27.7822361,109.875402 28.4382033,109.656696 C29.1091213,109.486591 29.7787934,109.31711 30.4447279,109.148251 C30.7798754,109.070988 31.1075475,108.965062 31.4451869,108.911476 L32.4581049,108.760687 C33.1327607,108.665977 33.8011869,108.546966 34.4696131,108.475933 C35.141777,108.444155 35.8102033,108.413 36.4736459,108.381846 C36.8100393,108.366891 37.1445639,108.351314 37.4778426,108.33636 C37.803023,108.348199 38.1263344,108.359414 38.449023,108.37063 C41.0510885,108.452255 43.5784,108.908983 45.8615148,109.591894 C48.1552197,110.276052 50.2321377,111.196361 52.0480393,112.213251 C53.875777,113.216432 55.408859,114.369156 56.6908918,115.462686 C57.9884984,116.542508 58.9895803,117.624822 59.8006623,118.517716 C60.5874492,119.434287 61.1724,120.181377 61.5355803,120.715992 C61.9099738,121.24126 62.109941,121.521652 62.109941,121.521652 C62.109941,121.521652 61.8956459,121.252476 61.4944656,120.747146 C61.1082361,120.230602 60.4746951,119.526505 59.6642361,118.642335 C58.8232525,117.786204 57.789777,116.753737 56.4660066,115.736224 C55.155941,114.706873 53.6029246,113.635774 51.7907607,112.683687 C49.9835803,111.727237 47.9265967,110.874222 45.6708918,110.259851 C43.4089574,109.641742 40.9788262,109.277232 38.423482,109.198099 C38.1007934,109.189999 37.776859,109.180652 37.4523016,109.171929 C37.1364656,109.189999 36.8187607,109.207445 36.5010557,109.224892 C35.8556787,109.260408 35.2065639,109.295302 34.5524656,109.330818 C33.9033508,109.405589 33.254859,109.527716 32.6007607,109.623672 L31.6183672,109.777576 C31.2906951,109.831785 30.9729902,109.937711 30.6484328,110.015598 C30.0030557,110.184457 29.3551869,110.353315 28.7048262,110.52342 C28.0700393,110.74088 27.4427279,110.987002 26.8085639,111.217547 L25.8604328,111.573333 L24.9478098,112.017599 C24.3441705,112.321669 23.7212197,112.592092 23.1312852,112.923578 C21.9788262,113.633905 20.7815148,114.278184 19.7299738,115.130577 C18.6105311,115.891998 17.6443344,116.831624 16.648859,117.721402 C16.1598426,118.175014 15.7393508,118.693429 15.2833508,119.172588 L14.6143016,119.902231 C14.393777,120.147107 14.2124984,120.422514 14.0112852,120.679852 C13.6169574,121.202005 13.2251213,121.721666 12.835777,122.237587 C12.4869246,122.780302 12.1604984,123.332987 11.8253508,123.873832 C11.659023,124.144878 11.493318,124.415301 11.3282361,124.683854 C11.1781049,124.961131 11.049777,125.248378 10.9102361,125.528147 C10.6342689,126.088931 10.3607934,126.645354 10.0904328,127.194923 C9.84436721,127.755085 9.65062951,128.331447 9.43072787,128.888493 C9.2301377,129.453016 8.97472787,129.992615 8.8488918,130.565239 C8.69626885,131.129762 8.5461377,131.686808 8.39787541,132.235131 C8.32997377,132.510538 8.23653115,132.779715 8.19105574,133.0545 C8.14620328,133.329284 8.10072787,133.601576 8.05649836,133.871999 C7.96679344,134.412844 7.87895738,134.944967 7.79236721,135.46712 L7.72758033,135.857176 L7.70203934,136.253464 C7.68521967,136.51641 7.66902295,136.776863 7.65344918,137.034201 C7.62105574,137.5495 7.58928525,138.053583 7.55876066,138.547073 L7.53571148,138.914699 L7.53384262,139.263631 C7.53571148,139.502899 7.53695738,139.739052 7.53758033,139.972712 C7.55128525,140.906107 7.60423607,141.79277 7.69082623,142.622108 C7.8621377,144.281408 8.14807213,145.713901 8.44148197,146.87784 C8.7361377,148.04178 9.02331803,148.94402 9.23699016,149.551537 C9.45751475,150.15843 9.57462951,150.481816 9.57462951,150.481816" id="Fill-229" fill="#8FA7B5"></path>
                                        <path d="M27.0485246,118.354652 C26.9158361,118.408238 24.8700656,113.668985 22.4798033,107.768285 C20.089541,101.868208 18.2599344,97.0410984 18.392623,96.9875123 C18.5253115,96.9333032 20.571082,101.673179 22.9613443,107.573257 C25.3516066,113.473957 27.1812131,118.301066 27.0485246,118.354652" id="Fill-233" fill="#8FA7B5"></path>
                                        <path d="M76.4678984,4.68329925 C76.1470787,4.86275033 75.9352754,5.09890296 75.6948164,5.37929527 C75.4456361,5.66903399 75.129177,5.91204065 74.965341,6.26221949 C74.8905869,6.42360084 74.9497672,6.6678537 75.1640623,6.67221536 C75.5203902,6.67906939 75.9072426,6.31455939 76.1607836,6.10021505 C76.3308492,5.95628033 76.4865869,5.77807544 76.662882,5.64411023 C76.7961934,5.5425459 76.9438328,5.49145219 77.017341,5.3238399 C77.1718328,4.97179178 76.9008492,4.44091568 76.4678984,4.68329925" id="Fill-247" fill="#A78A73"></path>
                                        <path d="M60.266318,6.86157363 C60.2382852,6.59675867 59.9448754,6.52198739 59.7511377,6.63601359 C59.5661213,6.54504187 59.3860885,6.44534682 59.2091705,6.3437825 C59.0789738,6.24471055 58.9400557,6.15810048 58.784318,6.10015274 C58.2977934,5.92007857 57.9551705,6.71140797 58.3812689,6.96002248 C58.4149082,6.9793384 58.4497934,6.99180028 58.4497934,7.0104931 L58.4497934,7.01173929 C58.4497934,7.01423166 58.5002525,7.01859332 58.5071049,7.0210857 C58.7014656,7.12576549 58.9151377,7.22172197 59.1163508,7.30833204 C59.1493672,7.32390939 59.1911049,7.33886364 59.2241213,7.35257171 C59.4004164,7.42796609 59.5816951,7.50211428 59.7561213,7.58685506 C60.0221213,7.71583553 60.2569738,7.41301183 60.2756623,7.18807489 C60.2850066,7.07404869 60.2781541,6.97559983 60.266318,6.86157363" id="Fill-249" fill="#A78A73"></path>
                                        <path d="M87.4148262,17.2993954 C87.4148262,17.2993954 85.6861377,18.9954573 85.6543672,19.7980024 C85.6225967,20.6011706 87.1407279,20.7980683 87.8695803,20.9438723 C88.5984328,21.0902994 89.7932525,21.3700686 89.7004328,20.0154622 C89.6076131,18.6602327 89.4419082,17.144245 89.4419082,17.144245 L87.4148262,17.2993954 Z" id="Fill-251" fill="#661F88"></path>
                                        <path d="M87.869518,13.8198514 C87.869518,13.8198514 89.9726,14.2529018 90.4703377,14.7171068 C90.9680754,15.1806888 90.6304361,16.0885368 90.5569279,16.5508725 C90.4834197,17.0138314 90.2728623,17.9372567 89.6611246,17.9603112 C89.0500098,17.9827426 86.969977,17.3266246 86.969977,17.3266246 L87.869518,13.8198514 Z" id="Fill-253" fill="#654E7E"></path>
                                        <path d="M86.9900361,14.9119483 C87.0442328,14.5729852 87.4560033,13.7305621 87.8696426,13.8196645 C88.283282,13.908767 88.0963967,15.1998178 87.8696426,16.1730906 C87.6428885,17.1463635 87.3401344,17.3202067 86.9701016,17.3270607 C86.5994459,17.3339148 86.6561344,16.9930823 86.9900361,14.9119483" id="Fill-255" fill="#661F88"></path>
                                        <path d="M87.6305541,14.7500062 C87.1515049,14.569932 86.6082918,14.4895529 86.1161607,14.3325332 C85.6751115,14.191714 85.1811115,14.026594 84.7114066,14.0340712 C84.6758984,14.0346943 84.6522262,14.0602411 84.6416361,14.0913958 C84.566259,14.1231736 84.5189148,14.2365767 84.6067508,14.3013785 C84.4765541,14.728821 84.3208164,15.1780718 84.236718,15.6142376 C84.2018328,15.795558 84.1713082,15.8429131 84.2996361,15.9631702 C84.3482262,16.008033 84.6204557,16.0267258 84.6833738,16.0385646 C84.7886525,16.0578805 84.8933082,16.0784426 84.9985869,16.0983816 C85.7249475,16.3445038 86.4986525,16.5738024 87.2237672,16.697175 C87.3097344,16.7121293 87.3745213,16.644212 87.4131443,16.5750486 C87.5146852,16.5625867 87.5794721,16.4822076 87.5962918,16.3688045 C87.6648164,15.9145689 87.7520295,15.3967778 87.7551443,14.9419192 C87.7557672,14.8578015 87.7102918,14.7799147 87.6305541,14.7500062" id="Fill-257" fill="#666666"></path>
                                        <path d="M83.1305443,11.5564001 L84.6268721,12.1632937 C84.8199869,12.2418035 84.9339869,12.4430629 84.9015934,12.6499301 L84.6729705,14.0973775 L83.8070689,16.9872876 L83.0757246,17.9736454 C82.8919541,18.2222599 82.5854623,18.3475018 82.2808393,18.2995236 L80.8461836,18.0745866 L83.1305443,11.5564001 Z" id="Fill-259" fill="#989898"></path>
                                        <path d="M83.6458492,16.8296448 C83.622177,16.7922591 83.5891607,16.7623506 83.5424393,16.7511349 C83.0378492,16.632124 82.507718,16.559222 81.9888,16.5878843 C81.9856852,16.5878843 81.9844393,16.5909998 81.9813246,16.5909998 C81.8947344,16.5891305 81.8062754,16.5816534 81.7215541,16.5853919 C81.621259,16.5891305 81.5589639,16.6632787 81.5371607,16.7467733 C81.520341,16.7467733 81.5035213,16.744904 81.4867016,16.7455271 C81.3907672,16.7473964 81.3845377,16.9013006 81.4810951,16.9056623 C81.5085049,16.9075315 81.5359148,16.9118932 81.5633246,16.9137625 C81.5845049,16.9467865 81.6112918,16.9773181 81.6561443,16.9928954 C81.6791934,17.0009956 81.7041115,17.0053573 81.7277836,17.0122113 C81.6605049,17.0975752 81.659259,17.2365252 81.7265377,17.3225122 C81.7115869,17.3661287 81.709718,17.414107 81.7159475,17.4595928 C81.583259,17.4913706 81.4505705,17.5181637 81.3185049,17.5530569 C81.1677508,17.592935 81.1347344,17.7480854 81.1833246,17.864604 C81.1752262,17.8708349 81.1665049,17.8739504 81.1584066,17.8801813 C81.0936197,17.9331443 81.0954885,18.0409396 81.1366033,18.1200725 L81.4923082,18.1755279 C81.5558492,18.1655584 81.6187672,18.156835 81.6823082,18.1481117 C81.684177,18.1680507 81.6891607,18.1886128 81.6960131,18.2079288 L82.280341,18.2995236 C82.5855869,18.3475018 82.8914557,18.2222599 83.0752262,17.9736454 L83.8065705,16.9872876 L83.8402098,16.8745076 C83.837718,16.8738845 83.8370951,16.870769 83.8339803,16.8701459 C83.7729311,16.8564378 83.7081443,16.8433529 83.6458492,16.8296448" id="Fill-261" fill="#666666"></path>
                                        <path d="M84.3107869,13.9669639 C84.3064262,13.9613561 84.3001967,13.9644716 84.2952131,13.9619792 C84.3145246,13.8629072 84.2827541,13.7538658 84.17,13.7258266 C83.700918,13.6080618 83.2256066,13.6248853 82.7565246,13.536406 C82.6057705,13.5077437 82.535377,13.7364192 82.6848852,13.7825281 C83.1359016,13.9227243 83.6062295,13.9594868 84.0528852,14.1277222 C84.107082,14.1482843 84.1538033,14.139561 84.1924262,14.1177527 C84.1095738,14.3040578 84.056623,14.8311953 84.0410492,14.9209209 C83.9824918,15.2548993 83.8965246,15.5757927 83.7974754,15.8985554 C83.7924918,15.9072787 83.7918689,15.9191175 83.7881311,15.9297101 C83.7856393,15.9378103 83.7837705,15.9465336 83.7806557,15.955257 L83.7812787,15.955257 C83.7794098,15.9646034 83.7750492,15.9720805 83.7744262,15.98205 C83.7738033,15.9907733 83.7731803,15.9994966 83.7725574,16.0082199 C83.7563607,16.2306645 83.9488525,16.406377 84.0155082,16.1945251 C84.1425902,15.7888909 84.3033115,15.2443067 84.3400656,14.822472 C84.3631148,14.5557878 84.4715082,14.2006242 84.3107869,13.9669639" id="Fill-263" fill="#666666"></path>
                                        <path d="M83.3672033,14.9582442 C83.2961869,14.6560436 83.2874656,14.3021262 83.1460557,14.0236032 C83.1124164,13.9588014 83.0146131,13.9843483 83.0152361,14.0572503 C83.0252033,14.8155557 83.2139574,15.5807151 83.384023,16.3159661 C83.4301213,16.51411 83.6786787,16.428123 83.6587443,16.2436872 C83.612023,15.8093906 83.4668754,15.3831943 83.3672033,14.9582442" id="Fill-265" fill="#666666"></path>
                                        <path d="M83.0031508,15.5499966 C82.9402328,15.360576 82.9053475,15.1649245 82.8474131,14.9748808 C82.7957082,14.8066454 82.7116098,14.6521181 82.6860689,14.4770287 C82.671741,14.3841877 82.5371836,14.4041267 82.5359377,14.4938522 C82.532823,14.6502488 82.5564951,14.810384 82.5857738,14.9698961 C82.5010525,14.9487109 82.3976426,15.0103972 82.3814459,15.0938918 C82.3583967,15.2172644 82.3154131,15.9917703 82.2263311,15.9880317 C82.0076754,15.9799315 81.9958393,16.3394567 82.2132492,16.3531648 C82.4898393,16.3706114 82.7552164,16.4914917 83.0324295,16.4715527 C83.1364623,16.4634524 83.2137082,16.3905504 83.2186918,16.2821321 C83.2305279,16.0385023 83.0785279,15.7774259 83.0031508,15.5499966" id="Fill-267" fill="#666666"></path>
                                        <path d="M80.7906164,7.94307791 C80.7414033,8.02096467 82.0956984,8.94376691 82.9267148,9.49894367 C83.3303869,9.76874338 83.5534033,10.2323253 83.5085508,10.7158463 C83.378977,12.105969 82.8924525,15.213962 81.0603541,19.296474 C79.9801574,20.3650802 78.5560918,20.2491848 78.5560918,20.2491848 L80.7906164,7.94307791 Z" id="Fill-269" fill="#977558"></path>
                                        <path d="M76.9921738,4.72841126 C76.9921738,4.72841126 80.3162393,2.77501152 81.2064361,8.16726714 C82.0966328,13.5595228 80.0645672,19.6683365 77.8817475,22.8504777 C76.4265344,24.7590146 74.847977,23.6511535 72.5262393,23.7502254 C70.2045016,23.8492974 76.9921738,4.72841126 76.9921738,4.72841126" id="Fill-271" fill="#1A1A1A"></path>
                                        <path d="M55.9583016,2.35535769 L55.9583016,17.9327081 C55.9583016,17.9327081 65.3119082,23.101273 67.7177443,23.750537 C70.1242033,24.3991778 73.230859,25.4129518 74.1627934,25.4372525 C75.0953508,25.4615531 75.105318,24.1561712 75.2118426,23.7268594 C77.0358426,21.6276556 82.8760066,13.4021915 77.3454492,4.1673151 C77.3454492,4.1673151 78.4761049,3.18344964 77.0576459,2.25441646 C75.8080066,1.43629402 75.3046623,2.20581513 74.0855475,2.48869981 C72.8670557,2.7709614 73.0439738,0.391988446 67.3763672,0.80198431 C61.7087607,1.21260327 59.6960066,2.35535769 55.9583016,2.35535769" id="Fill-273" fill="#333333"></path>
                                        <path d="M77.881623,11.7682521 C77.881623,17.539972 73.2038852,22.2181618 67.4341148,22.2181618 C61.6637213,22.2181618 56.9866066,17.539972 56.9866066,11.7682521 C56.9866066,5.9965322 61.6637213,1.31834232 67.4341148,1.31834232 C73.2038852,1.31834232 77.881623,5.9965322 77.881623,11.7682521" id="Fill-275" fill="#8B6343"></path>
                                        <path d="M77.3746033,12.1090845 C77.3746033,17.4122377 73.0762426,21.7109633 67.7743082,21.7109633 C62.4729967,21.7109633 58.1746361,17.4122377 58.1746361,12.1090845 C58.1746361,6.80593133 62.4729967,2.50658261 67.7743082,2.50658261 C73.0762426,2.50658261 77.3746033,6.80593133 77.3746033,12.1090845" id="Fill-277" fill="#977558"></path>
                                        <path d="M76.1002328,12.1090845 C76.1002328,16.7081415 72.3724951,20.4367361 67.7744951,20.4367361 C63.1764951,20.4367361 59.4487574,16.7081415 59.4487574,12.1090845 C59.4487574,7.51002757 63.1764951,3.78143297 67.7744951,3.78143297 C72.3724951,3.78143297 76.1002328,7.51002757 76.1002328,12.1090845" id="Fill-279" fill="#661F88"></path>
                                        <path d="M69.9445443,0.32812131 C69.288577,0.237149583 69.3085115,1.03533302 69.2661508,1.4752374 C69.2318885,1.8291548 69.1452984,2.2042574 69.1683475,2.56253646 C69.1789377,2.71332521 69.2013639,2.87221418 69.2374951,3.01988746 C69.2512,3.07783521 69.314741,3.4435914 69.3676918,3.30900309 C69.3433967,3.37131249 69.3652,3.45543018 69.4081836,3.50465461 L69.4206426,3.51836268 C69.5172,3.62802723 69.6791672,3.60434965 69.7532984,3.48346941 C69.9999869,3.08281996 69.9962492,2.52203534 70.0847082,2.07216146 C70.1264459,1.85906331 70.1314295,1.6521961 70.1432656,1.43598247 C70.1532328,1.2565314 70.1146098,1.01788639 70.2061836,0.868343822 C70.3463475,0.6415376 70.1955934,0.363014574 69.9445443,0.32812131" id="Fill-281" fill="#A78A73"></path>
                                        <path d="M79.3977607,12.1697116 C79.2152361,12.0594239 79.1055967,12.1223564 78.9149738,12.152888 C78.7660885,12.1765656 78.4402852,12.1753194 78.2440557,12.1940122 C77.7787115,12.2376288 77.1352033,12.2145743 76.8143836,12.6183393 C76.7882197,12.6507401 76.7819902,12.6943567 76.810023,12.7286269 C77.0691705,13.0414201 77.6186131,13.000919 77.9898918,13.0507665 C78.3462197,13.0974986 78.8962852,13.2551413 79.2501213,13.1161914 C79.6133016,12.9741259 79.7902197,12.4064873 79.3977607,12.1697116" id="Fill-283" fill="#A78A73"></path>
                                        <path d="M77.1775639,18.2479937 C77.0816295,17.8379978 76.6355967,17.6161764 76.2705475,17.4685031 C75.9721541,17.3469998 75.5578918,17.2074267 75.2545148,17.3806468 C75.1436295,17.4442024 75.0626459,17.613684 75.1050066,17.7407952 C75.2040557,18.038011 75.5174,18.3127955 75.7877607,18.4548609 C76.1154328,18.6280811 76.4555639,18.9290355 76.8474,18.8293404 C77.0922197,18.7676541 77.2330066,18.4860156 77.1775639,18.2479937" id="Fill-285" fill="#A78A73"></path>
                                        <path d="M71.4535803,22.2273836 C71.3987607,22.0155317 71.2916131,21.7363856 71.1396131,21.4977405 C71.1632852,21.494002 71.1664,21.454124 71.1402361,21.4547471 C71.1327607,21.4547471 71.1209246,21.4559932 71.1109574,21.4572394 C70.9651869,21.2410258 70.7839082,21.0628209 70.5683672,21.0092348 C70.3353836,20.9519102 70.1291869,21.1606467 70.1852525,21.3974224 C70.1952197,21.4391697 70.2195148,21.4697013 70.2363344,21.5052177 C70.2400721,21.6603681 70.2525311,21.818634 70.2743344,21.9625687 C70.3117115,22.209937 70.4531213,22.408704 70.5633836,22.5981246 C70.8524328,23.0972229 71.6005967,22.7943992 71.4535803,22.2273836" id="Fill-287" fill="#A78A73"></path>
                                        <path d="M64.9548951,21.2152297 C64.9306,20.9996392 64.7686328,20.8606892 64.5942066,20.9716 C64.5966984,20.9691076 64.5991902,20.9666152 64.601682,20.9641228 C64.5923377,20.9641228 64.5829934,20.9634997 64.5736492,20.9634997 C64.4247639,20.958515 64.3126328,21.0507329 64.2503377,21.1722362 C64.0136164,21.4607288 63.9307639,21.8620013 63.9126984,22.2296268 C63.8884033,22.7087861 64.6104033,22.8820062 64.7169279,22.3773001 C64.7673869,22.1349165 64.8701738,21.8676092 64.9243705,21.6040404 C65.0134525,21.4582364 65.0078459,21.3236481 64.9548951,21.2152297" id="Fill-289" fill="#A78A73"></path>
                                        <path d="M60.3524098,17.2914198 C60.1387377,17.1836245 59.8827049,17.2920429 59.8148033,17.498287 C59.7880164,17.5138643 59.7581148,17.5350495 59.7431639,17.545019 C59.6341475,17.6135594 59.5301148,17.6889537 59.4198525,17.7562479 C59.2323443,17.8708972 59.0224098,17.9780694 58.8373934,18.1051806 C58.818082,18.114527 58.8000164,18.1257427 58.780082,18.134466 C58.7813279,18.1369583 58.7825738,18.1388276 58.7831967,18.14132 C58.7564098,18.1618821 58.7233934,18.1768364 58.6984754,18.1986447 C58.3409016,18.5108148 58.7532951,19.0809458 59.1451311,18.8734555 C59.147,18.8784402 59.1494918,18.8828019 59.1513607,18.8871635 C59.5114262,18.7014815 59.8509344,18.472806 60.1885738,18.2484922 C60.4832295,18.0522176 60.819623,17.5275724 60.3524098,17.2914198" id="Fill-291" fill="#A78A73"></path>
                                        <path d="M73.7613639,7.32253858 C73.9413967,7.19791978 74.1208066,7.07205479 74.3002164,6.94743598 C74.1120852,6.71003716 73.9152328,6.48136166 73.7028066,6.26639422 C71.6620197,7.55308337 69.6966098,8.98308414 67.7804131,10.433647 C66.679659,11.2673468 65.5371672,12.030637 64.3984131,12.8107507 C63.5773639,13.3727815 62.4516918,14.4887429 61.423823,14.8376755 C61.4032656,14.8196058 61.3771016,14.807767 61.3440852,14.8171134 C61.1777574,14.8632224 61.1690361,14.8638455 61.0282492,14.9573096 C60.8750033,15.0588739 60.8469705,15.3268043 60.9672,15.4532924 C60.8419869,15.7118764 60.8052328,15.981053 60.9821508,16.2614454 C61.106741,16.4570969 61.3278885,16.5761078 61.5521508,16.4452581 C64.0508066,14.9884643 66.2647738,12.9359926 68.6232656,11.2598697 C70.3675279,10.0199126 72.0320525,8.60798154 73.7613639,7.32253858" id="Fill-293" fill="#654E7E"></path>
                                        <path d="M74.1142033,11.1798644 C73.534859,11.2652283 72.977941,11.8204051 72.4770885,12.1244749 C71.5800393,12.6678129 70.7054164,13.2522751 69.849482,13.8585456 C68.1818426,15.0393087 66.6363016,16.4456319 64.9026295,17.526077 C64.7169902,17.6419725 64.8085639,18.0426219 65.0484,17.9447962 C66.6998426,17.2737239 68.1587934,15.6050781 69.5554492,14.5389643 C70.3920721,13.8996698 71.2461377,13.2796912 72.1257443,12.7002138 C72.7063344,12.3176341 73.4694492,11.5562132 74.1603016,11.3929626 C74.2880066,11.362431 74.245023,11.1605485 74.1142033,11.1798644" id="Fill-295" fill="#654E7E"></path>
                                        <path d="M72.1766393,14.7359243 C72.1604426,14.6898153 72.1367705,14.6486911 72.1068689,14.6125517 C72.1137213,14.6032052 72.1224426,14.5944819 72.1292951,14.5857586 C72.205918,14.4866867 72.0993934,14.3265515 71.9922459,14.4256235 C71.9592295,14.4567782 71.9237213,14.4829481 71.890082,14.5134797 C71.8502131,14.5178414 71.8097213,14.5303032 71.7679836,14.5614579 C71.2017213,14.9851619 70.6049344,15.3671185 70.040541,15.7939379 C69.8592623,15.9303955 69.686082,16.0780688 69.5097869,16.2195111 C69.4904754,16.2257421 69.4717869,16.2276113 69.4506066,16.2394501 C69.141623,16.4114241 68.8357541,16.5890059 68.532377,16.7721955 C68.4327049,16.8326356 68.3866066,16.9354462 68.3785082,17.0419952 C68.2103115,17.2407622 68.4270984,17.5878256 68.6769016,17.451368 C68.6781475,17.4538604 68.6793934,17.4569758 68.6812623,17.4600913 C68.7111639,17.4407754 68.7416885,17.4202133 68.7715902,17.4002743 C68.9098852,17.3628886 69.0388361,17.3111718 69.1609344,17.2501086 C69.2182459,17.3828277 69.3465738,17.4694377 69.5004426,17.3641348 C70.0561148,16.9846706 70.522082,16.4494328 71.0590656,16.033206 C71.4415574,15.7359902 71.8632951,15.4730445 72.1317869,15.0618024 C72.1772623,15.0169397 72.2264754,14.9764386 72.2707049,14.9309527 C72.3529344,14.846835 72.2682131,14.7166084 72.1766393,14.7359243" id="Fill-297" fill="#654E7E"></path>
                                        <path d="M76.3167705,4.63750184 C76.2127377,4.5895236 76.0900164,4.59637764 75.9897213,4.70354981 C75.8788361,4.82069148 75.7673279,4.94219482 75.6539508,5.06245196 C75.6190656,5.09298357 75.5854262,5.12413827 75.5492951,5.15342369 C75.4602131,5.2250795 75.3555574,5.35592924 75.2384426,5.36465256 C75.0465738,5.37898372 74.9469016,5.53101866 74.9487705,5.68492289 C74.9089016,5.72853947 74.8690328,5.77153295 74.8329016,5.82200357 C74.6615902,6.05753311 74.9562459,6.44883615 75.221623,6.27561601 C75.245918,6.26003866 75.2683443,6.24072275 75.2926393,6.22389921 C75.5536557,6.16408218 75.7561148,5.97653089 75.9442459,5.79583362 C76.1635246,5.58522784 76.3952623,5.35655234 76.5858852,5.11977661 C76.7565738,4.90792465 76.6002131,4.5278373 76.3167705,4.63750184" id="Fill-299" fill="#A78A73"></path>
                                        <path d="M63.8200033,2.88885079 C63.7776426,2.69693784 63.6954131,2.52807936 63.607577,2.35922088 C63.5178721,2.03832746 63.4182,1.71743404 63.2618393,1.44638814 C63.1690197,1.28562989 63.0070525,1.22892833 62.861282,1.25385209 C62.8320033,1.23515927 62.8008557,1.23578236 62.7672164,1.25883684 C62.5647574,1.20400457 62.3641672,1.42146438 62.3959377,1.65450154 C62.4451508,2.01527298 62.6027574,2.35112066 62.7373148,2.68634524 C62.785282,2.80722548 62.8301344,2.93869831 62.886823,3.06020165 C62.8862,3.18419736 62.9453803,3.30258522 63.0923967,3.34433252 C63.0986262,3.3462018 63.1036098,3.34557871 63.1098393,3.34744799 C63.1428557,3.37237175 63.1708885,3.40165717 63.2101344,3.4191038 C63.3066918,3.4608511 63.3826918,3.43343496 63.4337738,3.37424103 C63.5091508,3.37922578 63.5857738,3.34807108 63.6505607,3.29697737 C63.7826262,3.20974421 63.8561344,3.05210142 63.8200033,2.88885079" id="Fill-301" fill="#A78A73"></path>
                                        <path d="M60.312541,6.25069225 C60.2022787,6.16408218 60.0658525,6.12295798 59.9481148,6.04943289 C59.7736885,5.93976834 59.6185738,5.79894909 59.4547377,5.67557648 C59.1588361,5.45375501 58.8336557,5.20887906 58.4891639,5.07179837 C58.0998197,4.91602487 57.7933279,5.51606441 58.0749016,5.78461793 C58.2954262,5.99460061 58.5365082,6.18838285 58.7888033,6.36658774 C58.9619836,6.51986887 59.1737869,6.62766413 59.3812295,6.74792128 C59.6434918,6.89933313 59.8789672,7.07068398 60.1948033,7.00837458 C60.552377,6.93734186 60.5561148,6.44198212 60.312541,6.25069225" id="Fill-303" fill="#A78A73"></path>
                                        <path d="M35.7599311,4.72841126 C35.7599311,4.72841126 32.4358656,2.77501152 31.5456689,8.16726714 C30.6554721,13.5595228 32.6875377,19.6683365 34.8703574,22.8504777 C36.3255705,24.7590146 37.9041279,23.6511535 40.2258656,23.7502254 C42.5476033,23.8492974 35.7599311,4.72841126 35.7599311,4.72841126" id="Fill-305" fill="#1A1A1A"></path>
                                        <path d="M56.5812525,2.35535769 L56.5812525,17.9327081 C56.5812525,17.9327081 47.3341705,23.101273 44.9277115,23.750537 C42.5218754,24.3991778 39.4681705,25.4129518 38.5356131,25.4372525 C37.6036787,25.4615531 37.6204984,24.1561712 37.5133508,23.7268594 C35.6893508,21.6276556 29.8628918,13.4021915 35.3934492,4.1673151 C35.3934492,4.1673151 34.269023,3.18344964 35.6881049,2.25441646 C36.9371213,1.43629402 37.4442033,2.20581513 38.6626951,2.48869981 C39.8818098,2.7709614 39.6002361,0.391988446 45.2678426,0.80198431 C50.9354492,1.21260327 52.8435475,2.35535769 56.5812525,2.35535769" id="Fill-307" fill="#333333"></path>
                                        <path d="M34.870482,11.7682521 C34.870482,17.539972 39.5482197,22.2181618 45.3179902,22.2181618 C51.0883836,22.2181618 55.7654984,17.539972 55.7654984,11.7682521 C55.7654984,5.9965322 51.0883836,1.31834232 45.3179902,1.31834232 C39.5482197,1.31834232 34.870482,5.9965322 34.870482,11.7682521" id="Fill-309" fill="#8B6343"></path>
                                        <path d="M35.3774393,12.1090845 C35.3774393,17.4122377 39.6758,21.7109633 44.9771115,21.7109633 C50.2790459,21.7109633 54.5774066,17.4122377 54.5774066,12.1090845 C54.5774066,6.80593133 50.2790459,2.50658261 44.9771115,2.50658261 C39.6758,2.50658261 35.3774393,6.80593133 35.3774393,12.1090845" id="Fill-311" fill="#977558"></path>
                                        <path d="M36.6518721,12.1090845 C36.6518721,16.7081415 40.3796098,20.4367361 44.9776098,20.4367361 C49.5756098,20.4367361 53.3033475,16.7081415 53.3033475,12.1090845 C53.3033475,7.51002757 49.5756098,3.78143297 44.9776098,3.78143297 C40.3796098,3.78143297 36.6518721,7.51002757 36.6518721,12.1090845" id="Fill-313" fill="#661F88"></path>
                                        <path d="M41.0742623,0.966730368 C41.7078033,0.773571222 41.8143279,1.56490062 41.9245902,1.99234312 C42.0142951,2.33691411 42.1588197,2.69332389 42.192459,3.05097986 C42.2061639,3.20176861 42.2092787,3.36190377 42.1968197,3.51393871 C42.1918361,3.57313264 42.1868525,3.94449668 42.1133443,3.81925478 C42.1469836,3.87720252 42.1388852,3.96381259 42.104,4.01864486 L42.0940328,4.03422221 C42.0161639,4.15821792 41.8523279,4.16008721 41.7595082,4.05229194 C41.4536393,3.69525907 41.368918,3.14195158 41.2106885,2.71077052 C41.1353115,2.50701878 41.0979344,2.30389013 41.052459,2.09203816 C41.014459,1.91632565 41.014459,1.67456517 40.901082,1.54184615 C40.7272787,1.33934059 40.8319344,1.04025546 41.0742623,0.966730368" id="Fill-315" fill="#A78A73"></path>
                                        <path d="M36.7533508,19.8024263 C36.7832525,19.382461 37.1894164,19.0933454 37.5258098,18.8895936 C37.801777,18.7232275 38.1886295,18.5194758 38.5156787,18.6428484 C38.6352852,18.6883342 38.7418098,18.8434847 38.7200066,18.9755806 C38.6695475,19.2840121 38.4029246,19.6049055 38.1587279,19.7880952 C37.8622033,20.0105397 37.573777,20.3613417 37.1707279,20.3245791 C36.9196787,20.3021477 36.7359082,20.0460561 36.7533508,19.8024263" id="Fill-317" fill="#A78A73"></path>
                                        <path d="M43.0325082,22.830414 C43.0536885,22.6123311 43.1153607,22.3201 43.2281148,22.0602698 C43.2038197,22.0602698 43.1944754,22.021638 43.2206393,22.0178994 C43.2274918,22.0166532 43.2399508,22.0166532 43.249918,22.0160302 C43.3595574,21.7798775 43.5103115,21.5748796 43.7152623,21.4882695 C43.9357869,21.3941823 44.1725082,21.5680256 44.1538197,21.8110322 C44.1513279,21.8540257 44.1320164,21.8876728 44.1208033,21.9256815 C44.1413607,22.0789626 44.1538197,22.2372285 44.1556885,22.3830325 C44.1575574,22.6335163 44.0491639,22.8522223 43.9700492,23.0565972 C43.7632295,23.5943273 42.9764426,23.41363 43.0325082,22.830414" id="Fill-319" fill="#A78A73"></path>
                                        <path d="M49.2907344,20.8070408 C49.2807672,20.5902041 49.4190623,20.4275766 49.6084393,20.509825 C49.6053246,20.5079557 49.6028328,20.5054633 49.599718,20.503594 C49.6090623,20.5017248 49.6184066,20.4998555 49.6277508,20.4979862 C49.7735213,20.469947 49.8987344,20.5434721 49.979718,20.6537597 C50.2588,20.901128 50.4039475,21.2849539 50.4799475,21.6451023 C50.5789967,22.1142921 49.8931279,22.399046 49.7087344,21.9167713 C49.6202754,21.6856034 49.4769967,21.437612 49.3823082,21.185882 C49.271423,21.0562784 49.2558492,20.9229363 49.2907344,20.8070408" id="Fill-321" fill="#A78A73"></path>
                                        <path d="M53.2178787,16.2071116 C53.4116164,16.0669154 53.681977,16.1335865 53.7816492,16.3267456 C53.8103049,16.3379613 53.8426984,16.3541617 53.859518,16.3616389 C53.9778787,16.4121095 54.0925016,16.4700572 54.2121082,16.5192817 C54.4151902,16.6033994 54.6394525,16.6756783 54.8419115,16.7722578 C54.8624689,16.7778657 54.8824033,16.786589 54.9035836,16.7921968 C54.9023377,16.7946892 54.9017148,16.7965585 54.9010918,16.7990509 C54.9309934,16.8152513 54.9658787,16.8245977 54.9939115,16.8426675 C55.3963377,17.0943974 55.0786328,17.7224762 54.6593869,17.5791646 C54.658141,17.5841493 54.6562721,17.5891341 54.6550262,17.5941188 C54.2706656,17.4670077 53.8993869,17.2950337 53.529977,17.1261752 C53.2079115,16.979125 52.7942721,16.5142969 53.2178787,16.2071116" id="Fill-323" fill="#A78A73"></path>
                                        <path d="M53.9316557,10.3739546 C53.9939508,10.1695798 54.1478197,10.1265863 54.3160164,10.0997932 C54.5521148,9.96395874 54.8430328,9.8954184 55.0915902,9.82750115 C55.3775246,9.7489913 55.7157869,9.61502609 56.0023443,9.76581484 C56.3804754,9.96395874 56.3873279,10.5041813 55.9574918,10.6425081 C55.575,10.7658807 55.1875246,10.8200899 54.7938197,10.8923688 C54.549,10.9372316 54.307918,11.0113798 54.0861475,10.8549832 C53.9397541,10.7509265 53.8805738,10.5428131 53.9316557,10.3739546" id="Fill-325" fill="#A78A73"></path>
                                        <path d="M51.3518295,7.32253858 C51.5318623,7.19791978 51.0883213,7.07205479 51.2677311,6.94743598 C51.2602557,6.93746648 51.2521574,6.92749697 51.244682,6.91815056 C50.9307148,6.52435515 50.3563541,6.46079956 49.9439607,6.74929209 C48.2894033,7.90637768 47.0503541,9.16253521 45.3708787,10.433647 C44.2701246,11.2673468 43.1276328,12.030637 41.9888787,12.8107507 C41.1678295,13.3727815 40.0421574,14.4887429 39.0142885,14.8376755 C38.9937311,14.8196058 38.9675672,14.807767 38.9345508,14.8171134 C38.768223,14.8632224 38.7595016,14.8638455 38.6187148,14.9573096 C38.4654689,15.0588739 38.4374361,15.3268043 38.5576656,15.4532924 C38.4324525,15.7118764 38.3956984,15.981053 38.5726164,16.2614454 C38.6972066,16.4570969 38.9183541,16.5761078 39.1426164,16.4452581 C41.6412721,14.9884643 43.8552393,12.9359926 46.2137311,11.2598697 C47.9579934,10.0199126 49.622518,8.60798154 51.3518295,7.32253858" id="Fill-327" fill="#654E7E"></path>
                                        <path d="M51.7046689,11.1798644 C51.1253246,11.2652283 50.5684066,11.8204051 50.0675541,12.1244749 C49.1705049,12.6678129 48.295882,13.2522751 47.4399475,13.8585456 C45.7723082,15.0393087 44.2267672,16.4456319 42.4930951,17.526077 C42.3074557,17.6419725 42.3990295,18.0426219 42.6388656,17.9447962 C44.2903082,17.2737239 45.749259,15.6050781 47.1459148,14.5389643 C47.9825377,13.8996698 48.8366033,13.2796912 49.7162098,12.7002138 C50.2968,12.3176341 51.0599148,11.5562132 51.7507672,11.3929626 C51.8784721,11.362431 51.8354885,11.1605485 51.7046689,11.1798644" id="Fill-329" fill="#654E7E"></path>
                                        <path d="M49.7671049,14.7359243 C49.7509082,14.6898153 49.7272361,14.6486911 49.6973344,14.6125517 C49.7041869,14.6032052 49.7129082,14.5944819 49.7197607,14.5857586 C49.7963836,14.4866867 49.689859,14.3265515 49.5827115,14.4256235 C49.5496951,14.4567782 49.5141869,14.4829481 49.4805475,14.5134797 C49.4406787,14.5178414 49.4001869,14.5303032 49.3584492,14.5614579 C48.7921869,14.9851619 48.1954,15.3671185 47.6310066,15.7939379 C47.4497279,15.9303955 47.2765475,16.0780688 47.1002525,16.2195111 C47.080941,16.2257421 47.0622525,16.2276113 47.0410721,16.2394501 C46.7320885,16.4114241 46.4262197,16.5890059 46.1228426,16.7721955 C46.0231705,16.8326356 45.9770721,16.9354462 45.9689738,17.0419952 C45.800777,17.2407622 46.0175639,17.5878256 46.2673672,17.451368 C46.2686131,17.4538604 46.269859,17.4569758 46.2717279,17.4600913 C46.3016295,17.4407754 46.3321541,17.4202133 46.3620557,17.4002743 C46.5003508,17.3628886 46.6293016,17.3111718 46.7514,17.2501086 C46.8087115,17.3828277 46.9370393,17.4694377 47.0909082,17.3641348 C47.6465803,16.9846706 48.1125475,16.4494328 48.6495311,16.033206 C49.032023,15.7359902 49.4537607,15.4730445 49.7222525,15.0618024 C49.7677279,15.0169397 49.816941,14.9764386 49.8611705,14.9309527 C49.9434,14.846835 49.8586787,14.7166084 49.7671049,14.7359243" id="Fill-331" fill="#654E7E"></path>
                                        <path d="M35.4602295,6.22620466 C35.554918,6.16202597 35.6776393,6.15018719 35.7941311,6.23991273 C35.9212131,6.33836158 36.0507869,6.440549 36.1816066,6.54149023 C36.2208525,6.5657909 36.2594754,6.59196085 36.2999672,6.61501533 C36.3983934,6.67171688 36.5223607,6.7844969 36.6394754,6.77452739 C36.8313443,6.75832695 36.9540656,6.89291526 36.9764918,7.0449502 C37.0225902,7.08171274 37.0686885,7.11847529 37.1122951,7.16209187 C37.3178689,7.3677129 37.0892459,7.80076324 36.7995738,7.67178278 C36.7727869,7.65994399 36.7478689,7.64436664 36.7217049,7.63190476 C36.454459,7.61321194 36.2252131,7.46055391 36.010918,7.31163444 C35.7604918,7.13779121 35.4957377,6.94899372 35.2702295,6.74524197 C35.0690164,6.56267543 35.163082,6.16264907 35.4602295,6.22620466" id="Fill-333" fill="#A78A73"></path>
                                        <path d="M47.5256033,2.53063404 C47.5374393,2.33435943 47.592259,2.15490835 47.6520623,1.97358799 C47.6900623,1.64334816 47.7374066,1.31061596 47.8495377,1.01776177 C47.9161934,0.844541631 48.0669475,0.763539409 48.2152098,0.764785597 C48.2407508,0.742354212 48.2718984,0.737992554 48.3086525,0.754816093 C48.4998984,0.668829118 48.732259,0.852018759 48.7372426,1.0875483 C48.745341,1.4514352 48.643177,1.80784498 48.5628164,2.1598931 C48.5341607,2.28700428 48.5111115,2.42346187 48.4743574,2.55306543 C48.4942918,2.67519185 48.454423,2.80105685 48.3155049,2.86585862 C48.3098984,2.868351 48.3049148,2.86897409 48.2986852,2.87146647 C48.2706525,2.90137498 48.2476033,2.93502206 48.2108492,2.95807654 C48.1223902,3.01477809 48.0432754,2.99920074 47.9834721,2.94935322 C47.9099639,2.96555367 47.8289803,2.94686085 47.757341,2.90698283 C47.6128164,2.84218105 47.5156361,2.69762324 47.5256033,2.53063404" id="Fill-335" fill="#A78A73"></path>
                                        <path d="M51.5186557,5.2979815 C51.6139672,5.19517099 51.7416721,5.13286159 51.8469508,5.04126677 C52.0020656,4.90605536 52.1328852,4.74218164 52.275541,4.59450836 C52.5321967,4.3296934 52.8150164,4.03621612 53.1333443,3.84617244 C53.4940328,3.631205 53.8908525,4.17516608 53.6547541,4.4854669 C53.4703607,4.72722738 53.262918,4.95652598 53.0417705,5.1727396 C52.8947541,5.35094449 52.7028852,5.49051755 52.516623,5.64255249 C52.2817705,5.83321926 52.0761967,6.03946338 51.7547541,6.0276246 C51.3903279,6.01391653 51.3080984,5.52541082 51.5186557,5.2979815" id="Fill-337" fill="#A78A73"></path>
                                        <path d="M85.124423,14.9376198 C85.0795705,14.69399 85.0596361,14.4254365 84.9144885,14.2185693 C84.8814721,14.1718373 84.8210459,14.2310312 84.8416033,14.2752709 C84.9612098,14.5263778 84.946882,14.8977418 84.9855049,15.1743955 C85.0272426,15.475973 85.0297344,15.7850277 85.0932754,16.0822435 C85.1219311,16.2187011 85.2919967,16.1576379 85.2801607,16.0330191 C85.2471443,15.6629012 85.1917016,15.303376 85.124423,14.9376198" id="Fill-339" fill="#989898"></path>
                                        <path d="M85.584659,15.0141357 C85.5566262,14.8197304 85.5180033,14.5218915 85.3641344,14.3792029 C85.3030852,14.3231245 85.2196098,14.41285 85.2750525,14.4695516 C85.4420033,14.6384101 85.4413803,15.0484059 85.4532164,15.2577655 C85.4675443,15.5094955 85.4681672,15.7618486 85.4625607,16.0142016 C85.458823,16.1481669 85.6569213,16.1543978 85.6544295,16.0210557 C85.6482,15.6858311 85.6326262,15.346868 85.584659,15.0141357" id="Fill-341" fill="#989898"></path>
                                        <path d="M85.8069902,14.4674954 C85.7702361,14.4195171 85.6973508,14.4818265 85.7272525,14.5298048 C86.0275148,15.0039793 85.9197443,15.6202193 85.9826623,16.1523416 C85.9982361,16.2844375 86.2069246,16.2595138 86.1988262,16.1280409 C86.1670557,15.5909339 86.1446295,14.9130076 85.8069902,14.4674954" id="Fill-343" fill="#989898"></path>
                                        <path d="M86.3934361,14.3993912 C86.3460918,14.3059271 86.2227475,14.3875524 86.2632393,14.4760318 C86.5043213,15.0006769 86.3392393,15.6692568 86.4270754,16.2263029 C86.4438951,16.3340981 86.6058623,16.3141591 86.6033705,16.2069869 C86.5927803,15.6536794 86.6500918,14.9059666 86.3934361,14.3993912" id="Fill-345" fill="#989898"></path>
                                        <path d="M86.7648393,14.6465103 C86.7386754,14.5798392 86.6346426,14.6265713 86.6564459,14.691373 C86.8339869,15.2066718 86.794118,15.731317 86.8121836,16.2671778 C86.8159213,16.3868119 86.9828721,16.3955352 86.9866098,16.2734088 C87.0028066,15.7300708 86.9654295,15.154955 86.7648393,14.6465103" id="Fill-347" fill="#989898"></path>
                                        <path d="M87.2256984,14.766892 C87.2057639,14.6809051 87.0892721,14.7157983 87.1036,14.7986698 C87.1758623,15.2092888 87.2088787,15.6510625 87.1727475,16.0672893 C87.1609115,16.2031238 87.3652393,16.211224 87.368977,16.0741433 C87.382682,15.641716 87.3241246,15.1874805 87.2256984,14.766892" id="Fill-349" fill="#989898"></path>
                                        <path d="M87.6262557,15.0584377 C87.6187803,14.9799279 87.4948131,14.9948821 87.4979279,15.0727689 C87.5110098,15.3942854 87.5004197,15.7070786 87.4779934,16.027972 C87.4698951,16.1463599 87.6368459,16.1507215 87.648059,16.034203 C87.6798295,15.7058324 87.6580262,15.3855621 87.6262557,15.0584377" id="Fill-351" fill="#989898"></path>
                                        <path d="M84.818118,15.038561 C84.8069049,14.9102037 84.6274951,14.8946263 84.6256262,15.031707 C84.6237574,15.2560208 84.6050689,15.4728576 84.5720525,15.694679 C84.5483803,15.8610451 84.8050361,15.8753763 84.818741,15.7034024 C84.8361836,15.4784654 84.8374295,15.263498 84.818118,15.038561" id="Fill-353" fill="#989898"></path>
                                        <path d="M88.4810066,14.4759694 C88.4810066,14.4759694 88.0169082,11.4982031 88.1122197,10.8900634 C88.2075311,10.2819236 89.5624492,10.5853704 90.578482,10.8900634 C91.5945148,11.1947564 92.1719902,11.5486738 91.2151377,12.9176113 C90.2582852,14.2865489 89.9013344,14.7239609 89.9013344,14.7239609 L88.4810066,14.4759694 Z" id="Fill-355" fill="#654E7E"></path>
                                        <path d="M58.729,11.6435087 C58.6355574,11.4515957 58.4767049,11.4329029 58.3060164,11.433526 C58.0518525,11.3363233 57.753459,11.314515 57.4974262,11.2864758 C57.2027705,11.2540749 56.8470656,11.1755651 56.588541,11.3687242 C56.246541,11.6248158 56.3250328,12.1588074 56.7704426,12.2279709 C57.1678852,12.2890341 57.5590984,12.2815569 57.9590328,12.2909033 C58.2082131,12.2965112 58.4580164,12.3320276 58.6517541,12.142607 C58.7807049,12.0173651 58.8062459,11.8023976 58.729,11.6435087" id="Fill-357" fill="#A78A73"></path>
                                        <path d="M50.1161443,12.1090845 C50.1161443,14.9479009 47.8155869,17.2489871 44.977423,17.2489871 C42.139259,17.2489871 39.8387016,14.9479009 39.8387016,12.1090845 C39.8387016,9.27026817 42.139259,6.96918196 44.977423,6.96918196 C47.8155869,6.96918196 50.1161443,9.27026817 50.1161443,12.1090845 L50.1161443,12.1090845 Z" id="Stroke-359" stroke="#A78A73" stroke-width="0.839344262"></path>
                                        <path d="M50.1161443,12.1090845 C50.1161443,14.9479009 47.8155869,17.2489871 44.977423,17.2489871 C42.139259,17.2489871 39.8387016,14.9479009 39.8387016,12.1090845 C39.8387016,9.27026817 42.139259,6.96918196 44.977423,6.96918196 C47.8155869,6.96918196 50.1161443,9.27026817 50.1161443,12.1090845" id="Fill-361" fill="#FFFFFF"></path>
                                        <path d="M43.9811377,17.4871959 C43.9811377,19.5309443 42.3247115,21.1883744 40.2808098,21.1883744 C38.2375311,21.1883744 36.5811049,19.5309443 36.5811049,17.4871959 C36.5811049,15.4434475 38.2375311,13.7860174 40.2808098,13.7860174 C42.3247115,13.7860174 43.9811377,15.4434475 43.9811377,17.4871959 L43.9811377,17.4871959 Z" id="Stroke-363" stroke="#A78A73" stroke-width="0.839344262"></path>
                                        <path d="M43.9811377,17.4871959 C43.9811377,19.5309443 42.3247115,21.1883744 40.2808098,21.1883744 C38.2375311,21.1883744 36.5811049,19.5309443 36.5811049,17.4871959 C36.5811049,15.4434475 38.2375311,13.7860174 40.2808098,13.7860174 C42.3247115,13.7860174 43.9811377,15.4434475 43.9811377,17.4871959" id="Fill-365" fill="#FFFFFF"></path>
                                        <path d="M37.0087607,15.7620355 L33.4965639,12.4633758 L35.5647607,5.39499724 C35.6582033,5.0765962 36.041941,4.95197739 36.3023344,5.15822151 C37.5968262,6.18508045 40.7651541,8.70549575 40.8149902,8.8151603" id="Stroke-367" stroke="#BFB07C" stroke-width="0.839344262"></path>
                                        <line x1="34.870482" y1="12.2756375" x2="28.6397279" y2="18.2579632" id="Stroke-369" stroke="#BFB07C" stroke-width="0.839344262"></line>
                                        <path d="M35.2625049,9.56654938 C34.9634885,9.35968216 34.2128328,9.40205256 33.7138492,9.6469285 C33.8322098,9.48679334 33.9505705,9.32603508 34.0683082,9.16589992 C34.1181443,9.13100666 34.8227016,9.01261879 34.9292262,9.17649252 C34.9628656,9.22820932 35.0488328,9.20017009 35.0288984,9.13474522 C34.8189639,8.44435705 33.1450951,8.92227016 33.2889967,9.65191326 C33.3039475,9.72855382 33.3500459,9.79460179 33.4148328,9.85130334 C33.3033246,9.96096789 33.2335541,10.0893253 33.234177,10.2382447 C33.234177,10.2812382 33.2410295,10.31987 33.2497508,10.3566326 C32.9987016,10.4837438 32.8435869,10.670672 32.8965377,10.9348638 C32.917718,11.0432822 32.9768984,11.1311385 33.0510295,11.2090252 C32.9445049,11.2657268 32.8610295,11.3242976 32.8186689,11.3785068 C32.626177,11.6289906 32.7015541,11.8495659 32.9089967,12.0171781 C32.4667016,12.6440107 33.3911607,12.7898147 33.8072918,12.6982199 C34.0134885,12.652734 33.9406033,12.3330868 33.7331607,12.3573875 C33.4472262,12.4496054 33.349423,12.4103505 33.412341,12.2589386 C33.9125705,12.4022502 34.5324066,12.3785727 34.7548,12.0919494 C34.8065049,12.0252784 34.831423,11.9193524 34.7628984,11.850812 C34.4732262,11.5604502 33.7574557,11.5417574 33.2821443,11.7405244 C33.2428984,11.678215 33.2404066,11.5978359 33.3058164,11.4881713 C33.3182754,11.4669861 33.3562754,11.446424 33.4061115,11.426485 C33.9293902,11.6208904 34.6974885,11.5511038 35.0002426,11.3143281 C35.045718,11.2788117 35.0563082,11.2034174 35.045718,11.1510775 C34.9616197,10.723635 34.0620787,10.8289379 33.4235541,11.0495131 C33.3755869,11.0239663 33.335718,10.9959271 33.3176525,10.9629031 C33.247882,10.8339226 33.3263738,10.7323583 33.4789967,10.6550946 C33.9387344,10.9236481 34.9111607,10.7367199 35.2051934,10.4824976 C35.2668656,10.4295346 35.2631279,10.2924539 35.185882,10.2525759 C34.9479148,10.1292033 34.2389967,10.0880791 33.6702426,10.2145672 C33.6727344,10.1634734 33.703259,10.1017871 33.7699148,10.0276389 C34.3218492,10.1865279 35.1653246,10.0986717 35.3067344,9.78151681 C35.3397508,9.70736862 35.3360131,9.61764309 35.2625049,9.56654938" id="Fill-371" fill="#BFB07C"></path>
                                        <path d="M33.3377115,14.8501374 C32.9545967,14.5728606 32.6375148,14.2251741 32.3042361,13.8911957 C32.1927279,13.7796619 32.0369902,13.9510127 32.1366623,14.0613004 C32.457482,14.4139716 32.7714492,14.8619762 33.1863344,15.1099676 C33.3520393,15.2090396 33.483482,14.9560634 33.3377115,14.8501374" id="Fill-373" fill="#BFB07C"></path>
                                        <path d="M33.5052852,14.5745429 C33.1938098,14.3003816 32.9197115,14.0255971 32.6580721,13.7034575 C32.5752197,13.6018932 32.4425311,13.7495664 32.519777,13.8430305 C32.785777,14.1651702 33.0561377,14.4854405 33.3383344,14.7926258 C33.4753836,14.9415453 33.6647607,14.6829613 33.5052852,14.5745429" id="Fill-375" fill="#BFB07C"></path>
                                        <path d="M34.2502098,13.8250231 C33.9997836,13.5321689 33.7020131,13.2548921 33.4198164,12.9925695 C33.3425705,12.9209137 33.2435213,13.0293321 33.3076852,13.1053495 C33.4092262,13.2262298 33.5032918,13.3520948 33.5973574,13.4773367 C33.5039148,13.3795109 33.4110951,13.2810621 33.3182754,13.1819901 C33.2260787,13.0847874 33.1114557,13.2256067 33.1806033,13.3221863 C33.3849311,13.6094326 33.5861443,13.8960558 33.817259,14.1614939 C33.7973246,14.1540168 33.7761443,14.1509013 33.7549639,14.1521475 C33.4297836,13.9733195 33.1475869,13.6225176 32.9133574,13.3589488 C32.8404721,13.2773235 32.7320787,13.3988268 32.7981115,13.4754674 C32.8809639,13.572047 32.9656852,13.6673803 33.0485377,13.7639599 C32.969423,13.6991581 32.8878164,13.6368487 32.8111934,13.5695546 C32.7345705,13.5035066 32.6423738,13.6412104 32.7059148,13.7078815 C33.0217508,14.0381213 33.3600131,14.3521607 33.6608984,14.6967317 C33.7954557,14.8705749 34.0427672,14.6020214 33.8920131,14.4624483 C33.8895213,14.4599559 33.8864066,14.4574636 33.8839148,14.4549712 C33.9250295,14.4051237 33.9430951,14.3315986 33.9138164,14.2761432 C34.0614557,14.4244396 34.247718,14.2462347 34.2028656,14.0811148 C34.2788656,14.0306442 34.3255869,13.9135025 34.2502098,13.8250231" id="Fill-377" fill="#BFB07C"></path>
                                        <path d="M35.3659148,13.6218322 C35.4282098,13.4997057 35.2936525,13.3464246 35.1647016,13.4504813 C35.1397836,13.4710434 35.1142426,13.494721 35.0887016,13.5159062 C35.135423,13.4660587 35.1777836,13.4118495 35.2251279,13.3626251 C35.3353902,13.2479758 35.1790295,13.0454702 35.058177,13.1669735 C34.7666361,13.4610739 34.3486361,13.8149913 34.2066033,14.21751 C34.1829311,14.2854273 34.2122098,14.3782683 34.273882,14.4175232 C34.2869639,14.4256235 34.3000459,14.4343468 34.3131279,14.442447 C34.3579803,14.4717324 34.400341,14.4667477 34.437718,14.4511703 C34.4508,14.581397 34.5847344,14.6443295 34.6831607,14.58202 C34.7566689,14.7296933 34.9522754,14.6461987 34.9634885,14.502264 C34.957882,14.575166 34.9809311,14.4885559 35.0064721,14.4530396 C35.0606689,14.376399 35.1086361,14.2935275 35.1615869,14.2162639 C35.2587672,14.0735753 35.3547016,13.9383639 35.4873902,13.8274532 C35.5839475,13.7470741 35.4799148,13.5645075 35.3659148,13.6218322" id="Fill-379" fill="#A9944B"></path>
                                        <path d="M35.8760492,14.3780191 C35.866082,14.3873655 35.8561148,14.3992043 35.8461475,14.4091738 C35.853,14.3020016 35.7414918,14.198568 35.6393279,14.2945245 C35.5901148,14.3412565 35.5178525,14.4073045 35.4462131,14.4826989 C35.5178525,14.3624417 35.6081803,14.2509079 35.6978852,14.1424895 C35.814377,14.0016703 35.6436885,13.7630253 35.4997869,13.9119447 C35.2431311,14.1773828 34.9727705,14.4565289 34.9715246,14.8472089 C34.9715246,14.9986207 35.0967377,15.0453528 35.1964098,15.0067209 C35.2101148,15.0553223 35.2337869,15.1014312 35.2854918,15.1419323 C35.3322131,15.1786949 35.3745738,15.1687254 35.410082,15.1456709 C35.4082131,15.1649868 35.3994918,15.1836796 35.3988689,15.2042417 C35.3982459,15.3699847 35.6088033,15.4104859 35.6661148,15.2528431 C35.7564426,15.0036055 35.8810328,14.788638 36.0585738,14.5911172 C36.1738197,14.4633829 36.0106066,14.2453 35.8760492,14.3780191" id="Fill-381" fill="#A9944B"></path>
                                        <path d="M35.7887115,4.97864582 C35.7694,4.9904846 35.7594328,5.0116698 35.7532033,5.03410118 C35.7314,5.06089423 35.7176951,5.0951644 35.7245475,5.13878098 C35.7388754,5.22289867 35.7556951,5.25841503 35.8298262,5.29953924 C35.8784164,5.32633228 35.9189082,5.31885515 35.9606459,5.28583117 C36.1114,5.16682021 35.972482,4.86275033 35.7887115,4.97864582" id="Fill-383" fill="#A9944B"></path>
                                        <path d="M35.3817377,4.8049272 C35.3829836,4.80118864 35.3848525,4.79807317 35.3867213,4.7949577 C35.4141311,4.82237384 35.4552459,4.83109715 35.4888852,4.79121914 C35.7816721,4.44290958 36.201541,4.90898391 36.1921967,5.2323697 C36.1747541,5.80000835 35.4091475,5.46478377 35.5493115,5.14638273 C35.6078689,5.0136637 35.5057049,4.81427362 35.3817377,4.8049272 M36.3554098,4.34819929 C35.9006557,4.06469151 35.1855082,4.04599869 35.0908197,4.68467006 C35.0852131,4.72080951 35.0964262,4.75009493 35.1151148,4.77314941 C35.0117049,5.04606459 35.0521967,5.41618244 35.1911148,5.6286575 C35.4951148,6.09223944 36.2158689,6.18321117 36.5958689,5.76511509 C36.9659016,5.3576116 36.8051803,4.6279685 36.3554098,4.34819929" id="Fill-385" fill="#A9944B"></path>
                                        <path d="M40.8906787,8.26714911 C40.8346131,8.36746725 40.7498918,8.45719279 40.658318,8.54317976 C40.6801213,8.51389434 40.7031705,8.48523202 40.7249738,8.4559466 C40.7922525,8.36622106 40.6564492,8.23100966 40.5748426,8.3207352 C40.4502525,8.45781588 40.3250393,8.59178109 40.2154,8.73945438 C40.1717934,8.79802521 40.2054328,8.86968103 40.2577607,8.90644357 C40.1238262,9.05037829 40.341859,9.29836971 40.4639574,9.14072692 C40.6576951,8.89086622 40.9417607,8.64972884 41.063859,8.35375918 C41.1068426,8.24907939 40.9486131,8.16309241 40.8906787,8.26714911" id="Fill-387" fill="#A9944B"></path>
                                        <path d="M40.456918,7.92282736 C40.3317049,8.12408673 40.052623,8.23499746 39.8806885,8.39637881 C39.7629508,8.50666645 39.899377,8.75964262 40.0507541,8.65433973 C40.2575738,8.51102811 40.6058033,8.25431338 40.6388197,7.98326748 C40.6512787,7.87734149 40.5098689,7.83746348 40.456918,7.92282736" id="Fill-389" fill="#A9944B"></path>
                                    </g>
                                </g>
                            </g>
                        </g>
                        <g id="Icons-/-20px-/-Grey---Darkest-#333333" transform="translate(227.000000, 54.000000)">
                            <g id="Icons-/-20px-/-White-#FFFFFFF"></g>
                        </g>
                        <path d="M265.505417,90.8248969 L262.54408,37.5110002 C262.241923,32.0711595 266.349982,27.3904862 271.783041,26.9842403 L394.952825,17.7744717 C400.460297,17.3626617 405.258824,21.4935126 405.670634,27.0009854 C405.680059,27.1270319 405.687093,27.2532457 405.691733,27.3795589 L407.646587,80.5986361 C407.843902,85.9703552 403.759352,90.5370609 398.398974,90.9378722 L298.334811,98.4199654 L298.334811,98.4199654 L294.130366,109.68526 C293.74414,110.720105 292.592135,111.245914 291.55729,110.859689 C291.082373,110.68244 290.69248,110.331466 290.466447,109.877734 L285.327819,99.562614 L285.327819,99.562614 L276.235674,100.24246 C270.728201,100.654271 265.929674,96.5234196 265.517864,91.0159468 C265.513106,90.9523047 265.508956,90.8886185 265.505417,90.8248969 Z" id="Path-2" fill="#FFFFFF"></path>
                        <text id="Welcome-New-Snapshot" transform="translate(336.500000, 72.000000) rotate(-4.000000) translate(-336.500000, -72.000000) " font-family="Roboto-Black, Roboto" font-size="16" font-weight="700" line-spacing="3" letter-spacing="-0.24581824" fill="#38326B">
                            <tspan x="292.188489" y="44.015625">Welcome </tspan>
                            <tspan x="309.134352" y="62.015625">New</tspan>
                            <tspan x="274.941569" y="80.015625">Snapshot Pro!</tspan>
                        </text>
                        <path d="M260.579001,88.8523325 L257.55669,35.5362223 C257.247763,30.0864925 261.366059,25.3958572 266.809946,24.9969975 L392.91972,15.7572547 C398.427803,15.3536915 403.220139,19.4917225 403.623703,24.9998058 C403.63239,25.1183822 403.638963,25.2371042 403.643417,25.3559151 L405.638522,78.5772088 C405.840213,83.9574965 401.74593,88.5316601 396.376257,88.9250824 L294.081416,96.4199654 L294.081416,96.4199654 L288.147137,112 L280.807157,97.562614 L271.293689,98.2596416 C265.785606,98.6632049 260.993269,94.5251739 260.589706,89.0170906 C260.585684,88.9622016 260.582116,88.9072804 260.579001,88.8523325 Z" id="Path-2" stroke="#38326B" stroke-width="2" stroke-dasharray="6"></path>
                    </g>
                </g>
            </g>
        </g>
    </g>
</svg>