<?xml version="1.0" encoding="UTF-8"?>
<svg width="30px" height="35px" viewBox="0 0 30 35" version="1.1" xmlns="http://www.w3.org/2000/svg" xmlns:xlink="http://www.w3.org/1999/xlink">
    <title>Snapshot-icon-purple</title>
    <g id="Snapshot-icon-purple" stroke="none" stroke-width="1" fill="none" fill-rule="evenodd">
        <polygon id="Polygon" fill="#8863ED" transform="translate(15.000000, 19.000000) rotate(-90.000000) translate(-15.000000, -19.000000) " points="15 11 22 15.0131391 22 23.0394172 14.7478883 27 8 23.0394172 8 15.0131391"></polygon>
        <polygon id="Path-4" fill="#8863ED" points="16.7784541 2 27 8 13 8"></polygon>
        <polyline id="Path-4" fill="#8863ED" transform="translate(29.323972, 16.124525) rotate(-300.000000) translate(-29.323972, -16.124525) " points="25.8736197 13.163953 36.060848 19.0850978 22.5870958 19.0773502"></polyline>
        <polyline id="Path-4" fill="#8863ED" transform="translate(24.318500, 29.781376) rotate(-240.000000) translate(-24.318500, -29.781376) " points="20.9385365 26.7956598 30.9849868 32.7670922 17.6520126 32.709057"></polyline>
        <polygon id="Path-4" fill="#8863ED" transform="translate(10.500000, 32.000000) rotate(-180.000000) translate(-10.500000, -32.000000) " points="7.30059016 29 17 35 4 35"></polygon>
        <polygon id="Path-4" fill="#8863ED" transform="translate(0.669979, 21.072026) rotate(-120.000000) translate(-0.669979, -21.072026) " points="-2.64509977 18.1581484 7.40497395 23.9859036 -6.06501655 23.9859036"></polygon>
        <polygon id="Path-4" fill="#8863ED" transform="translate(5.626568, 7.480520) rotate(-60.000000) translate(-5.626568, -7.480520) " points="2.31148947 4.56664225 12.3615632 10.3943975 -1.1084273 10.3943975"></polygon>
    </g>
</svg>