<?xml version="1.0" encoding="UTF-8"?>
<svg width="102px" height="129px" viewBox="0 0 102 129" version="1.1" xmlns="http://www.w3.org/2000/svg" xmlns:xlink="http://www.w3.org/1999/xlink">
    <title>4FFBF65D-E167-4DC0-A893-4EEF5E45D62A</title>
    <g id="Original" stroke="none" stroke-width="1" fill="none" fill-rule="evenodd">
        <g id="Dashboard---No-Backups-/-No-Snapshot-Key" transform="translate(-228.000000, -97.000000)">
            <g id="Backups-Widget---No-Key" transform="translate(190.000000, 60.000000)">
                <g id="Notification">
                    <g id="Graphic" transform="translate(30.000000, 30.000000)">
                        <g id="Notification-graphic" transform="translate(8.000000, 7.000000)">
                            <g id="Front_Stance" transform="translate(66.000000, 37.000000)">
                                <path d="M0.754615385,0.301984733 C0.754615385,0.301984733 4.29230769,-0.200152672 6.38307692,0.301984733 C7.92692308,0.674198473 19.3153846,3.57114504 17.1138462,15.0254962 C14.9123077,26.4798473 7.37307692,29.6928244 2.81076923,28.2531298 L0.754615385,0.301984733 Z" id="Path" fill="#8D745A"></path>
                                <path d="M3.39230769,25.4334351 C3.39230769,25.4334351 6.06461538,35.2233588 9.69230769,40.6239695 C13.32,46.0245802 17.3353846,45.2134351 18.5088462,49.4025954 C21.7488462,47.1763359 25.4319231,43.8264122 25.6015385,33.190229 C25.7711538,22.5540458 18.6784615,15.1343511 13.7215385,12.1952672 C8.76461538,9.25618321 3.39230769,25.4334351 3.39230769,25.4334351 Z" id="Path" fill="#8D745A"></path>
                                <path d="M14.4692308,43.5033588 C14.4692308,43.5033588 12.1015385,48.2859542 12.8284615,54.9612214 C13.5553846,61.6364885 22.0396154,67.9535878 23.4657692,75.3838168 C22.7284615,76.7462595 18.9657692,80.5561832 18.9657692,80.5561832 L17.8096154,83.8534351 C17.5646113,84.5723613 17.9283033,85.3584909 18.63,85.6267176 L19.3742308,85.9006107 L22.2680769,85.2439695 C22.2680769,85.2439695 20.3607692,85.5073282 20.4334615,86.4940458 C20.5061538,87.4807634 22.7388462,90.8131298 23.4726923,91.6032061 C24.2065385,92.3932824 26.2003846,91.8419847 27.3426923,90.4619847 C27.6079856,90.7223591 27.949214,90.8886582 28.3153846,90.9360305 C28.3153846,90.9360305 29.6411538,90.2829008 30.1673077,89.7175573 C30.5593641,89.9801458 31.0108314,90.1372356 31.4792308,90.1740458 L33.2273077,89.1206107 C33.2273077,89.1206107 34.2103846,87.8916031 34.5357692,87.9232061 C34.8611538,87.9548092 35.3803846,86.7714504 35.5742308,86.0726718 C35.7680769,85.3738931 36.0276923,83.9131298 35.7473077,82.8351145 C35.4669231,81.7570992 33.5215385,73.7650382 32.9123077,71.3456489 C32.9607692,68.2099237 32.0573077,40.9048855 23.9815385,40.3992366 C15.9057692,39.8935878 14.4692308,43.5033588 14.4692308,43.5033588 Z" id="Path" fill="#8D745A"></path>
                                <path d="M23.7530769,53.5566412 C25.3280769,48.6406107 24.3692308,43.6578626 24.0196154,42.4674809 C23.6734615,41.3508397 24.2896154,39.6583206 24.3103846,38.460916 C24.3122778,35.2606909 23.9921573,32.0686268 23.355,28.9343511 C22.8115385,25.9987786 20.8384615,23.0526718 19.2461538,20.5806107 C18.5538462,19.4780153 17.4115385,18.6422901 16.5842308,17.6309924 C15.6219231,16.4581679 15.5284615,15.1378626 15.0092308,13.7894656 C14.1923077,11.6580153 12.06,9.95145038 10.1007692,11.6369466 C9.225,12.3919084 8.61576923,14.3126718 7.38,14.3758779 C4.91818438,14.3672277 2.46335171,14.1096178 0.0519230769,13.6068702 L0.744230769,27.919542 C1.09038462,28.1161832 2.025,28.2285496 2.82115385,28.270687 C4.25769231,31.1500763 7.13076923,36.7719084 9.72692308,40.6415267 C10.8359382,42.318949 12.2822141,43.7394083 13.9707692,44.8096183 C12.8491216,48.0758129 12.4623599,51.5552666 12.8388462,54.9928244 C13.5519231,61.5522137 21.7384615,67.7464122 23.3826923,75.0080916 C24.9403846,74.4357252 24.5838462,75.1415267 26.2903846,75.0080916 C28.35,74.8219847 21.2746154,64.2349618 23.7530769,53.5566412 Z" id="Path" fill="#592484"></path>
                                <path d="M22.4723077,89.8053435 C21.7107692,88.8993893 21.2746154,87.5439695 20.4576923,86.7047328 C20.7346154,87.8459542 22.7388462,90.8236641 23.4242308,91.5610687 C24.1096154,92.2984733 25.8057692,91.8735878 26.955,90.7429008 C25.4276458,91.5258145 23.5698307,91.1372516 22.4723077,89.8053435 L22.4723077,89.8053435 Z" id="Path" fill="#645148"></path>
                                <path d="M34.3315385,87.930229 C34.6534615,87.9583206 35.1657692,86.7925191 35.37,86.1042748 L35.37,86.058626 C35.1,86.3535878 34.8403846,86.6555725 34.5565385,86.9224427 C34.1826923,87.2735878 33.7257692,87.3754198 33.3346154,87.6528244 C32.4726923,88.2673282 32.1507692,89.879084 30.7176923,89.0574046 L30.6865385,89.0574046 C30.6450864,89.017287 30.5877879,88.9986683 30.5310726,89.0068873 C30.4743574,89.0151063 30.4244899,89.0492552 30.3957692,89.099542 L30.1776923,89.4261069 C30.0980769,89.5454962 30.0253846,89.6648855 29.9526923,89.7772519 C29.9263939,89.7721307 29.8993753,89.7721307 29.8730769,89.7772519 C29.2153846,89.9458015 28.6407692,90.4619847 27.9346154,90.0827481 C27.5884615,89.9001527 27.3530769,89.9949618 27.2596154,90.4338931 C27.2596154,90.4338931 27.2596154,90.4549618 27.2596154,90.4654962 C27.5170909,90.7135095 27.8455828,90.8721311 28.1976923,90.9184733 C28.1976923,90.9184733 29.5061538,90.2758779 30.0253846,89.7175573 C30.4117964,89.974311 30.8559615,90.1277221 31.3165385,90.1635115 L33.0473077,89.1100763 C33.0473077,89.1100763 34.0096154,87.898626 34.3315385,87.930229 Z" id="Path" fill="#645148"></path>
                                <path d="M21.42,86.2096183 C22.05,86.0375573 22.7042308,85.9006107 23.31,86.2096183 L23.3411538,86.2096183 C23.3378399,86.2575493 23.3378399,86.3056568 23.3411538,86.3535878 C23.3325117,86.5278797 23.3325117,86.702502 23.3411538,86.8767939 C23.3844935,87.2246373 23.4669536,87.5663027 23.5869231,87.8951145 C23.7046154,88.2743511 24.1753846,88.0636641 24.0507692,87.7019847 C23.8992813,87.3193374 23.7833924,86.9231604 23.7046154,86.518626 C23.6803846,86.371145 23.67,86.2061069 23.6388462,86.0516031 C23.6388462,86.0516031 23.6388462,86.0305344 23.6388462,86.0235115 C24.6773077,86.3219847 25.6396154,86.7714504 26.6711538,87.0769466 C26.9723077,87.1612214 27.0969231,86.6871756 26.8130769,86.5853435 C26.5292308,86.4835115 26.2696154,86.3887023 25.9996154,86.2974046 C25.998793,86.2507259 25.9719698,86.2085505 25.9303846,86.1885496 C25.1065385,85.8374046 24.6461538,85.2580153 24.9092308,84.2958779 C25.0476923,83.7937405 25.4180769,83.4496183 25.6015385,82.9861069 C25.8161538,82.4242748 25.1619231,82.1749618 25.2553846,81.630687 C25.2830769,81.4691603 25.0892308,81.2268702 24.9438462,81.4164885 C24.7215962,81.7473755 24.518187,82.0908882 24.3346154,82.4453435 C24.1521619,82.7055938 23.938176,82.9415409 23.6976923,83.1476336 C23.6724352,83.1439838 23.6467956,83.1439838 23.6215385,83.1476336 C23.1403846,83.1476336 22.6626923,83.1476336 22.1815385,83.1476336 C21.8734615,83.1651908 21.5653846,83.2038168 21.2573077,83.221374 C21.1188462,83.221374 20.6861538,83.3372519 20.6688462,83.3337405 C19.7861538,83.1335878 19.3465385,81.5464122 19.0730769,80.8160305 C19.056862,80.7576488 19.0077827,80.7147767 18.9484615,80.7071756 L17.8407692,83.9236641 C17.7183255,84.2654317 17.7349048,84.6425674 17.8868518,84.9719221 C18.0387989,85.3012767 18.3136363,85.5558049 18.6507692,85.6793893 L19.3811538,85.949771 L21.645,85.4370992 C21.0980769,85.598626 20.3815385,85.9287023 20.4265385,86.5396947 C20.4319126,86.5823192 20.4400065,86.6245452 20.4507692,86.6661069 C20.7480145,86.4629042 21.0751577,86.3088262 21.42,86.2096183 L21.42,86.2096183 Z" id="Path" fill="#645148"></path>
                            </g>
                            <g id="Hop">
                                <path d="M44.8533138,21.0455607 C44.8749279,21.0017212 44.8924515,20.9559649 44.9056598,20.9088785 C44.9730911,20.8581843 45.014127,20.7796247 45.0173314,20.6950935 C45.0173314,20.6950935 45.0173314,20.6705607 45.0173314,20.6600467 C45.0388074,20.458067 45.0173983,20.2538096 44.9545161,20.0607477 L44.9545161,20.0607477 C45.2441642,19.7102804 46.0642522,18.4275701 45.1394721,18.3574362 C44.7809417,18.3550728 44.429828,18.4600036 44.1309384,18.6588785 C43.8098827,19.0093458 44.1065103,19.6261682 44.0890616,20.0607477 C44.0678381,20.1387572 44.0678381,20.2210559 44.0890616,20.2990654 C44.0952725,20.3374707 44.115104,20.3723244 44.1448974,20.3971963 C44.0681444,20.5473269 44.0354668,20.7162758 44.0506745,20.8843458 C44.0580214,20.9675255 44.0780292,21.0490813 44.11,21.1261682 C44.0438731,21.2478921 44.0012483,21.3810702 43.9843695,21.5186916 C43.7121701,22.0303738 43.4399707,22.6226636 44.1204692,22.8154206 C44.5217889,22.9310748 45.9700293,23.0817757 45.921173,22.3457944 C45.8932551,22.0794393 45.3104692,21.3785047 44.8533138,21.0455607 Z" id="Path" fill="#3B275D"></path>
                                <path d="M44.1693255,19.5700935 C43.8207982,19.5450281 43.470932,19.5450281 43.1224047,19.5700935 C42.8257771,19.5700935 42.5221701,19.5700935 42.2290323,19.5700935 L42.2290323,19.5700935 C41.9568328,19.5315421 41.5939003,19.478972 41.4578006,19.7313084 C41.3217009,19.9836449 41.4578006,20.5794393 41.5659824,20.8422897 C41.7020821,21.171729 41.914956,21.192757 42.2464809,21.192757 C42.5780059,21.192757 43.0595894,21.1682243 43.4609091,21.1331776 C43.6316871,21.1707994 43.8060417,21.1896021 43.9808798,21.1892523 C44.4240762,21.1682243 44.4345455,20.6565421 44.4729326,20.3025701 C44.5113196,19.9485981 44.5427273,19.6261682 44.1693255,19.5700935 Z" id="Path" fill="#666666"></path>
                                <path d="M21.8803812,37.9521028 C21.5,37.8504673 17.1378299,32.6214953 15.6302639,25.3633178 C14.1226979,18.1051402 17.8567155,14.817757 17.8567155,14.817757 C17.8567155,14.817757 16.7190616,8.85981308 26.1727566,5.87383178 C35.6264516,2.88785047 40.4527566,1.40186916 41.6846334,0.15771028 C43.0456305,1.26518692 42.8746334,10.521028 36.4500293,12.3294393 C30.0254252,14.1378505 21.8803812,37.9521028 21.8803812,37.9521028 Z" id="Path" fill="#FAF139"></path>
                                <path d="M38.5717889,8.06074766 C36.8583284,8.65654206 35.1867449,8.18691589 33.4348974,8.07827103 C31.7479946,7.95654637 30.0543481,8.18930052 28.4620235,8.76168224 C26.9618,9.27800156 25.5494399,10.0226644 24.2743402,10.9696262 C23.6636364,11.4357477 23.1227273,12.021028 22.5608798,12.5292056 C22.2817009,12.7885514 21.4825513,13.8925234 20.9625806,14.2044393 C20.9002333,14.2007407 20.8401117,14.228305 20.8020528,14.2780374 C20.7662899,14.2846184 20.7296339,14.2846184 20.693871,14.2780374 C20.6205865,14.2780374 20.6031378,14.3936916 20.6729326,14.4147196 L20.7322581,14.4147196 C20.718998,14.4740209 20.7310747,14.5361889 20.7655572,14.5861362 C20.8000397,14.6360835 20.8537759,14.669244 20.9137243,14.6775701 C21.2626979,14.7371495 20.9800293,17.2990654 20.9137243,17.625 C20.7741349,18.546729 20.6240762,19.5911215 20.191349,20.4287383 C20.125044,20.5549065 20.2122874,20.7792056 20.376305,20.7126168 C21.248739,20.4567757 21.552346,20.2114486 21.7442815,19.2827103 C21.9606452,18.2313084 22.0723167,17.0992991 22.4422287,16.0619159 C22.8248405,14.8588267 23.7047117,13.8794196 24.8571261,13.3738318 C25.9494848,12.8324693 27.0927707,12.4016085 28.270088,12.0876168 C30.8524927,11.4778037 33.7140762,11.6775701 36.2964809,12.1682243 C37.1933431,12.3399533 37.5283578,12.4450935 37.908739,11.5794393 C38.3228836,10.5596298 38.6429552,9.5037996 38.8649267,8.42523364 C38.9033138,8.25350467 38.7741935,8.00116822 38.5717889,8.06074766 Z" id="Path" fill="#FBE039"></path>
                                <path d="M18.4639296,27.2242991 C18.4639296,27.2242991 16.8970381,33.4485981 19.0222874,34.8890187 C21.1475367,36.3294393 23.0703812,29.088785 23.0703812,29.088785 C23.0703812,29.088785 21.1405572,25.0303738 21.0393548,24.8831776 C20.9381525,24.7359813 18.4639296,27.2242991 18.4639296,27.2242991 Z" id="Path" fill="#D1AF8B"></path>
                                <path d="M22.2328446,27.3574766 C21.0761217,27.3474435 19.9964272,27.9386475 19.3782405,28.9205607 C18.961272,29.5482106 18.6104122,30.2176976 18.3313196,30.9182243 C18.2056891,31.2301402 18.1882405,31.6997664 17.8392669,32.1378505 L17.8392669,32.1378505 C17.8584261,32.284275 17.8863951,32.4294004 17.9230205,32.5724299 C17.9230205,32.6004673 18.0242229,32.6285047 18.0277126,32.6600467 C18.0451613,32.8002336 17.8392669,32.9404206 18.1882405,33.0735981 L18.1882405,33.0735981 C18.2169188,32.84089 18.2841513,32.6146378 18.3871554,32.4042056 C18.5407038,32.0852804 18.6349267,31.7488318 18.7605572,31.4123832 C19.0754286,30.680891 19.4673474,29.9853415 19.9296188,29.3376168 C20.2087977,28.9626168 20.3658358,28.6366822 20.8020528,28.4369159 C21.2587524,28.2457236 21.7529016,28.1618141 22.2468035,28.1915888 L22.6341642,28.1915888 L22.2328446,27.3574766 Z" id="Path" fill="#AE8E6E"></path>
                                <path d="M1.12343109,70.3668224 C1.12343109,70.3668224 -0.272463343,75.8376168 4.80510264,80.625 C6.44876833,82.0268692 4.1629912,85.7313084 11.1529326,99.6834112 C14.6670968,105.350467 20.9765396,112.261682 20.9765396,112.261682 C20.9765396,112.261682 25.1048974,108.977804 25.1642229,108.133178 C25.2235484,107.288551 20.9765396,80.625 20.9765396,80.625 L7.32120235,65.432243 C7.32120235,65.432243 2.52979472,62.7021028 1.12343109,70.3668224 Z" id="Path" fill="#3B275D"></path>
                                <path d="M23.6357185,104.621495 C22.8784457,100.853972 20.6589736,95.6320093 19.9470674,93.5922897 C19.2351613,91.5525701 17.8985924,87.6343458 17.8985924,87.6343458 C17.8985924,87.6343458 12.4929912,84.4450935 7.99821114,75.5747664 C5.70545455,72.728972 1.12343109,70.3528037 1.12343109,70.3528037 C1.12343109,70.3528037 1.91909091,63.8516355 6.32313783,61.5911215 L9.14982405,60.760514 C9.14982405,60.760514 13.7492962,51.7114486 30.2627273,46.8084112 C46.7761584,41.9053738 41.59739,40.5 53.6439589,41.067757 C63.0662463,38.614486 75.0011437,32.057243 80.8639003,44.4287383 C78.7281818,45.921729 69.9968622,56.1063084 69.5920528,62.9228972 C69.1872434,69.739486 64.4167742,75.8901869 62.3473607,78.2803738 C60.2779472,80.6705607 60.7595308,93.9848131 61.1085044,94.4684579 C63.4570968,97.0303738 67.2399707,102.476636 66.4792082,112.261682 C65.7184457,122.046729 37.908739,110.83528 37.908739,110.83528 L23.6357185,104.621495 Z" id="Path" fill="#8D745A"></path>
                                <path d="M42.7769208,50.3691589 C43.6842522,49.896028 44.3368328,48.7885514 44.8323754,47.9334112 C45.4919355,46.7908879 46.2771261,45.728972 46.859912,44.5408879 C47.1474508,43.9503892 47.3867044,43.3373882 47.5753079,42.7079439 C47.7218768,42.2348131 48.1057478,41.4988318 48.1336657,40.9836449 C44.6439296,41.1343458 43.7086804,41.9123832 39.7827273,43.5315421 C39.1161877,44.432243 38.4496481,45.3259346 37.7412317,46.1915888 C37.2910557,46.7418224 36.8094721,47.2675234 36.3453372,47.817757 C36.1289736,48.0806075 35.9265689,48.353972 35.7241642,48.6308411 C35.7416129,48.6098131 35.3751906,49.1985981 35.3751906,49.1950935 C35.3179348,49.2072612 35.275391,49.2556839 35.2704985,49.3142523 C35.2560436,49.3045745 35.2365135,49.3084972 35.2268768,49.323014 C35.2172402,49.3375309 35.2211462,49.3571445 35.2356012,49.3668224 C35.2504559,49.3847777 35.2681387,49.4001683 35.2879472,49.4123832 C35.3107668,49.4732372 35.3749368,49.5077077 35.4380059,49.4929907 L35.4380059,49.4929907 C35.6213572,49.4996295 35.8016068,49.5425029 35.9684457,49.6191589 C35.9981807,49.6413755 36.0365445,49.6483624 36.0721539,49.6380465 C36.1077634,49.6277306 36.1365277,49.6012969 36.149912,49.5665888 C37.339912,49.692757 38.4880352,50.0397196 39.6570968,50.2675234 C40.7284457,50.4672897 41.7718768,50.8913551 42.7769208,50.3691589 Z" id="Path" fill="#7F6754"></path>
                                <path d="M21.6744868,49.4404206 C21.6744868,49.4404206 18.7256598,50.5514019 19.0467155,52.1705607 C19.3677713,53.7897196 19.940088,54.3714953 22.9587097,57.5186916 C25.9773314,60.6658879 26.6508504,63.5327103 27.7082405,63.1997664 C28.7656305,62.8668224 29.3379472,60.2207944 32.6287683,57.213785 C35.9195894,54.2067757 45.0138416,43.6507009 46.2736364,42.3329439 C47.5334311,41.0151869 44.0751026,40.7838785 43.4295015,40.8785047 C42.7839003,40.9731308 21.6744868,49.4404206 21.6744868,49.4404206 Z" id="Path" fill="#3F4149"></path>
                                <path d="M43.4295015,40.8785047 C43.3073607,40.8785047 42.4558651,41.228972 41.1541935,41.7126168 C41.0041349,41.8948598 40.857566,42.0630841 40.7144868,42.2663551 C39.7373607,43.5841121 38.781173,44.9193925 37.7412317,46.1915888 C37.2910557,46.7418224 36.8094721,47.2675234 36.3453372,47.817757 C36.1289736,48.0806075 35.9265689,48.353972 35.7241642,48.6308411 C35.7416129,48.6098131 35.3751906,49.1985981 35.3751906,49.1950935 C35.3179348,49.2072612 35.275391,49.2556839 35.2704985,49.3142523 C35.2560436,49.3045745 35.2365135,49.3084972 35.2268768,49.323014 C35.2172402,49.3375309 35.2211462,49.3571445 35.2356012,49.3668224 C35.2504559,49.3847777 35.2681387,49.4001683 35.2879472,49.4123832 C35.3107668,49.4732372 35.3749368,49.5077077 35.4380059,49.4929907 L35.4380059,49.4929907 C35.6213572,49.4996295 35.8016068,49.5425029 35.9684457,49.6191589 C35.9981807,49.6413755 36.0365445,49.6483624 36.0721539,49.6380465 C36.1077634,49.6277306 36.1365277,49.6012969 36.149912,49.5665888 C37.196626,49.7175956 38.2345574,49.9246665 39.2592669,50.1869159 C42.4488856,46.6401869 45.5582405,43.0689252 46.2561877,42.3364486 C47.5334311,41.0046729 44.0751026,40.7838785 43.4295015,40.8785047 Z" id="Path" fill="#292D3B"></path>
                                <path d="M69.5920528,62.9334112 C69.6932551,61.2301402 70.3144282,59.3165888 71.2252493,57.3785047 C71.2150847,57.3700628 71.2057372,57.3606753 71.1973314,57.3504673 C70.5203226,56.603972 69.7107038,55.3212617 68.531173,55.8224299 C67.5156598,56.2535047 66.8875073,57.6728972 66.3814956,58.5771028 C66.032522,59.1728972 65.6835484,59.8107477 65.0553959,60.1542056 C64.1724927,60.6448598 62.8568622,60.4310748 61.8797361,60.4240654 C59.9429326,60.4240654 57.9153959,60.2453271 55.9855718,60.4626168 C53.9419696,60.6423013 51.9131201,60.9631543 49.9134311,61.4228972 C48.0289736,61.8995327 46.0747214,62.1238318 44.2251613,62.7651869 C43.4624514,63.0334167 42.7282963,63.3774106 42.033607,63.7920561 C41.175132,64.2897196 40.288739,64.682243 39.3988563,65.1343458 C37.7272727,65.989486 36.2580938,67.1845794 34.6039589,68.0607477 C33.836217,68.463785 32.9951906,68.7126168 32.2483871,69.1366822 C31.4340489,69.6257529 30.6540133,70.1702508 29.9137537,70.7663551 C28.994487,71.4546435 27.9553596,71.9645453 26.8497654,72.2698598 C25.8447214,72.5607477 24.8222287,72.6904206 23.8520821,73.1004673 C22.7109384,73.5771028 21.618651,74.1518692 20.4635484,74.6179907 C19.5108004,74.9874755 18.5879233,75.4303841 17.7031672,75.942757 C15.6791202,77.1378505 13.6760117,78.396028 11.6798827,79.6401869 C11.3658065,79.8364486 11.0552199,80.036215 10.7481232,80.2359813 C14.4367742,85.6016355 17.8985924,87.6483645 17.8985924,87.6483645 C17.8985924,87.6483645 19.238651,91.5490654 19.9470674,93.6063084 C21.0389337,97.0590685 21.9429479,100.568928 22.6551026,104.120327 L31.7947214,108.911215 C38.1216129,108.273364 44.0087977,116.067757 50.311261,115.300234 C55.6226393,114.655374 60.9340176,114.016355 66.2453959,113.383178 C66.361889,113.019045 66.4368171,112.642801 66.468739,112.261682 C67.2295015,102.476636 63.4466276,97.0303738 61.0980352,94.4684579 C60.7490616,93.9848131 60.2744575,80.6740654 62.343871,78.2908879 C64.4132845,75.9077103 69.1907331,69.7429907 69.5920528,62.9334112 Z" id="Path" fill="#592484"></path>
                                <path d="M55.1759531,78.9007009 C46.6191202,81.6588785 40.9482991,79.0093458 28.9191789,83.646028 C25.558563,86.3831776 23.6461877,90.7780374 21.8559531,90.0981308 C20.0657185,89.4182243 17.0785044,89.1553738 21.0009677,86.5408879 C24.9234311,83.9264019 30.0463636,78.3925234 41.9393842,77.1273364 C53.8324047,75.8621495 62.1554252,76.6436916 55.1759531,78.9007009 Z" id="Path" fill="#592484"></path>
                                <g id="Group" transform="translate(20.627566, 63.785047)">
                                    <polygon id="Path" fill="#7F664E" points="5.88020528 2.80373832 6.23964809 2.98948598 1.93331378 7.78738318 1.57387097 7.60864486"></polygon>
                                    <polygon id="Path" fill="#8C7156" points="1.57387097 7.60864486 1.93331378 7.78738318 4.01668622 10.1880841 3.6572434 10.0058411"></polygon>
                                    <polygon id="Path" fill="#491D6C" points="5.88020528 2.80373832 3.6572434 10.0058411 1.57387097 7.60864486"></polygon>
                                    <polygon id="Path" fill="#512178" points="5.88020528 2.80373832 6.23964809 2.98948598 4.01668622 10.1880841 3.6572434 10.0058411"></polygon>
                                    <polygon id="Path" fill="#917559" points="8.20087977 1.39135514 8.55683284 1.5771028 7.44709677 5.17990654 7.0911437 4.99415888"></polygon>
                                    <polygon id="Path" fill="#9C7E60" points="1.17953079 10.4053738 1.53897361 10.5841121 2.50912023 16.6051402 2.14967742 16.4264019"></polygon>
                                    <polygon id="Path" fill="#917559" points="6.35131965 7.39836449 6.70727273 7.58060748 5.40909091 11.7932243 5.05313783 11.6109813"></polygon>
                                    <polygon id="Path" fill="#4F2074" points="1.17953079 10.4053738 1.53897361 10.5841121 5.71618768 15.4135514 5.35674487 15.2348131"></polygon>
                                    <polygon id="Path" fill="#381753" points="5.35674487 15.2348131 5.71618768 15.4135514 2.50912023 16.6051402 2.14967742 16.4264019"></polygon>
                                    <polygon id="Path" fill="#64513E" points="10.1097654 5.99299065 10.4657185 6.17873832 6.70727273 7.58060748 6.35131965 7.39836449"></polygon>
                                    <polygon id="Path" fill="#8C7156" points="5.05313783 11.6109813 5.40909091 11.7932243 7.84841642 14.5969626 7.49246334 14.4182243"></polygon>
                                    <polygon id="Path" fill="#504031" points="13.540176 2.56191589 13.8926393 2.74766355 8.55683284 1.5771028 8.20087977 1.39135514"></polygon>
                                    <polygon id="Path" fill="#381754" points="13.540176 2.56191589 13.8926393 2.74766355 7.44709677 5.17990654 7.0911437 4.99415888"></polygon>
                                    <polygon id="Path" fill="#31204F" points="10.1062757 5.98598131 10.4622287 6.17172897 12.9922874 9.04906542 12.6363343 8.86682243"></polygon>
                                    <polygon id="Path" fill="#65513E" points="15.4979179 3.9567757 15.853871 4.14252336 12.6119062 5.36214953 12.2594428 5.17640187"></polygon>
                                    <polygon id="Path" fill="#231739" points="11.331173 13.0163551 11.6871261 13.1950935 7.85888563 14.6179907 7.49944282 14.4392523"></polygon>
                                    <polygon id="Path" fill="#332253" points="12.6363343 8.86682243 12.9922874 9.04906542 11.6871261 13.1950935 11.331173 13.0163551"></polygon>
                                    <polygon id="Path" fill="#64503D" points="10.5634311 15.4450935 10.9193842 15.6238318 4.43894428 18.0245327 4.07950147 17.8492991"></polygon>
                                    <polygon id="Path" fill="#2D1242" points="9.41879765 19.0864486 9.77475073 19.2616822 4.43894428 18.0245327 4.07950147 17.8492991"></polygon>
                                    <polygon id="Path" fill="#491D6C" points="10.5634311 15.4450935 9.41879765 19.0864486 4.07950147 17.8492991"></polygon>
                                    <polygon id="Path" fill="#512178" points="10.5634311 15.4450935 10.9193842 15.6238318 9.77475073 19.2616822 9.41879765 19.0864486"></polygon>
                                    <polygon id="Path" fill="#2E1E4A" points="10.1062757 5.98598131 12.6363343 8.86682243 11.331173 13.0163551 7.49944282 14.4392523 5.05313783 11.6109813 6.35131965 7.39836449"></polygon>
                                    <polygon id="Path" fill="#917459" points="14.0531672 10.4719626 14.4056305 10.6542056 12.1407918 17.8457944 11.7848387 17.6705607"></polygon>
                                    <polygon id="Path" fill="#8A6F55" points="12.2594428 5.17640187 12.6119062 5.36214953 16.8763636 10.1950935 16.5239003 10.0128505"></polygon>
                                    <polygon id="Path" fill="#572381" points="15.4979179 3.9567757 15.853871 4.14252336 16.8763636 10.1950935 16.5239003 10.0128505"></polygon>
                                    <polygon id="Path" fill="#491D6C" points="14.0531672 10.4719626 16.1365396 12.8481308 11.7848387 17.6705607"></polygon>
                                    <polygon id="Path" fill="#4D1F73" points="14.0531672 10.4719626 14.4056305 10.6542056 16.4890029 13.0268692 16.1365396 12.8481308"></polygon>
                                    <polygon id="Path" fill="#471D69" points="16.1365396 12.8481308 16.4890029 13.0268692 12.1407918 17.8457944 11.7848387 17.6705607"></polygon>
                                    <path d="M15.9341349,2.22546729 L7.20979472,0.318925234 L0.230322581,8.12733645 L0.181466276,8.16588785 L1.78674487,18.161215 L10.3051906,20.2640187 L17.6336364,12.1401869 L15.9341349,2.22546729 Z M16.5239003,10.0128505 L12.2594428,5.17640187 L15.5014076,3.9567757 L16.5239003,10.0128505 L16.5239003,10.0128505 Z M8.20087977,1.40186916 L13.540176,2.57242991 L7.0911437,5.0046729 L8.20087977,1.40186916 L8.20087977,1.40186916 Z M5.88020528,2.80373832 L3.6572434,10.0058411 L1.56340176,7.60864486 L5.88020528,2.80373832 L5.88020528,2.80373832 Z M1.17953079,10.4053738 L5.36721408,15.2348131 L2.16014663,16.4264019 L1.19,10.4053738 L1.17953079,10.4053738 Z M9.42577713,19.0969626 L4.08997067,17.8492991 L10.5739003,15.4485981 L9.42228739,19.0969626 L9.42577713,19.0969626 Z M7.50642229,14.4392523 L5.06360704,11.6109813 L6.36178886,7.40537383 L10.1167449,6.00350467 L12.6468035,8.88434579 L11.3416422,13.0338785 L7.50293255,14.4567757 L7.50642229,14.4392523 Z M11.7883284,17.6880841 L14.0566569,10.489486 L16.1504985,12.8656542 L11.7987977,17.6880841 L11.7883284,17.6880841 Z" id="Shape" fill="#826850" fill-rule="nonzero"></path>
                                    <polygon id="Path" fill="#491D6C" points="1.17953079 10.4053738 2.14967742 16.4264019 5.35674487 15.2348131"></polygon>
                                    <polygon id="Path" fill="#491D6C" points="8.20087977 1.39135514 13.540176 2.56191589 7.0911437 4.99415888"></polygon>
                                    <polygon id="Path" fill="#504031" points="10.2807625 20.260514 10.6402053 20.4357477 2.12524927 18.3364486 1.76231672 18.161215"></polygon>
                                    <polygon id="Path" fill="#491D6C" points="15.4979179 3.9567757 16.5239003 10.0128505 12.2594428 5.17640187"></polygon>
                                    <polygon id="Path" fill="#7E664E" points="17.6161877 12.1366822 17.968651 12.3189252 10.6402053 20.4357477 10.2807625 20.260514"></polygon>
                                    <polygon id="Path" fill="#9C7D60" points="15.9341349 2.22546729 16.2865982 2.41471963 17.968651 12.3189252 17.6161877 12.1366822"></polygon>
                                </g>
                                <path d="M42.113871,43.8995327 L42.113871,43.8995327 C39.6361584,43.5946262 35.2076833,30.2908879 35.2076833,30.2908879 C35.2076833,30.2908879 21.1510264,37.7593458 20.6973607,42.6693925 C20.243695,47.5794393 20.9172141,50.3025701 20.9172141,50.3025701 C20.9730499,50.421729 22.6202053,55.4824766 27.4011437,58.5981308 C34.9354839,49.9836449 44.0785924,42.7570093 44.0785924,42.7570093 L42.113871,43.8995327 Z" id="Path" fill="#ECC19C"></path>
                                <path d="M27.4011437,58.5981308 C27.4779179,58.5070093 27.5581818,58.4193925 27.634956,58.3317757 C27.1429032,57.9287383 26.7066862,57.5011682 26.2041642,57.1016355 C25.3381736,56.4337948 24.581121,55.6344823 23.9602639,54.7324766 C23.5484751,54.0806075 23.1471554,53.3971963 22.756305,52.7313084 C22.756305,52.7313084 20.8229912,49.7453271 20.8543988,49.9941589 C20.8600755,50.1314305 20.8933114,50.266135 20.9521114,50.3901869 C21.2068622,51.0876168 22.9377713,55.692757 27.4011437,58.5981308 Z" id="Path" fill="#D1AF8B"></path>
                                <path d="M42.5849853,43.6261682 L42.113871,43.8995327 C41.8924046,43.85651 41.6863941,43.7548787 41.5171261,43.6051402 C41.279824,43.6401869 41.042522,43.6892523 40.8191789,43.7242991 C39.8629912,43.864486 38.913783,43.9766355 37.9506158,44.0747664 C36.0870968,44.2359813 34.2305572,44.4883178 32.3670381,44.646028 C30.5035191,44.8037383 28.6190616,44.8773364 26.7346041,44.8773364 C25.8987991,44.8335439 25.0612889,44.8335439 24.2254839,44.8773364 C23.5586403,44.8931649 22.8932901,44.9481655 22.2328446,45.0420561 C22.126459,45.0803792 22.0451419,45.1680722 22.014642,45.2773673 C21.9841421,45.3866624 22.0082366,45.5040239 22.0792962,45.5922897 C22.2254154,45.755845 22.396158,45.8953889 22.5853079,46.0058411 C23.0354839,46.4509346 23.7055132,46.6577103 24.2882991,46.875 C25.439912,47.3025701 26.6019941,47.6565421 27.7780352,48.0280374 C29.948651,48.728972 32.0599413,49.5876168 34.1817009,50.4007009 C34.4259824,50.4953271 34.7260997,50.625 35.040176,50.7336449 C38.2960997,47.635514 41.1786217,45.1787383 42.7734311,43.853972 C42.7642083,43.7459422 42.6890413,43.6550762 42.5849853,43.6261682 Z" id="Path" fill="#AE8E6E"></path>
                                <path d="M21.0219062,27.8095794 L20.5856891,44.2324766 L20.6450147,44.7231308 C20.6450147,44.7231308 19.4201173,46.2932243 28.5457771,46.4754673 C37.671437,46.6577103 41.8312023,45.4240654 42.972346,45.0735981 C44.1134897,44.7231308 46.859912,40.2932243 46.6854252,38.1273364 C46.5109384,35.9614486 41.7334897,27.9287383 39.9083578,20.4252336 C38.0832258,12.921729 37.7272727,10.5876168 36.0870968,9.31191589 C34.4469208,8.03621495 21.7617302,12.0070093 21.4022874,14.2990654 C21.4022874,19.0549065 20.5403226,19.3352804 20.1564516,21.5257009 C20.1286303,23.6521175 20.4203983,25.7705816 21.0219062,27.8095794 L21.0219062,27.8095794 Z" id="Path" fill="#ECC19C"></path>
                                <path d="M32.3635484,24.7009346 C32.9358651,23.9158879 33.4593255,23.0852804 34.0700293,22.3317757 C34.2830316,22.0443453 34.5162785,21.7726208 34.7679765,21.5186916 C35.1579277,21.213348 35.6019852,20.9850175 36.0766276,20.8457944 C36.2336657,20.7827103 36.2441349,20.4953271 36.0452199,20.4953271 C34.6493255,20.453271 33.6303226,21.921729 32.9602933,22.9836449 C32.4961584,23.7196262 31.9552493,24.4380841 31.4282991,25.135514 C30.8671841,25.7900439 30.2455577,26.3896881 29.5717595,26.9264019 C28.8354252,27.588785 28.0921114,28.328271 27.0591496,28.4509346 C26.2006745,28.5595794 25.2898534,28.3247664 24.4453372,28.1740654 C23.9742229,28.0899533 23.5065982,27.9497664 23.0494428,27.8235981 C23.141253,27.7803889 23.1941289,27.681966 23.1796775,27.5811799 C23.1652262,27.4803939 23.086847,27.4009527 22.9866276,27.385514 C22.3034615,27.2773064 21.6040671,27.3473039 20.9556012,27.588785 L21.0219062,27.8025701 L21.0219062,28.3563084 C21.4218497,28.2222558 21.843119,28.164024 22.2642522,28.1845794 L22.8260997,28.1845794 C23.0354839,28.2511682 23.2413783,28.317757 23.4542522,28.3703271 C24.1801173,28.5490654 24.9199413,28.6682243 25.6562757,28.7943925 C26.9962875,29.0521728 28.3790463,28.662824 29.3902933,27.7429907 C30.5064715,26.8604281 31.5056637,25.8381147 32.3635484,24.7009346 L32.3635484,24.7009346 Z" id="Path" fill="#D1AF8B"></path>
                                <path d="M23.9428152,18.1401869 C23.9428152,18.1401869 25.7400293,13.3843458 28.8842815,13.8294393 C29.6241056,13.0514019 27.7850147,11.5794393 26.7904399,11.5198598 C25.7958651,11.4602804 22.7981818,13.338785 23.9428152,18.1401869 Z" id="Path" fill="#D1AF8B"></path>
                                <path d="M34.3282698,12.9042056 C33.3790616,13.6577103 34.523695,9.95327103 35.2076833,9.66939252 C35.8916716,9.38551402 37.7726393,9.59579439 37.6504985,13.3703271 C37.2282405,13.8890187 35.7171848,11.807243 34.3282698,12.9042056 Z" id="Path" fill="#D1AF8B"></path>
                                <path d="M23.5938416,16.3878505 C23.5938416,16.3878505 25.3910557,11.6320093 28.5353079,12.0771028 C29.275132,11.2990654 27.4360411,9.8271028 26.4414663,9.76752336 C25.4468915,9.70794393 22.4492082,11.5864486 23.5938416,16.3878505 Z" id="Path" fill="#EEBF2D"></path>
                                <path d="M35.3751906,10.8014019 C34.4259824,11.5549065 35.5706158,7.85046729 36.2546041,7.56658879 C36.9385924,7.28271028 38.8195601,7.49299065 38.6974194,11.2675234 C38.2751613,11.786215 36.7641056,9.70443925 35.3751906,10.8014019 Z" id="Path" fill="#EEBF2D"></path>
                                <path d="M27.31739,34.7593458 C27.2958194,34.7060238 27.3028899,34.6453279 27.3361332,34.598446 C27.3693766,34.5515641 27.4241781,34.525004 27.4814076,34.5280374 C28.8214663,34.5 35.6962463,34.0864486 39.7931965,32.4988318 C40.3829619,32.2570093 39.719912,32.7616822 39.7548094,33.1997664 C39.7897067,33.6378505 40.1735777,37.1985981 38.9556598,38.2149533 C37.7377419,39.2313084 32.8067449,38.463785 30.9816129,37.7663551 C28.4620235,36.7990654 27.5721408,35.3235981 27.31739,34.7593458 Z" id="Path" fill="#3F4149"></path>
                                <path d="M38.9556598,33.0140187 C38.9556598,33.0140187 33.082434,34.7663551 27.819912,34.8084112 C27.7780352,35.0817757 29.1669501,37.5315421 34.2829032,38.3130841 C35.7441731,38.5590292 37.2398941,38.5053819 38.6799707,38.1553738 L38.5019941,35.9299065 L39.2383284,35.7441589 L38.9556598,33.0140187 Z" id="Path" fill="#F0F1F1"></path>
                                <path d="M39.8455425,29.4007009 C39.8801367,29.5594008 39.7801835,29.7162461 39.6221994,29.7511682 C38.5752786,29.9684579 35.0541349,30.6939252 34.8447507,30.4871495 C34.6353666,30.2803738 38.4601173,26.5969626 38.4601173,26.5969626 C38.4601173,26.5969626 38.0099413,23.6810748 37.9226979,23.603972 C37.8354545,23.5268692 36.0870968,20.6775701 36.0870968,20.6775701 C36.0870968,20.6775701 39.1720235,22.5035047 39.9083578,23.2640187 C40.5046056,23.9796763 41.0152652,24.7630592 41.4298827,25.5981308 C41.4298827,25.5981308 41.7125513,26.4672897 40.7005279,26.5829439 C40.2165005,26.6643768 39.7223558,26.6643768 39.2383284,26.5829439 L39.8455425,29.4007009 Z" id="Path" fill="#AE8E6E"></path>
                                <path d="M26.008739,33.171729 C25.6143988,33.5747664 28.071173,30.5257009 29.5857185,29.6915888 C30.5453959,29.2640187 31.7249267,28.9450935 31.6446628,29.0747664 C31.5643988,29.2044393 31.1875073,29.6845794 30.0673021,30.2908879 C28.9470968,30.8971963 28.018827,31.1285047 26.008739,33.171729 Z" id="Path" fill="#D1AF8B"></path>
                                <path d="M24.3127273,35.7686916 C24.3544584,36.496639 24.3381209,37.2267729 24.263871,37.9521028 C24.1452199,38.4042056 24.6826393,37.7978972 24.7629032,36.8621495 C24.8431672,35.9264019 24.2708504,35.3271028 24.3127273,35.7686916 Z" id="Path" fill="#D1AF8B"></path>
                                <path d="M30.716393,40.2091121 C29.948651,39.942757 34.9389736,41.0327103 36.0870968,40.8574766 C37.2352199,40.682243 38.0553079,40.6542056 38.529912,40.885514 C39.0045161,41.1168224 39.3116129,41.3936916 39.0080059,41.5058411 C38.7043988,41.6179907 36.9141642,41.2675234 34.8203226,41.239486 C32.7264809,41.2114486 31.6132551,40.521028 30.716393,40.2091121 Z" id="Path" fill="#D1AF8B"></path>
                                <path d="M36.0870968,20.6775701 C36.0870968,20.6775701 37.5772141,21.6974299 38.8300293,24.4450935 C39.5279765,25.3492991 41.3251906,25.9240654 42.113871,25.0794393 C42.9025513,24.2348131 41.9882405,23.2640187 41.9882405,23.2640187 C42.7612719,21.9862436 43.0718707,20.4798284 42.867654,18.9988318 C42.4802933,16.6331776 41.2100293,12.760514 40.2049853,12.3154206 C39.1999413,11.8703271 36.3662757,12.4345794 33.9513783,14.6425234 C33.452346,17.9158879 35.0541349,20.1378505 36.0870968,20.6775701 Z" id="Path" fill="#323643"></path>
                                <path d="M42.7490029,20.6775701 C41.7230205,21.3119159 40.4946334,21.8235981 39.3151026,21.760514 C39.0676625,21.6216071 38.8054464,21.511099 38.5334018,21.4310748 C38.4496481,21.4310748 38.226305,21.396028 37.9959824,21.3679907 C37.7771074,21.1943953 37.5853696,20.988842 37.4271554,20.7581776 C37.3745425,20.3715942 37.1849893,20.0169936 36.8932258,19.7593458 C36.5834117,19.1228975 36.2178775,18.5153665 35.8009384,17.9439252 C35.7369062,17.8722536 35.6386049,17.8421108 35.5456295,17.8656379 C35.452654,17.8891651 35.3803119,17.9624887 35.3577419,18.0560748 C35.2319124,18.2801931 35.2569031,18.559056 35.4205572,18.7570093 C35.4903519,18.8306075 35.5985337,18.8481308 35.6787977,18.9007009 C35.9166186,19.5581641 36.2392617,20.1814685 36.6384751,20.7546729 L36.7536364,20.9264019 L36.785044,20.989486 C36.7822109,21.0045396 36.7822109,21.0199931 36.785044,21.0350467 C36.7881743,21.1651331 36.8191179,21.293023 36.8757771,21.4100467 C36.9560411,21.4976636 37.0397947,21.5957944 37.1305279,21.7009346 C37.1500788,21.7169385 37.1711136,21.7310217 37.1933431,21.7429907 L37.3015249,21.911215 C37.3817889,22.0093458 37.4655425,22.1179907 37.5492962,22.2336449 C37.7970828,22.5348366 38.1162884,22.7686371 38.477566,22.9135514 C39.3876798,23.3293858 40.4438649,23.2650608 41.2972727,22.7418224 C41.8073783,22.3879087 42.2860884,21.9904031 42.7280645,21.5537383 C42.8180698,21.2206115 42.8810906,20.8807177 42.9165103,20.5373832 L42.7490029,20.6775701 Z" id="Path" fill="#292D3B"></path>
                                <g id="Group" transform="translate(34.935484, 11.915888)">
                                    <path d="M10.4133724,4.55607477 L8.09618768,5.73714953 C8.06388963,5.75494591 8.02821445,5.76569427 7.9914956,5.76869159 L10.3051906,4.58761682 C10.3431034,4.58511328 10.380019,4.57435 10.4133724,4.55607477" id="Path" fill="#493C2F"></path>
                                    <polygon id="Path" fill="#473A2D" points="10.3051906 4.59462617 7.9914956 5.77570093 7.70184751 5.81074766 10.0190323 4.6296729"></polygon>
                                    <path d="M8.15202346,1.12149533 L5.83832845,2.30257009 C5.86155765,2.26165947 5.89530479,2.22776788 5.93604106,2.20443925 L8.25322581,1.02686916 C8.21088624,1.0476226 8.1756562,1.08056337 8.15202346,1.12149533" id="Path" fill="#493C2F"></path>
                                    <polygon id="Path" fill="#4A3D2F" points="7.96357771 1.38785047 5.64639296 2.56892523 5.83832845 2.30257009 8.1555132 1.12149533"></polygon>
                                    <path d="M8.17296188,8.12733645 L5.85577713,9.30490654 C7.02134897,8.71261682 7.62158358,7.22313084 7.25167155,5.5864486 C6.78404692,3.59579439 5.03219941,2.14135514 3.32920821,2.34462617 C3.03616165,2.37787463 2.751364,2.46332358 2.48818182,2.59696262 L4.79140762,1.40186916 C5.05458981,1.26823012 5.33938745,1.18278117 5.63243402,1.14953271 C7.33542522,0.946261682 9.08727273,2.40070093 9.55489736,4.39485981 C9.93876833,6.02803738 9.33853372,7.51752336 8.15900293,8.11331776" id="Path" fill="#493C2F"></path>
                                    <path d="M10.0190323,7.88551402 L7.70533724,9.06658879 C7.67797651,9.08000773 7.64841491,9.0883204 7.61809384,9.0911215 C7.53598474,9.10136646 7.45343265,9.0758571 7.391261,9.02102804 L9.70844575,7.83995327 C9.77090381,7.89451672 9.85283867,7.92110129 9.93527859,7.9135514 C9.96481853,7.91008586 9.99332985,7.90054141 10.0190323,7.88551402" id="Path" fill="#493C2F"></path>
                                    <polygon id="Path" fill="#493C2F" points="9.70844575 7.83995327 7.391261 9.02102804 7.11208211 8.81074766 9.42577713 7.6296729"></polygon>
                                    <path d="M5.16131965,0.389018692 L2.8441349,1.57009346 C2.80923754,1.41588785 2.8441349,1.27920561 2.93835777,1.21962617 L5.25205279,0.0385514019 C5.15434018,0.0911214953 5.12642229,0.227803738 5.16131965,0.389018692" id="Path" fill="#9E8973"></path>
                                    <polygon id="Path" fill="#9E8973" points="5.24158358 0.72546729 2.92439883 1.90654206 2.8441349 1.57009346 5.16131965 0.389018692"></polygon>
                                    <path d="M8.17296188,8.12733645 L5.85577713,9.30490654 C7.02134897,8.71261682 7.62158358,7.22313084 7.25167155,5.5864486 C6.78404692,3.59579439 5.03219941,2.14135514 3.32920821,2.34462617 C3.03616165,2.37787463 2.751364,2.46332358 2.48818182,2.59696262 L4.79140762,1.40186916 C5.05458981,1.26823012 5.33938745,1.18278117 5.63243402,1.14953271 C7.33542522,0.946261682 9.08727273,2.40070093 9.55489736,4.39485981 C9.93876833,6.02803738 9.33853372,7.51752336 8.15900293,8.11331776" id="Path" fill="#493C2F"></path>
                                    <path d="M8.17296188,8.12733645 L5.85577713,9.30490654 C7.02134897,8.71261682 7.62158358,7.22313084 7.25167155,5.5864486 C6.78404692,3.59579439 5.03219941,2.14135514 3.32920821,2.34462617 C3.03616165,2.37787463 2.751364,2.46332358 2.48818182,2.59696262 L4.79140762,1.40186916 C5.05458981,1.26823012 5.33938745,1.18278117 5.63243402,1.14953271 C7.33542522,0.946261682 9.08727273,2.40070093 9.55489736,4.39485981 C9.93876833,6.02803738 9.33853372,7.51752336 8.15900293,8.11331776" id="Path" fill="#493C2F"></path>
                                    <path d="M8.44167155,8.56191589 L6.1244868,9.73948598 C5.86872639,9.86679691 5.59606157,9.95650045 5.31486804,10.0058411 L7.63205279,8.82476636 C7.91254868,8.77443764 8.18492045,8.68600954 8.44167155,8.56191589" id="Path" fill="#493C2F"></path>
                                    <polygon id="Path" fill="#4D3F31" points="7.23422287 9.22079439 4.91703812 10.4018692 4.83677419 10.0619159 7.15395894 8.88084112"></polygon>
                                    <path d="M7.61809384,9.5046729 L5.30090909,10.6857477 C5.27929921,10.6974242 5.25555569,10.7045777 5.23111437,10.7067757 C5.07756598,10.7067757 4.95891496,10.5841121 4.91703812,10.4018692 L7.23422287,9.22079439 C7.27609971,9.40303738 7.39475073,9.5432243 7.54829912,9.52570093 C7.57262387,9.52291467 7.59625884,9.51579383 7.61809384,9.5046729" id="Path" fill="#493C2F"></path>
                                    <path d="M3.48973607,1.91705607 L1.17255132,3.09813084 C1.45172433,2.69512701 1.82574596,2.36766122 2.26134897,2.14485981 L4.57853372,0.963785047 C4.14293071,1.18658645 3.76890908,1.51405224 3.48973607,1.91705607" id="Path" fill="#493C2F"></path>
                                    <path d="M2.83017595,1.75233645 L0.512991202,2.93341121 C0.538507526,2.89311072 0.573194475,2.85947653 0.614193548,2.83528037 L2.9313783,1.65420561 C2.89037923,1.67840176 2.85569228,1.71203595 2.83017595,1.75233645" id="Path" fill="#9E8973"></path>
                                    <path d="M8.17296188,8.12733645 L5.85577713,9.30490654 C5.59098691,9.44135301 5.30359819,9.52805742 5.00777126,9.56074766 C3.31524927,9.76051402 1.55642229,8.30957944 1.08879765,6.31542056 C0.708416422,4.68224299 1.30865103,3.18925234 2.48469208,2.59696262 L4.79140762,1.40186916 C3.62583578,1.99415888 3.02211144,3.5046729 3.3955132,5.1203271 C3.86313783,7.11799065 5.61847507,8.56542056 7.3144868,8.36565421 C7.60975925,8.33241441 7.89685008,8.24698637 8.16249267,8.11331776" id="Path" fill="#3D2E1E"></path>
                                    <polygon id="Path" fill="#9E8973" points="3.20706745 2.4567757 0.889882698 3.63785047 0.624662757 3.39953271 2.94184751 2.21845794"></polygon>
                                    <path d="M2.94184751,2.21845794 L0.624662757,3.39953271 C0.483507075,3.28793564 0.437276212,3.09351529 0.512991202,2.92990654 L2.83017595,1.75233645 C2.75309317,1.91580442 2.79953496,2.11111181 2.94184751,2.22196262" id="Path" fill="#9E8973"></path>
                                    <path d="M7.15395894,8.88084112 L4.83677419,10.0619159 C4.04576702,10.0609846 3.27564671,9.80686196 2.63824047,9.3364486 L4.95193548,8.15537383 C5.59086446,8.62539975 6.36195294,8.87943858 7.15395894,8.88084112" id="Path" fill="#493C2F"></path>
                                    <path d="M2.93486804,4.90654206 L0.617683284,6.08761682 C0.473771441,5.26051851 0.568212493,4.40934291 0.889882698,3.63434579 L3.20706745,2.45327103 C2.88864614,3.2217282 2.79424591,4.06524324 2.93486804,4.88551402" id="Path" fill="#493C2F"></path>
                                    <path d="M5.63243402,1.1635514 C7.33542522,0.960280374 9.08727273,2.41471963 9.55489736,4.4088785 C10.022522,6.40303738 9.02794721,8.17990654 7.32844575,8.3796729 C5.62894428,8.57943925 3.87709677,7.13200935 3.40947214,5.13434579 C2.94184751,3.13668224 3.93642229,1.36331776 5.63243402,1.1635514 Z" id="Path" fill="#493C2F"></path>
                                    <polygon id="Path" fill="#9E8973" points="4.29237537 7.98364486 1.97519062 9.16471963 2.12175953 8.88434579 4.43894428 7.70327103"></polygon>
                                    <path d="M4.43894428,7.71028037 L2.12175953,8.89135514 C1.48745655,8.26592315 1.01641142,7.49313599 0.750293255,6.64135514 L3.06747801,5.46028037 C3.33266994,6.31248376 3.80384532,7.0854846 4.43894428,7.71028037" id="Path" fill="#493C2F"></path>
                                    <path d="M4.70765396,8.51285047 L2.39046921,9.69392523 C2.36783585,9.70675189 2.34295463,9.71508113 2.31718475,9.71845794 C2.23327232,9.72440752 2.15043758,9.69667775 2.08686217,9.64135514 C1.94679103,9.52599606 1.90103504,9.33070074 1.97519062,9.16471963 L4.29237537,7.98364486 C4.21821979,8.14962598 4.26397578,8.34492129 4.40404692,8.46028037 C4.46762233,8.51560299 4.55045707,8.54333275 4.6343695,8.53738318 C4.66013938,8.53400636 4.6850206,8.52567712 4.70765396,8.51285047" id="Path" fill="#9E8973"></path>
                                    <polygon id="Path" fill="#473A2D" points="3.06747801 5.45327103 0.750293255 6.63434579 0.464134897 6.66588785 2.78131965 5.48831776"></polygon>
                                    <path d="M10.1725806,4.03037383 C10.3367789,4.00485074 10.4914116,4.1151099 10.5215543,4.27920561 C10.5475733,4.35067659 10.5374915,4.43037895 10.4945047,4.49304621 C10.4515179,4.55571348 10.380957,4.59357421 10.3051906,4.59462617 L10.0190323,4.6296729 C10.1621024,5.45650059 10.0689333,6.30711849 9.75032258,7.08294393 L10.0155425,7.32827103 C10.1520081,7.44312535 10.1949092,7.63557037 10.1202346,7.7978972 C10.081245,7.86574327 10.0127193,7.91118984 9.93527859,7.92056075 C9.85283867,7.92811063 9.77090381,7.90152607 9.70844575,7.84696262 L9.42577713,7.63668224 C9.037769,8.28617625 8.37874887,8.72525746 7.63205279,8.8317757 L7.71231672,9.18224299 C7.75419355,9.36448598 7.71231672,9.53271028 7.54829912,9.53271028 C7.38428152,9.53271028 7.27609971,9.41004673 7.23422287,9.22780374 L7.15395894,8.87733645 C6.36195294,8.87593391 5.59086446,8.62189508 4.95193548,8.15186916 L4.80536657,8.41471963 C4.77188367,8.48073502 4.70766498,8.52548565 4.6343695,8.5338785 C4.55045707,8.53982808 4.46762233,8.51209832 4.40404692,8.4567757 C4.26397578,8.34141662 4.21821979,8.1461213 4.29237537,7.98014019 L4.43894428,7.69976636 C3.80384532,7.07497059 3.33266994,6.30196974 3.06747801,5.44976636 L2.78131965,5.48130841 C2.61780491,5.50895813 2.4624453,5.39974092 2.43234604,5.23598131 C2.40632695,5.16451032 2.41640883,5.08480797 2.45939562,5.0221407 C2.50238241,4.95947344 2.57294326,4.92161271 2.64870968,4.92056075 L2.93486804,4.88551402 C2.79424591,4.06524324 2.88864614,3.2217282 3.20706745,2.45327103 L2.94184751,2.21495327 C2.79953496,2.10410247 2.75309317,1.90879507 2.83017595,1.7453271 C2.86642492,1.67867265 2.93294562,1.6341357 3.00815249,1.62616822 C3.08927953,1.62074335 3.16934012,1.64712567 3.2314956,1.69976636 L3.48973607,1.9135514 C3.90367482,1.31236652 4.5257281,0.887559779 5.23460411,0.721962617 L5.15434018,0.371495327 C5.11246334,0.185747664 5.15434018,0.0210280374 5.31486804,0.0210280374 C5.47539589,0.0210280374 5.59055718,0.140186916 5.63243402,0.325934579 L5.71269795,0.658878505 C6.52868797,0.61829867 7.33067633,0.883026209 7.96357771,1.40186916 L8.15202346,1.13551402 C8.18827243,1.06885957 8.25479313,1.02432262 8.33,1.01635514 C8.41278296,1.01096262 8.49432824,1.03868069 8.55683284,1.09345794 C8.69526099,1.20831869 8.74086843,1.40154863 8.6685044,1.56658879 L8.52193548,1.83995327 C9.15510055,2.4608996 9.62407909,3.2306182 9.88642229,4.07943925 L10.1725806,4.03037383 Z M7.32844575,8.3796729 C9.03143695,8.17990654 10.0260117,6.40303738 9.5583871,4.4088785 C9.09076246,2.41471963 7.33891496,0.960280374 5.63592375,1.1635514 C3.93293255,1.36682243 2.94184751,3.14369159 3.40947214,5.13434579 C3.87709677,7.125 5.63243402,8.57943925 7.32844575,8.3796729 L7.32844575,8.3796729 Z" id="Shape" fill="#8D745A" fill-rule="nonzero"></path>
                                    <path d="M2.79178886,5.48481308 L0.464134897,6.6588785 C0.30062016,6.68652822 0.145260546,6.57731101 0.11516129,6.4135514 C0.0757181918,6.30319217 0.123383886,6.18052603 0.226832845,6.12616822 L2.5440176,4.94859813 C2.48952336,4.97564958 2.44812078,5.02353521 2.42909486,5.08151613 C2.41006895,5.13949706 2.41501192,5.20272103 2.44281525,5.25700935 C2.4729145,5.42076896 2.62827412,5.52998617 2.79178886,5.50233645" id="Path" fill="#9E8973"></path>
                                </g>
                                <path d="M20.4809971,27.9742991 C21.3056973,27.5838823 22.2655013,27.6072657 23.0703812,28.0373832 C24.4837243,28.7383178 27.0591496,29.2570093 28.891261,28.0373832 C30.7233724,26.817757 34.4469208,20.8107477 36.0870968,20.6775701 C34.8866276,18.1962617 34.5655718,14.4497664 34.5655718,14.4497664 C34.5655718,14.4497664 31.5260117,12.8235981 27.3418182,14.1588785 C23.1576246,15.4941589 19.9086804,20.6775701 19.9086804,20.6775701 L18.736129,24.0876168 L20.4809971,27.9742991 Z" id="Path" fill="#323643"></path>
                                <path d="M31.0304692,23.078271 L30.821085,23.0116822 C30.6047214,22.9450935 30.4546628,23.2044393 30.5279472,23.3621495 C30.082862,23.6867259 29.5955809,23.9485077 29.0797067,24.1401869 C29.0350484,23.9445962 28.8528579,23.8126176 28.6539589,23.8317757 C28.491732,23.826195 28.3470939,23.9336853 28.3049853,24.0911215 C28.2442787,24.0891613 28.1848722,24.1090482 28.137478,24.1471963 C28.1133054,24.1100828 28.081096,24.0789335 28.0432551,24.0560748 C27.9839296,24.0175234 27.9176246,23.9824766 27.8478299,23.9439252 L27.8478299,23.9439252 C27.787525,23.8498674 27.6793478,23.7982633 27.568651,23.8107477 C27.1413675,23.6463688 26.7570531,23.3862658 26.444956,23.0502336 C26.4113402,22.9975193 26.3581572,22.9604669 26.2972191,22.9473059 C26.236281,22.9341448 26.1726328,22.9459646 26.1204106,22.9801402 C25.8656598,22.4193925 25.4434018,21.8866822 25.188651,21.3259346 C24.756309,20.3785066 24.5496084,19.3429799 24.5849267,18.3014019 C24.5907087,18.1465557 24.4704032,18.0163208 24.316217,18.010514 C24.1620308,18.0047073 24.0323509,18.1255276 24.0265689,18.2803738 C23.965804,18.7456712 23.965804,19.2169456 24.0265689,19.682243 C24.0152399,19.6918566 24.0047339,19.7024076 23.9951613,19.713785 C23.6049422,20.2728688 23.3645824,20.923411 23.2972141,21.6028037 C23.1757611,22.1943695 23.113798,22.7966935 23.1122581,23.4007009 C23.094725,23.3374173 23.0581622,23.2811144 23.007566,23.239486 C23.007566,23.2044393 23.007566,23.1728972 23.007566,23.1343458 C22.9923825,23.0519125 22.9333436,22.9845152 22.8538659,22.9588856 C22.7743882,22.933256 22.6873161,22.9535361 22.6271848,23.0116822 C22.5779303,23.069401 22.5324677,23.1302773 22.491085,23.1939252 L22.4108211,23.2359813 C22.4119534,23.1678029 22.4061065,23.0996882 22.3933724,23.0327103 C22.3847255,22.9832712 22.3461557,22.9445756 22.2969186,22.9359418 C22.2476814,22.9273081 22.1983366,22.9505878 22.1735191,22.9941589 C22.1041668,23.080711 22.0606127,23.1852023 22.0478886,23.2955607 C21.899148,23.3011559 21.7809351,23.4229583 21.7791789,23.5724299 C21.7791789,23.5724299 21.7791789,23.6004673 21.7791789,23.614486 L21.7582405,23.614486 L21.7303226,23.6530374 L21.7303226,23.6530374 C21.6577539,23.7422835 21.5924041,23.8372119 21.5348974,23.9369159 C21.3255132,24.1962617 21.0568035,24.4380841 20.864868,24.6869159 C20.5926686,25.0373832 20.3414076,25.4123832 20.0796774,25.7768692 C19.9645161,25.9345794 19.8528446,26.0922897 19.7307038,26.2535047 L19.9051906,26.646028 L20.2785924,26.1168224 C20.627566,25.6471963 20.9381525,25.1635514 21.301085,24.7149533 C21.3227043,24.6932284 21.3425438,24.669788 21.3604106,24.6448598 C21.3967699,24.706973 21.4631532,24.7451149 21.5348974,24.7451149 C21.6066416,24.7451149 21.6730249,24.706973 21.7093842,24.6448598 C21.7093842,24.6273364 21.7303226,24.6063084 21.7442815,24.588785 C21.8097126,24.6185149 21.8845159,24.6195384 21.9507291,24.5916098 C22.0169424,24.5636812 22.0685846,24.5093233 22.0932551,24.4415888 C22.1176833,24.364486 22.1386217,24.2943925 22.1595601,24.2207944 C22.1979494,24.2133505 22.2339125,24.1964959 22.2642522,24.171729 C22.3235777,24.1121495 22.3794135,24.0525701 22.4317595,23.989486 C22.5038767,24.0521904 22.6109034,24.0521904 22.6830205,23.989486 C22.8040792,24.0395441 22.9433981,23.9934018 23.0110557,23.8808411 C23.0375532,23.8437547 23.0597958,23.8037818 23.0773607,23.7616822 C23.6992051,23.9104454 24.3281666,24.0274183 24.9618182,24.1121495 C25.6597654,24.161215 26.3995894,24.3189252 27.1149853,24.375 C27.0216565,24.5648919 26.9875991,24.7786612 27.0172727,24.9883178 C27.0361912,25.0903707 27.1162053,25.1699066 27.2180121,25.1878576 C27.3198189,25.2058086 27.4220255,25.1584026 27.4744282,25.0689252 C27.5460533,24.9355315 27.6056175,24.7959533 27.6524047,24.6518692 C27.720922,24.8597607 27.8410192,25.0467083 28.0013783,25.1950935 C28.0656931,25.2325516 28.1437711,25.2375732 28.2123183,25.2086602 C28.2808655,25.1797471 28.3319577,25.1202418 28.3503519,25.0478972 C28.3503519,25.0198598 28.3678006,24.9988318 28.3747801,24.9742991 C28.4510714,24.9725246 28.519884,24.9278082 28.5527566,24.8586449 C28.6223182,24.7561287 28.648664,24.6301354 28.6260411,24.5081776 C28.6260411,24.6518692 28.7551613,24.8586449 28.9261584,24.7780374 C29.6241056,24.5151869 30.6465982,24.1366822 31.1177126,23.5549065 C31.1842337,23.4857605 31.2134345,23.3886222 31.1961258,23.2940599 C31.1788171,23.1994976 31.1171272,23.1191386 31.0304692,23.078271 Z" id="Path" fill="#292D3B"></path>
                                <g id="Group" transform="translate(23.419355, 12.616822)">
                                    <path d="M11.3416422,5.09228972 L8.80460411,6.38551402 C8.76998992,6.40376445 8.73194488,6.41451041 8.69293255,6.41705607 L11.2299707,5.12733645 C11.2688931,5.12204866 11.3066475,5.11019994 11.3416422,5.09228972" id="Path" fill="#493C2F"></path>
                                    <polygon id="Path" fill="#473A2D" points="11.2299707 5.12733645 8.69293255 6.41705607 8.37536657 6.45560748 10.9124047 5.16238318"></polygon>
                                    <path d="M8.87090909,1.32476636 L6.33387097,2.61448598 C6.35890049,2.56955554 6.39651746,2.53299621 6.44205279,2.50934579 L8.97909091,1.2161215 C8.9325212,1.23996887 8.89465483,1.27799731 8.87090909,1.32476636" id="Path" fill="#493C2F"></path>
                                    <polygon id="Path" fill="#4A3D2F" points="8.66501466 1.61565421 6.12797654 2.9088785 6.33387097 2.61799065 8.87090909 1.32476636"></polygon>
                                    <path d="M10.9124047,8.73014019 L8.37536657,10.0233645 C8.34696397,10.0379088 8.31626456,10.0473952 8.28463343,10.0514019 C8.19360452,10.0585794 8.10340027,10.0296408 8.03337243,9.97079439 L10.5704106,8.67757009 C10.6390208,8.73680444 10.7278569,8.76696208 10.8181818,8.76168224 C10.8498129,8.75767557 10.8805124,8.74818917 10.908915,8.73364486" id="Path" fill="#493C2F"></path>
                                    <polygon id="Path" fill="#493C2F" points="10.5704106 8.67757009 8.03337243 9.97079439 7.7297654 9.73948598 10.2668035 8.44626168"></polygon>
                                    <path d="M5.58357771,0.515186916 L3.04653959,1.80841121 C3.00815249,1.64369159 3.04653959,1.49299065 3.14774194,1.43691589 L5.68478006,0.143691589 C5.5731085,0.199766355 5.54519062,0.35046729 5.58357771,0.515186916" id="Path" fill="#9E8973"></path>
                                    <polygon id="Path" fill="#9E8973" points="5.68129032 0.886682243 3.1442522 2.17990654 3.0570088 1.80841121 5.59404692 0.515186916"></polygon>
                                    <path d="M9.1814956,9.46261682 L6.63049853,10.7628505 C6.35061535,10.8993783 6.05361783,10.9972293 5.74759531,11.0537383 L8.28463343,9.76051402 C8.59065595,9.70400498 8.88765347,9.60615397 9.16753666,9.46962617" id="Path" fill="#493C2F"></path>
                                    <polygon id="Path" fill="#4D3F31" points="7.86237537 10.1915888 5.32533724 11.4848131 5.23809384 11.1168224 7.77513196 9.82359813"></polygon>
                                    <path d="M8.28463343,10.5140187 L5.74759531,11.8037383 C5.725404,11.8175383 5.70030858,11.8259392 5.67431085,11.828271 C5.49982405,11.8492991 5.37419355,11.6950935 5.32533724,11.4778037 L7.86237537,10.1845794 C7.91123167,10.3843458 8.03686217,10.5350467 8.21134897,10.5350467 C8.23678324,10.5322386 8.26156109,10.5251289 8.28463343,10.5140187" id="Path" fill="#493C2F"></path>
                                    <path d="M3.76542522,2.19392523 L1.2283871,3.5046729 C1.53064903,3.05923451 1.93995226,2.69760243 2.4183871,2.45327103 L4.95542522,1.16004673 C4.47699038,1.40437813 4.06768716,1.76601021 3.76542522,2.2114486" id="Path" fill="#493C2F"></path>
                                    <path d="M3.04304985,2.01168224 L0.50601173,3.30490654 C0.529561345,3.25917631 0.565964866,3.22139833 0.610703812,3.19626168 L3.14076246,1.90303738 C3.09602352,1.92817404 3.05962,1.96595202 3.03607038,2.01168224" id="Path" fill="#9E8973"></path>
                                    <path d="M8.88835777,8.99299065 L6.35131965,10.286215 C6.06219294,10.4337207 5.74889495,10.5275187 5.42653959,10.5630841 C3.57,10.7838785 1.64715543,9.19275701 1.13416422,7.00934579 C0.715395894,5.21845794 1.37495601,3.58878505 2.64870968,2.93691589 L5.1857478,1.64369159 C3.91199413,2.29556075 3.25243402,3.92523364 3.67120235,5.7161215 C4.18419355,7.89953271 6.1140176,9.49065421 7.96357771,9.26985981 C8.28593307,9.23429439 8.59923106,9.14049636 8.88835777,8.99299065" id="Path" fill="#3D2E1E"></path>
                                    <polygon id="Path" fill="#9E8973" points="3.45134897 2.77920561 0.91431085 4.07242991 0.624662757 3.81658879 3.16170088 2.52336449"></polygon>
                                    <path d="M3.16170088,2.52336449 L0.624662757,3.81658879 C0.470848857,3.69486884 0.421568739,3.48234846 0.50601173,3.30490654 L3.04304985,2.01168224 C2.95860686,2.18912416 3.00788698,2.40164454 3.16170088,2.52336449" id="Path" fill="#9E8973"></path>
                                    <path d="M7.77513196,9.81308411 L5.23460411,11.1168224 C4.36732663,11.1105608 3.52388224,10.8310695 2.82319648,10.317757 L5.3602346,9.02453271 C6.05995421,9.5371493 6.90206953,9.81660453 7.76815249,9.82359813" id="Path" fill="#493C2F"></path>
                                    <path d="M3.15821114,5.44626168 L0.621173021,6.73948598 C0.462554921,5.84061909 0.564299815,4.91491346 0.91431085,4.07242991 L3.45134897,2.77920561 C3.10133794,3.62168916 2.99959304,4.54739479 3.15821114,5.44626168" id="Path" fill="#493C2F"></path>
                                    <path d="M8.88835777,8.99299065 L6.35131965,10.286215 C7.62856305,9.63434579 8.28812317,8.00116822 7.86935484,6.21028037 C7.35636364,4.03037383 5.42653959,2.43925234 3.57348974,2.66004673 C3.25124044,2.69613765 2.93803416,2.78990823 2.64870968,2.93691589 L5.1857478,1.64369159 C5.47548268,1.49772125 5.78850073,1.40400703 6.11052786,1.36682243 C7.97055718,1.14602804 9.89340176,2.73714953 10.4029032,4.91705607 C10.8251613,6.70794393 10.1656012,8.3411215 8.88835777,8.99299065" id="Path" fill="#493C2F"></path>
                                    <path d="M9.65958944,5.17640187 C9.14659824,2.99299065 7.21677419,1.40537383 5.36372434,1.62616822 C5.29215239,1.63532675 5.22109963,1.64819439 5.15085044,1.66471963 C3.89803519,2.3271028 3.25592375,3.94275701 3.67120235,5.7161215 C4.18419355,7.89953271 6.1140176,9.49065421 7.96357771,9.26985981 C8.03630528,9.26071607 8.10852051,9.24784885 8.17994135,9.23130841 C9.42228739,8.56892523 10.074868,6.94976636 9.65958944,5.17640187 Z" id="Path" fill="#592484"></path>
                                    <path d="M6.71774194,2.13434579 C6.14542522,3.69742991 5.34627566,5.18691589 4.75302053,6.75 L4.75302053,6.75 L4.75302053,6.77102804 L4.75302053,6.77102804 C4.69369501,7.00934579 4.97985337,7.28271028 5.16131965,7.05490654 C5.60451613,6.49415888 5.72316716,5.55841121 5.97442815,4.89252336 C6.35558491,4.0205467 6.69105801,3.12914164 6.97947214,2.22196262 C7.00465542,2.17283837 6.998758,2.11344052 6.96441182,2.07027747 C6.93006563,2.02711441 6.87367781,2.00823802 6.8204134,2.02207254 C6.76714899,2.03590707 6.72694424,2.07987175 6.71774194,2.13434579 L6.71774194,2.13434579 Z" id="Path" fill="#5F4F7C"></path>
                                    <path d="M6.83290323,4.5 C6.77008798,4.98014019 6.36527859,5.53037383 6.13495601,5.9614486 C5.92389316,6.34895768 5.73966422,6.75060955 5.58357771,7.1635514 C5.51378299,7.36682243 5.82087977,7.54556075 5.91510264,7.3317757 C6.1628739,6.79205607 6.3757478,6.23481308 6.61304985,5.69158879 C6.82072755,5.32411875 6.96358388,4.92335749 7.03530792,4.50700935 C7.03655468,4.47069847 7.01841768,4.43647786 6.98772894,4.41723807 C6.95704021,4.39799829 6.9184621,4.39666231 6.8865266,4.4137334 C6.8545911,4.43080449 6.83414999,4.46368913 6.83290323,4.5 Z" id="Path" fill="#5F4F7C"></path>
                                    <path d="M8.68246334,3.74299065 L8.68246334,3.77803738 L8.68246334,3.77803738 C8.26718475,4.9521028 7.5273607,6.00350467 7.19234604,7.20560748 C7.15818818,7.28123395 7.16993774,7.36979896 7.22262017,7.43380587 C7.27530261,7.49781277 7.35970395,7.52606697 7.44009037,7.5066062 C7.52047678,7.48714544 7.58278895,7.42337334 7.60064516,7.34228972 C8.04733138,6.22429907 8.64756598,5.01518692 8.88486804,3.83761682 C8.88486804,3.72897196 8.74178886,3.6203271 8.68246334,3.74299065 Z" id="Path" fill="#5F4F7C"></path>
                                    <polygon id="Path" fill="#9E8973" points="4.64483871 8.83528037 2.10431085 10.1285047 2.26134897 9.82359813 4.7983871 8.53037383"></polygon>
                                    <path d="M4.7983871,8.53037383 L2.26134897,9.81308411 C1.56751164,9.13262232 1.05304438,8.28957219 0.764252199,7.35981308 L3.30129032,6.06658879 C3.5914152,6.99573978 4.10569424,7.83848148 4.7983871,8.51985981" id="Path" fill="#493C2F"></path>
                                    <path d="M5.0985044,9.4135514 L2.56146628,10.7067757 C2.53516076,10.7197291 2.50682747,10.7280283 2.47771261,10.7313084 C2.38744509,10.7412522 2.29725716,10.7119113 2.22994135,10.6507009 C2.06824246,10.5302326 2.01164716,10.3130841 2.09384164,10.1285047 L4.63087977,8.83528037 C4.54622457,9.01604454 4.59517598,9.2314851 4.74953079,9.35747664 C4.8190248,9.41758312 4.9092864,9.4477991 5.00079179,9.44158879 C5.03008909,9.43707316 5.05840979,9.42759253 5.08454545,9.4135514" id="Path" fill="#9E8973"></path>
                                    <polygon id="Path" fill="#473A2D" points="3.30129032 6.06308411 0.764252199 7.35630841 0.446686217 7.39485981 2.98721408 6.10163551"></polygon>
                                    <path d="M2.98721408,6.10163551 L0.450175953,7.39485981 C0.2710875,7.41711875 0.104638727,7.29858625 0.0663049853,7.12149533 C0.0228294858,7.00245425 0.0754359868,6.86962034 0.188445748,6.81308411 L2.72548387,5.51985981 C2.61247411,5.57639604 2.55986761,5.70922995 2.60334311,5.82827103 C2.64167685,6.00536195 2.80812562,6.12389445 2.98721408,6.10163551" id="Path" fill="#9E8973"></path>
                                    <path d="M11.0868915,4.50700935 C11.2623958,4.48830876 11.4241755,4.60414542 11.463783,4.77686916 C11.4914698,4.85519604 11.480637,4.942059 11.4345706,5.0111091 C11.3885042,5.08015921 11.3126326,5.12325968 11.2299707,5.12733645 L10.9124047,5.16238318 C11.0678009,6.06481829 10.9661863,6.99298298 10.6192669,7.83995327 L10.908915,8.10981308 C11.0596873,8.2353131 11.1057708,8.44791544 11.0205865,8.625 C10.9801429,8.70170443 10.9041735,8.75300594 10.8181818,8.76168224 C10.7271529,8.76885975 10.6369487,8.73992117 10.5669208,8.68107477 L10.2633138,8.44976636 C9.8333655,9.15890619 9.11257351,9.64020748 8.29510264,9.76401869 L8.37536657,10.1285047 C8.42422287,10.328271 8.37536657,10.5035047 8.20087977,10.5245327 C8.02639296,10.5455607 7.90076246,10.3913551 7.85190616,10.1740654 L7.76466276,9.82359813 C6.8985798,9.81660453 6.05646448,9.5371493 5.35674487,9.02453271 L5.19621701,9.30841121 C5.15742649,9.38134395 5.08593006,9.43095291 5.00428152,9.44158879 C4.91277614,9.4477991 4.82251453,9.41758312 4.75302053,9.35747664 C4.59866572,9.2314851 4.54971431,9.01604454 4.6343695,8.83528037 L4.78791789,8.53037383 C4.09522504,7.8489955 3.58094599,7.0062538 3.29082111,6.0771028 L2.97674487,6.11565421 C2.79765642,6.13791314 2.63120764,6.01938064 2.5928739,5.84228972 C2.56337314,5.76338098 2.57389597,5.67499622 2.62108956,5.60529681 C2.66828316,5.5355974 2.74626039,5.49327797 2.83017595,5.49182243 L3.14774194,5.45327103 C2.98912384,4.55440413 3.09086873,3.62869851 3.44087977,2.78621495 L3.15123167,2.53037383 C2.99741777,2.40865388 2.94813765,2.1961335 3.03258065,2.01869159 C3.07044501,1.94493524 3.14242816,1.89498855 3.22451613,1.88551402 C3.31473696,1.87602278 3.40474517,1.90530517 3.47228739,1.9661215 L3.75495601,2.20093458 C4.20791059,1.53948607 4.89165474,1.07295022 5.67082111,0.893691589 L5.58357771,0.515186916 C5.53821114,0.315420561 5.58357771,0.143691589 5.76155425,0.122663551 C5.93953079,0.101635514 6.05818182,0.255841121 6.11052786,0.455607477 L6.19777126,0.823598131 C7.08721995,0.77260896 7.96387518,1.05483888 8.65803519,1.61565421 L8.86392962,1.32476636 C8.90315813,1.25222737 8.97442833,1.20277538 9.0558651,1.19158879 C9.14654697,1.1834845 9.23644875,1.2140039 9.30363636,1.27570093 C9.45479693,1.40048215 9.50472653,1.61108404 9.42577713,1.79088785 L9.26524927,2.09228972 C9.95967777,2.77165175 10.473233,3.61517365 10.7588563,4.54556075 L11.0868915,4.50700935 Z M7.94612903,9.26985981 C9.80615836,9.04906542 10.8984457,7.10046729 10.3889443,4.91705607 C9.87944282,2.73364486 7.94612903,1.14602804 6.09656891,1.36682243 C4.2470088,1.58761682 3.1442522,3.53271028 3.65375367,5.7161215 C4.16325513,7.89953271 6.09656891,9.49065421 7.94612903,9.26985981 L7.94612903,9.26985981 Z" id="Shape" fill="#8D745A" fill-rule="nonzero"></path>
                                </g>
                                <path d="M39.2383284,35.7476636 C39.2383284,35.7476636 37.3748094,36.0315421 35.7241642,36.2523364 C37.5667449,36.3084112 38.8649267,36.2523364 38.8649267,36.2523364 L39.2383284,35.7476636 Z" id="Path" fill="#CACACA"></path>
                                <path d="M38.9556598,33.0140187 C38.9556598,33.0140187 33.082434,34.7663551 27.819912,34.8084112 C27.7919941,34.9976636 28.4480645,36.2278037 30.5488856,37.2231308 C29.9184016,36.7505113 29.3741145,36.1718801 28.9401173,35.5128505 C28.9110007,35.4682141 28.9082187,35.4112479 28.9328462,35.3639644 C28.9574738,35.3166808 29.0056536,35.2864857 29.0587683,35.2850467 C34.9354839,34.9836449 38.1914076,33.9392523 39.0219648,33.6378505 L38.9556598,33.0140187 Z" id="Path" fill="#CACACA"></path>
                                <path d="M43.7435777,16.5806075 C43.2759531,14.5899533 41.5241056,13.135514 39.8246041,13.338785 C39.7716678,13.3444181 39.719192,13.3537871 39.667566,13.3668224 C38.5403812,13.9801402 37.9645748,15.4450935 38.3414663,17.0502336 C38.8090909,19.0478972 40.5644282,20.4953271 42.2604399,20.2955607 L42.4209677,20.2675234 C43.5481525,19.6542056 44.1204692,18.1892523 43.7435777,16.5806075 Z" id="Path" fill="#592484"></path>
                                <path d="M19.9086804,20.6775701 C19.9086804,20.6775701 15.7663636,23.8317757 16.038563,27.021028 C16.2057223,28.9488074 16.8472837,30.8046535 17.9055718,32.421729 C17.9055718,32.421729 18.8233724,28.5070093 21.447654,27.7009346 C19.2037537,25.0514019 19.9086804,20.6775701 19.9086804,20.6775701 Z" id="Path" fill="#592484"></path>
                                <path d="M20.6485044,27.0735981 C19.5527273,25.7698598 19.3782405,23.796729 19.0292669,22.2161215 C19.0255266,22.2023484 19.0147539,22.1916255 19.0010067,22.187992 C18.9872596,22.1843585 18.9726265,22.1883664 18.9626196,22.198506 C18.9526128,22.2086456 18.9487524,22.2233764 18.9524927,22.2371495 C19.0292669,22.671729 18.9908798,23.1168224 19.0851026,23.5514019 C19.1793255,23.9859813 19.3258944,24.3925234 19.4340762,24.8060748 C19.6678886,25.6156542 19.9540469,26.5584112 20.5019355,27.2102804 C20.5961584,27.3084112 20.7252786,27.1647196 20.6485044,27.0735981 Z" id="Path" fill="#4A1079"></path>
                                <path d="M20.0761877,27.9252336 C19.3328739,27.171729 19.1165103,25.7803738 18.8582698,24.7990654 C18.7355328,24.120349 18.5485656,23.4549482 18.299912,22.8119159 C18.2911072,22.8004517 18.2756616,22.7964795 18.2624539,22.8022826 C18.2492461,22.8080857 18.2416682,22.8221738 18.2440762,22.8364486 C18.4604399,23.7721963 18.6384164,24.7219626 18.8582698,25.661215 C19.0502053,26.463785 19.2665689,27.5432243 19.8668035,28.135514 C20.006393,28.2757009 20.2053079,28.0549065 20.0761877,27.9252336 Z" id="Path" fill="#4A1079"></path>
                                <path d="M19.5806452,28.4929907 C19.2770803,27.6781111 18.9275405,26.8812595 18.5337243,26.1063084 C18.3278299,25.6577103 18.1358944,25.2021028 17.9753666,24.7359813 C17.896218,24.3865799 17.7791955,24.0469373 17.626393,23.7231308 C17.5914956,23.6670561 17.493783,23.6985981 17.5182111,23.7686916 C18.0730792,25.4123832 18.6593548,26.9964953 19.3538123,28.5876168 C19.4201173,28.7383178 19.6364809,28.6331776 19.5806452,28.4929907 Z" id="Path" fill="#4A1079"></path>
                                <path d="M19.0432258,29.0081776 C18.1847507,27.5186916 17.4030499,26.1063084 17.1134018,24.375 C17.1134018,24.3049065 17.0052199,24.3364486 17.0156891,24.4030374 C17.2287362,26.1178274 17.8539218,27.7548378 18.8373314,29.1728972 C18.9245748,29.3025701 19.1165103,29.1343458 19.0432258,29.0081776 Z" id="Path" fill="#4A1079"></path>
                                <path d="M18.5337243,29.8948598 C18.2231378,29.1483645 17.6438416,28.5525701 17.3262757,27.7920561 C17.0087097,27.0315421 16.9284457,26.1939252 16.6946334,25.3948598 C16.692693,25.3667157 16.6741408,25.3424829 16.6475563,25.3333677 C16.6209717,25.3242525 16.5915367,25.3320317 16.5728634,25.3531079 C16.5541901,25.374184 16.5499183,25.4044488 16.5620235,25.4299065 C16.8795894,27.1507009 17.2390323,28.6191589 18.3522581,30.0280374 C18.4360117,30.1401869 18.5721114,30.0070093 18.5337243,29.8948598 Z" id="Path" fill="#4A1079"></path>
                                <path d="M17.863695,30.578271 C17.7101466,30.2278037 17.5356598,29.8773364 17.3890909,29.5268692 C17.2877974,29.2236253 17.1519605,28.9331484 16.9842815,28.661215 C16.9563636,28.6191589 16.8970381,28.661215 16.9214663,28.7102804 C17.2704399,29.3165888 17.3123167,30.0665888 17.6996774,30.6623832 C17.7277553,30.6968498 17.7759631,30.7069914 17.8154543,30.6867393 C17.8549455,30.6664873 17.8750322,30.6213227 17.863695,30.578271 L17.863695,30.578271 Z" id="Path" fill="#4A1079"></path>
                                <path d="M32.1227566,20.4918224 C33.4139589,20.3376168 34.1712317,18.9883178 33.8152786,17.4742991 C33.4593255,15.9602804 32.1262463,14.8598131 30.8385337,15.021028 C29.5508211,15.182243 28.7900587,16.5245327 29.1460117,18.0385514 C29.5019648,19.5525701 30.835044,20.6565421 32.1227566,20.4918224" id="Path" stroke="#8D745A"></path>
                                <path d="M34.1188856,21.8971963 C35.0750733,21.7850467 35.6334311,20.7827103 35.3717009,19.6647196 C35.1099707,18.546729 34.1223754,17.7266355 33.1661877,17.838785 C32.21,17.9509346 31.6516422,18.953271 31.9168622,20.0712617 C32.1820821,21.1892523 33.1661877,22.0093458 34.1188856,21.8971963" id="Path" stroke="#8D745A" stroke-width="0.74"></path>
                                <path d="M32.1227566,20.4918224 C33.4139589,20.3376168 34.1712317,18.9883178 33.8152786,17.4742991 C33.4593255,15.9602804 32.1262463,14.8598131 30.8385337,15.021028 C29.5508211,15.182243 28.7900587,16.5245327 29.1460117,18.0385514 C29.5019648,19.5525701 30.835044,20.6565421 32.1227566,20.4918224" id="Path" fill="#FFFFFF" opacity="0.6"></path>
                                <path d="M34.1188856,21.8971963 C35.0750733,21.7850467 35.6334311,20.7827103 35.3717009,19.6647196 C35.1099707,18.546729 34.1223754,17.7266355 33.1661877,17.838785 C32.21,17.9509346 31.6516422,18.953271 31.9168622,20.0712617 C32.1820821,21.1892523 33.1661877,22.0093458 34.1188856,21.8971963" id="Path" fill="#FFFFFF" opacity="0.6"></path>
                                <polyline id="Path" stroke="#BAAF7E" points="21.8140762 22.0864486 27.7570968 23.7336449 32.4996481 21.2943925"></polyline>
                                <polyline id="Path" stroke="#BAAF7E" points="21.8140762 21.2207944 24.5709677 17.3761682 29.5473314 15.5257009"></polyline>
                                <line x1="21.8140762" y1="21.557243" x2="14.36" y2="26.1693925" id="Path" stroke="#BAAF7E"></line>
                                <path d="M25.9947801,17.1133178 C25.9075367,17.2780374 25.5829912,16.9871495 25.5411144,16.9380841 C25.4673543,16.8430221 25.4095911,16.7364724 25.3701173,16.6226636 C25.3701173,16.5700935 25.3421994,16.5175234 25.3317302,16.4719626 C25.2758944,16.2266355 24.9583284,16.328271 24.9827566,16.5595794 C24.9880168,16.5963878 24.9961853,16.6327174 25.0071848,16.6682243 C25.0518299,16.82964 25.0798942,16.9952237 25.0909384,17.1623832 C24.974742,17.0052437 24.8937881,16.8247089 24.8536364,16.6331776 C24.7943109,16.3703271 24.4383578,16.478972 24.4837243,16.7313084 C24.4837243,16.7313084 24.4837243,16.7313084 24.4837243,16.7593458 L24.434868,16.6857477 C24.396497,16.643176 24.3419869,16.618889 24.2848094,16.618889 C24.2276319,16.618889 24.1731218,16.643176 24.1347507,16.6857477 C24.0962189,16.7251924 24.0675203,16.7732282 24.0509971,16.8259346 C24.0495977,16.8119511 24.0495977,16.797862 24.0509971,16.7838785 C24.1417302,16.6857477 24.1138123,16.4754673 23.946305,16.4684579 L23.8834897,16.4684579 C23.7871233,16.4684579 23.7090029,16.5469127 23.7090029,16.6436916 C23.6496774,17.1168224 24.1452199,18.396028 24.7349853,18.3504673 C24.8238106,18.3501138 24.9012253,18.2896447 24.9234311,18.203271 C24.9425833,18.0731368 24.9425833,17.9408819 24.9234311,17.8107477 C24.955894,17.7438793 24.9748699,17.6712241 24.9792669,17.5969626 C25.0279541,17.6295831 25.0807688,17.6555142 25.136305,17.6740654 C25.2170162,17.6969443 25.3029544,17.6624219 25.3456891,17.5899533 C25.3921262,17.5154918 25.4218943,17.4317842 25.4329326,17.3446262 C25.7156012,17.6109813 26.0575953,17.7301402 26.2634897,17.3200935 C26.3751613,17.1098131 26.1029619,16.8995327 25.9947801,17.1133178 Z" id="Path" fill="#BAAF7E"></path>
                                <path d="M29.0029326,21.9988318 C28.8144868,22.0654206 28.8075073,22.4158879 29.0413196,22.4088785 C29.275132,22.4018692 29.3902933,22.9065421 29.2576833,23.057243 C29.1250733,23.2079439 29.1564809,23.1098131 29.0482991,22.9871495 C28.9401173,22.864486 28.9156891,22.8189252 28.8424047,22.7383178 C28.7097947,22.5911215 28.5283284,22.713785 28.4934311,22.8785047 C28.4934311,22.9731308 28.4934311,23.228972 28.4724927,23.4252336 C28.4650145,23.3987546 28.459187,23.3718333 28.455044,23.3446262 C28.455044,23.2184579 28.4306158,23.0922897 28.4131672,22.9696262 C28.3852493,22.7558411 28.0816422,22.8049065 28.0641935,23.0046729 C28.0771755,23.253405 28.0607759,23.5028059 28.0153372,23.7476636 C27.9249595,23.3925677 27.878083,23.0277197 27.8757478,22.661215 C27.8757478,22.5547582 27.7898154,22.4684579 27.6838123,22.4684579 C27.5778093,22.4684579 27.4918768,22.5547582 27.4918768,22.661215 C27.4744282,22.9240654 27.45,23.1869159 27.4290616,23.453271 C27.4266134,23.6497456 27.4067599,23.8456116 27.3697361,24.0385514 C27.198739,23.6390187 27.2999413,22.9661215 27.3243695,22.6086449 C27.3243695,22.511866 27.2462491,22.4334112 27.1498827,22.4334112 C27.0535163,22.4334112 26.9753959,22.511866 26.9753959,22.6086449 C26.9056012,23.2044393 26.7415836,24.1647196 27.2231672,24.6378505 C27.2640255,24.6811449 27.3208094,24.7056668 27.3802053,24.7056668 C27.4396011,24.7056668 27.4963851,24.6811449 27.5372434,24.6378505 C27.6545493,24.525628 27.740057,24.3841178 27.7850147,24.2278037 C27.8471407,24.2968614 27.9267336,24.3477282 28.0153372,24.375 C28.1103034,24.4008433 28.2106742,24.3590831 28.2596188,24.2733645 C28.3006073,24.2062953 28.3334138,24.134518 28.3573314,24.0595794 C28.4160745,24.0963396 28.4905238,24.0963396 28.5492669,24.0595794 C28.735647,23.8946116 28.8371124,23.6534062 28.824956,23.4042056 C28.9153341,23.5106428 29.0378838,23.5844874 29.1739296,23.614486 C29.446129,23.6670561 29.5926979,23.4042056 29.6485337,23.1693925 C29.7846334,22.7453271 29.6241056,21.7920561 29.0029326,21.9988318 Z" id="Path" fill="#BAAF7E"></path>
                                <path d="M23.4856598,21.2698598 C23.4567319,21.198641 23.3877616,21.1520891 23.311173,21.1520891 C23.2345845,21.1520891 23.1656141,21.198641 23.1366862,21.2698598 C23.059912,21.3714953 22.7877126,21.9497664 22.7109384,21.9007009 C22.6380767,21.8044344 22.5955413,21.6884871 22.5887977,21.567757 C22.6059699,21.3214027 22.5823857,21.0738931 22.5190029,20.8352804 C22.4957316,20.755943 22.4289802,20.697204 22.3476084,20.6844586 C22.2662366,20.6717133 22.1848446,20.7072485 22.1386217,20.7757009 C22.1386217,20.7406542 22.1386217,20.7056075 22.1176833,20.6775701 C22.0961417,20.6004509 22.0369437,20.5396784 21.9606452,20.5163551 C21.8978299,20.4147196 21.7826686,20.3621495 21.684956,20.4848131 C21.358417,20.8793696 21.1310221,21.3469234 21.0219062,21.8481308 C20.9590909,22.1705607 20.9032551,22.6857477 21.315044,22.7663551 C21.4927356,22.7980808 21.6722521,22.7210124 21.7721994,22.5700935 C21.8173395,22.6398796 21.8726242,22.7024888 21.936217,22.7558411 C22.0104294,22.8045247 22.1062862,22.8045247 22.1804985,22.7558411 C22.3242398,22.6552686 22.4290142,22.5079566 22.4771261,22.338785 C22.4974974,22.3615746 22.5196714,22.3826715 22.5434311,22.4018692 C22.9238123,22.6542056 23.1576246,22.1530374 23.3216422,21.7815421 C23.3750091,21.7873979 23.4284669,21.7713418 23.4698696,21.7370219 C23.5112723,21.702702 23.537104,21.6530326 23.5414956,21.5992991 C23.5658259,21.4863624 23.5458247,21.3683528 23.4856598,21.2698598 L23.4856598,21.2698598 Z M21.3918182,22.2581776 C21.3918182,22.2581776 21.4092669,22.1635514 21.4267155,22.0584112 C21.4475428,21.9082049 21.4825992,21.7603381 21.5314076,21.6168224 C21.5357156,21.6022196 21.541565,21.5881208 21.5488563,21.5747664 C21.5400845,21.6914227 21.5400845,21.8085773 21.5488563,21.9252336 C21.5391979,22.0490665 21.4888722,22.1661741 21.4057771,22.2581776 L21.3918182,22.2581776 Z" id="Shape" fill="#BAAF7E" fill-rule="nonzero"></path>
                                <path d="M20.508915,21.4906542 C20.4965073,21.4328199 20.4535538,21.3864568 20.3970086,21.3698648 C20.3404634,21.3532728 20.2794115,21.3691178 20.2379507,21.4111456 C20.1964898,21.4531733 20.1812815,21.5146314 20.1983284,21.5712617 C20.243695,21.7464953 20.4914663,22.8224299 20.4740176,22.8294393 C20.4565689,22.8364486 19.992434,22.0233645 19.8912317,21.8551402 C19.8580057,21.7823887 19.7821122,21.7391929 19.7028923,21.7479444 C19.6236724,21.7566959 19.558943,21.8154264 19.5422581,21.8936916 C19.4410557,22.2897196 19.7097654,22.7873832 19.6678886,23.1939252 C19.5108504,23.0011682 19.3887097,22.7348131 19.2560997,22.5525701 C19.1234897,22.3703271 18.9524927,22.5280374 18.9559824,22.6752336 C18.961879,22.7833961 18.9806238,22.8904634 19.0118182,22.9941589 C18.9769208,22.8925234 18.9455132,22.7943925 18.921085,22.713785 C18.8582698,22.521028 18.5721114,22.510514 18.5721114,22.7383178 C18.5689157,22.7539347 18.5616958,22.7684362 18.551173,22.7803738 L18.5337243,22.7803738 L18.5337243,22.8014019 C18.5337243,22.9871495 18.6523754,23.3025701 18.6070088,23.4287383 C18.6523754,23.5654206 18.6523754,23.6004673 18.5825806,23.5303738 C18.504736,23.3962101 18.4336875,23.2581838 18.3697067,23.1168224 C18.2894428,22.9485981 18.0975073,23.0221963 18.06261,23.1658879 C18.06261,23.1658879 18.06261,23.1658879 18.06261,23.1658879 C17.93,23.0852804 17.8078592,23.1904206 17.7904106,23.3271028 C17.7825715,23.5361153 17.7545217,23.7438678 17.7066569,23.9474299 C17.7066569,23.9474299 17.6089443,23.6600467 17.5426393,23.4742991 C17.5265962,23.4026602 17.5019895,23.3332315 17.4693548,23.2675234 C17.4298446,23.1707445 17.3196948,23.1244562 17.2233285,23.1641355 C17.1269621,23.2038149 17.080871,23.3144361 17.1203812,23.411215 C17.1378299,23.4778037 17.1587683,23.5689252 17.1831965,23.6670561 C17.1687808,23.8622763 17.1103045,24.0516396 17.0121994,24.2207944 C16.8970381,24.4380841 17.2076246,24.6728972 17.3297654,24.4380841 C17.361173,24.375 17.3925806,24.3119159 17.4204985,24.2418224 C17.4976236,24.374539 17.6518398,24.4413206 17.8008798,24.4065421 C17.9148321,24.3713371 18.0030032,24.2801455 18.0346921,24.1647196 C18.0790097,24.2513337 18.1408119,24.3277235 18.2161584,24.3890187 C18.3348094,24.4941589 18.4918475,24.3504673 18.498827,24.2242991 C18.50232,24.1554185 18.50232,24.086404 18.498827,24.0175234 C18.5718273,24.073704 18.6586936,24.1088416 18.750088,24.1191589 C18.8373314,24.1191589 18.9071261,24.0525701 18.9315543,23.978972 C18.9547997,23.909497 18.9711644,23.8378886 18.9804106,23.7651869 C19.0257734,23.8202568 19.0786396,23.8686299 19.1374487,23.9088785 C19.187219,23.9411596 19.2493759,23.9475413 19.304621,23.9260423 C19.359866,23.9045432 19.4015116,23.8577658 19.4166276,23.8002336 C19.4415997,23.7209383 19.4533901,23.6380522 19.4515249,23.5549065 C19.5116126,23.6264452 19.5836468,23.6869282 19.6643988,23.7336449 C19.7067286,23.7627254 19.7593348,23.7724595 19.809205,23.7604394 C19.8590753,23.7484193 19.9015522,23.7157676 19.926129,23.6705607 C20.0425948,23.4098216 20.0575362,23.1147163 19.9680059,22.8434579 C20.1355132,23.1028037 20.3414076,23.2990654 20.5752199,23.2149533 C21.0847214,23.0151869 20.5926686,21.8060748 20.508915,21.4906542 Z" id="Path" fill="#BAAF7E"></path>
                                <path d="M14.6740762,26.2044393 C14.6237942,25.9834296 14.5945812,25.7581137 14.5868328,25.5315421 C14.5868328,25.4212141 14.4977756,25.3317757 14.3879179,25.3317757 C14.2780602,25.3317757 14.1890029,25.4212141 14.1890029,25.5315421 C14.1890029,25.5806075 14.1890029,25.6296729 14.1890029,25.6787383 L14.1890029,25.6787383 C14.0075367,25.6226636 13.9028446,25.7978972 13.9202933,25.9556075 C13.9283871,26.0466109 13.9435556,26.1368393 13.9656598,26.2254673 C13.8624257,26.1022057 13.7009376,26.0445717 13.5434018,26.0747664 C13.4752888,26.0952459 13.4225168,26.1495687 13.4038123,26.2184579 C13.3601002,26.3587966 13.3601002,26.509194 13.4038123,26.6495327 C13.4666276,26.8983645 13.7527859,26.8037383 13.7527859,26.5759346 C13.8470088,26.6775701 13.9691496,26.8247664 14.0040469,26.8563084 C14.1261877,26.9649533 14.2169208,27.0420561 14.3844282,27.0035047 C14.5030607,26.9649009 14.5727159,26.8417222 14.544956,26.7196262 C14.5275073,26.6530374 14.5100587,26.5829439 14.4891202,26.5128505 C14.6245534,26.4783763 14.7070676,26.3407851 14.6740762,26.2044393 Z" id="Path" fill="#BAAF7E"></path>
                                <path d="M42.1034018,14.3691589 C41.6881232,14.4778037 41.4438416,15.4906542 41.2728446,15.8271028 C40.791261,16.7733645 40.3096774,17.7231308 39.8769501,18.6904206 C39.7234018,19.0408879 40.1665982,19.3913551 40.3724927,19.0408879 C40.7056686,18.3647171 40.9993047,17.6696124 41.2519062,16.9591121 C41.4229032,16.5420561 41.6008798,16.1214953 41.7509384,15.6974299 C41.8242229,15.5011682 41.9917302,14.6845794 42.1836657,14.603972 C42.298827,14.5443925 42.2290323,14.3376168 42.1034018,14.3691589 Z" id="Path" fill="#5F4F7C"></path>
                                <path d="M42.5640469,15.5011682 C42.2023741,15.9522166 41.9084424,16.4540392 41.6916129,16.9906542 C41.3780167,17.5066327 41.1083497,18.0482752 40.8854839,18.6098131 C40.8226686,18.8095794 41.0390323,19.0654206 41.2344575,18.932243 C41.6322874,18.6728972 41.7334897,18.0175234 41.9044868,17.5969626 C42.1288889,16.927438 42.39582,16.2730574 42.7036364,15.6378505 C42.7699413,15.5432243 42.6547801,15.4205607 42.5640469,15.5011682 Z" id="Path" fill="#5F4F7C"></path>
                                <path d="M40.67261,13.7663551 C40.4318182,13.8364486 40.3585337,14.2079439 40.2573314,14.411215 C40.0584164,14.807243 39.8350733,15.192757 39.6082405,15.5712617 C39.4930792,15.760514 39.7757478,15.9672897 39.8839296,15.760514 C40.051437,15.4415888 40.2329032,15.1191589 40.3690029,14.7932243 C40.4353079,14.6425234 40.5016129,14.4918224 40.5644282,14.3411215 C40.606305,14.2464953 40.6551613,14.036215 40.7424047,13.9661215 C40.8296481,13.896028 40.7982405,13.7313084 40.67261,13.7663551 Z" id="Path" fill="#5F4F7C"></path>
                                <path d="M18.5581525,28.5911215 C19.1060411,27.7535047 19.6713783,26.9334112 20.257654,26.1378505 L20.4077126,25.9275701 C20.3553666,25.7838785 20.3030205,25.6436916 20.257654,25.5 L20.0482698,25.7978972 C19.4305865,26.6495327 18.8233724,27.5081776 18.2440762,28.3878505 C18.1114663,28.5911215 17.5147214,29.5584112 16.9144868,30.5817757 C16.9703226,30.7184579 17.0296481,30.8446262 17.0854839,30.9672897 C17.5426393,30.1401869 18.0521408,29.3691589 18.5581525,28.5911215 Z" id="Path" fill="#4A1079"></path>
                                <path d="M17.9055718,32.4357477 C17.9055718,32.4357477 18.8233724,28.521028 21.447654,27.7149533 C21.3848387,27.6413551 21.3255132,27.5642523 21.2661877,27.4871495 C20.4464165,27.8822301 19.7393708,28.4789799 19.2107331,29.2219626 C18.5616422,30.0841121 17.8148387,31.0619159 17.7380645,32.1764019 C17.8357771,32.3446262 17.9055718,32.4357477 17.9055718,32.4357477 Z" id="Path" fill="#4A1079"></path>
                                <path d="M39.9781525,25.2336449 C39.8804399,25.2126168 39.7897067,25.1845794 39.6954839,25.1600467 C40.5190616,25.5841121 41.5659824,25.6857477 42.113871,25.0934579 C42.9025513,24.2488318 41.9882405,23.2780374 41.9882405,23.2780374 L41.9882405,23.2780374 C41.7602412,23.3546245 41.5269699,23.4143633 41.2902933,23.4567757 C40.8643132,23.5535815 40.4332247,23.6261272 39.9990909,23.6740654 C39.9397654,23.6740654 39.9327859,23.7827103 39.9990909,23.7827103 C40.5028383,23.7595163 41.0031041,23.6867377 41.4926979,23.5654206 C41.666625,23.5273095 41.8379669,23.4781451 42.0056891,23.4182243 C42.0023931,23.4296721 42.0023931,23.4418233 42.0056891,23.453271 C42.536129,24.8516355 41.1507038,25.4859813 39.9781525,25.2336449 Z" id="Path" fill="#292D3B"></path>
                            </g>
                        </g>
                    </g>
                </g>
            </g>
        </g>
    </g>
</svg>